<?xml version="1.0" encoding="UTF-8" standalone="no"?>
<svg
   version="1.1"
   viewBox="0 0 597.91412 185.30426"
   fill="none"
   stroke="none"
   stroke-linecap="square"
   stroke-miterlimit="10"
   id="svg221"
   sodipodi:docname="tdfa_construction_tnfa_simulation.svg"
   width="597.91412"
   height="185.30426"
   inkscape:version="1.1.1 (3bf5ae0d25, 2021-09-20)"
   xmlns:inkscape="http://www.inkscape.org/namespaces/inkscape"
   xmlns:sodipodi="http://sodipodi.sourceforge.net/DTD/sodipodi-0.dtd"
   xmlns="http://www.w3.org/2000/svg"
   xmlns:svg="http://www.w3.org/2000/svg">
  <defs
     id="defs225">
    <clipPath
       clipPathUnits="userSpaceOnUse"
       id="clipPath251">
      <rect
         style="fill:#0000ff;fill-rule:evenodd"
         id="rect253"
         width="597.91412"
         height="185.30426"
         x="0"
         y="0" />
    </clipPath>
  </defs>
  <sodipodi:namedview
     id="namedview223"
     pagecolor="#ffffff"
     bordercolor="#666666"
     borderopacity="1.0"
     inkscape:pageshadow="2"
     inkscape:pageopacity="0.0"
     inkscape:pagecheckerboard="0"
     showgrid="false"
     inkscape:zoom="1.3197917"
     inkscape:cx="480"
     inkscape:cy="269.73954"
     inkscape:window-width="1916"
     inkscape:window-height="1037"
     inkscape:window-x="0"
     inkscape:window-y="20"
     inkscape:window-maximized="1"
     inkscape:current-layer="svg221" />
  <clipPath
     id="gd3650c1d61_0_1057.0">
    <path
       d="M 0,0 H 960 V 540 H 0 Z"
       clip-rule="nonzero"
       id="path2" />
  </clipPath>
  <g
     clip-path="url(#clipPath251)"
     id="g219">
    <path
       fill="#ffffff"
       d="M 0,0 H 960 V 540 H 0 Z"
       fill-rule="evenodd"
       id="path5" />
    <path
       fill="#000000"
       fill-opacity="0"
       d="M 32.72441,11.68504 H 927.27556 V 71.811019 H 32.72441 Z"
       fill-rule="evenodd"
       id="path7" />
    <path
       fill="#ffffff"
       d="m 52.708786,44.87479 q -4.546875,-1.3125 -6.609375,-3.203125 -2.0625,-1.90625 -2.0625,-4.703125 0,-3.15625 2.515625,-5.21875 2.53125,-2.0625 6.578125,-2.0625 2.75,0 4.90625,1.0625 2.15625,1.0625 3.328125,2.9375 1.1875,1.875 1.1875,4.09375 h -3.53125 q 0,-2.421875 -1.546875,-3.796875 -1.546875,-1.390625 -4.34375,-1.390625 -2.609375,0 -4.078125,1.140625 -1.453125,1.140625 -1.453125,3.1875 0,1.625 1.375,2.765625 1.390625,1.125 4.71875,2.0625 3.34375,0.9375 5.21875,2.0625 1.890625,1.125 2.796875,2.640625 0.90625,1.5 0.90625,3.53125 0,3.25 -2.53125,5.203125 -2.53125,1.953125 -6.78125,1.953125 -2.75,0 -5.140625,-1.046875 -2.375,-1.0625 -3.671875,-2.890625 -1.296875,-1.84375 -1.296875,-4.171875 h 3.546875 q 0,2.421875 1.78125,3.828125 1.796875,1.40625 4.78125,1.40625 2.796875,0 4.28125,-1.140625 1.484375,-1.140625 1.484375,-3.09375 0,-1.96875 -1.375,-3.03125 -1.375,-1.078125 -4.984375,-2.125 z m 26.146683,9.9375 q -1.984375,2.328125 -5.8125,2.328125 -3.171875,0 -4.84375,-1.84375 -1.65625,-1.84375 -1.671875,-5.453125 V 36.921665 h 3.390625 V 49.74979 q 0,4.515625 3.671875,4.515625 3.890625,0 5.171875,-2.90625 v -14.4375 h 3.40625 V 56.78104 h -3.234375 z m 25.286791,-7.734375 q 0,4.546875 -2.09375,7.3125 -2.093752,2.75 -5.625002,2.75 -3.765625,0 -5.8125,-2.65625 l -0.171875,2.296875 h -3.125 V 28.577915 h 3.40625 v 10.53125 q 2.046875,-2.5625 5.65625,-2.5625 3.624997,0 5.687497,2.734375 2.07813,2.734375 2.07813,7.5 z m -3.40625,-0.390625 q 0,-3.46875 -1.343752,-5.359375 -1.328125,-1.890625 -3.84375,-1.890625 -3.359375,0 -4.828125,3.125 v 8.578125 q 1.5625,3.125 4.859375,3.125 2.4375,0 3.796875,-1.890625 1.359377,-1.890625 1.359377,-5.6875 z m 10.87266,-9.765625 0.0937,2.203125 q 2.1875,-2.578125 5.89063,-2.578125 4.17187,0 5.67187,3.203125 0.98438,-1.4375 2.57813,-2.3125 1.59375,-0.890625 3.75,-0.890625 6.53125,0 6.64062,6.921875 v 13.3125 H 132.843 V 43.671665 q 0,-2.125 -0.96875,-3.171875 -0.96875,-1.0625 -3.26563,-1.0625 -1.89062,0 -3.14062,1.125 -1.25,1.125 -1.45313,3.03125 v 13.1875 h -3.40625 V 43.765415 q 0,-4.328125 -4.25,-4.328125 -3.34375,0 -4.5625,2.84375 v 14.5 h -3.40625 V 36.921665 Z m 42.0121,19.859375 q -0.29687,-0.59375 -0.46875,-2.09375 -2.375,2.453125 -5.65625,2.453125 -2.9375,0 -4.82812,-1.65625 -1.875,-1.65625 -1.875,-4.203125 0,-3.109375 2.35937,-4.828125 2.35938,-1.71875 6.64063,-1.71875 h 3.29687 v -1.5625 q 0,-1.765625 -1.0625,-2.828125 -1.0625,-1.0625 -3.14062,-1.0625 -1.8125,0 -3.04688,0.921875 -1.23437,0.921875 -1.23437,2.21875 h -3.40625 q 0,-1.484375 1.04687,-2.859375 1.0625,-1.390625 2.85938,-2.203125 1.8125,-0.8125 3.98437,-0.8125 3.4375,0 5.375,1.71875 1.95313,1.71875 2.03125,4.734375 v 9.140625 q 0,2.734375 0.6875,4.34375 v 0.296875 z m -5.625,-2.59375 q 1.59375,0 3.01563,-0.8125 1.4375,-0.828125 2.07812,-2.15625 v -4.078125 h -2.65625 q -6.25,0 -6.25,3.65625 0,1.59375 1.0625,2.5 1.07813,0.890625 2.75,0.890625 z m 18.4177,-22.078125 v 4.8125 h 3.71875 v 2.625 h -3.71875 v 12.3125 q 0,1.203125 0.5,1.796875 0.5,0.59375 1.6875,0.59375 0.59375,0 1.625,-0.21875 v 2.75 q -1.34375,0.359375 -2.60938,0.359375 -2.28125,0 -3.4375,-1.375 -1.15625,-1.375 -1.15625,-3.90625 v -12.3125 h -3.60937 v -2.625 h 3.60937 v -4.8125 z m 15.63975,22.265625 q 1.82813,0 3.1875,-1.09375 1.35938,-1.109375 1.5,-2.765625 h 3.21875 q -0.0937,1.71875 -1.1875,3.265625 -1.07812,1.53125 -2.89062,2.453125 -1.79688,0.90625 -3.82813,0.90625 -4.04687,0 -6.45312,-2.703125 -2.39063,-2.703125 -2.39063,-7.40625 v -0.5625 q 0,-2.90625 1.0625,-5.15625 1.0625,-2.265625 3.04688,-3.515625 2,-1.25 4.71875,-1.25 3.34375,0 5.54687,2 2.21875,2 2.375,5.203125 h -3.21875 q -0.14062,-1.921875 -1.45312,-3.15625 -1.3125,-1.25 -3.25,-1.25 -2.57813,0 -4.01563,1.859375 -1.42187,1.859375 -1.42187,5.390625 v 0.640625 q 0,3.4375 1.40625,5.296875 1.42187,1.84375 4.04687,1.84375 z M 197.1687,39.327915 q 2.25,-2.78125 5.875,-2.78125 6.29688,0 6.34375,7.109375 v 13.125 h -3.39062 V 43.640415 q -0.0156,-2.15625 -0.98438,-3.171875 -0.96875,-1.03125 -3,-1.03125 -1.65625,0 -2.90625,0.890625 -1.25,0.875 -1.9375,2.296875 v 14.15625 h -3.40625 V 28.577915 h 3.40625 z m 34.85634,17.8125 q -4.03125,0 -6.57812,-2.640625 -2.53125,-2.65625 -2.53125,-7.09375 v -0.625 q 0,-2.953125 1.125,-5.28125 1.14062,-2.328125 3.15625,-3.640625 2.03125,-1.3125 4.40625,-1.3125 3.875,0 6.01562,2.5625 2.15625,2.546875 2.15625,7.296875 v 1.421875 h -13.45312 q 0.0625,2.9375 1.70312,4.75 1.65625,1.796875 4.1875,1.796875 1.79688,0 3.04688,-0.734375 1.25,-0.734375 2.1875,-1.9375 l 2.0625,1.609375 q -2.48438,3.828125 -7.48438,3.828125 z M 231.60317,39.34354 q -2.0625,0 -3.45313,1.5 -1.39062,1.484375 -1.71875,4.1875 h 9.9375 v -0.25 q -0.14062,-2.59375 -1.39062,-4.015625 -1.25,-1.421875 -3.375,-1.421875 z m 18.76036,4.828125 4.40625,-7.25 h 3.96875 l -6.5,9.8125 6.70312,10.046875 h -3.9375 l -4.59375,-7.4375 -4.57812,7.4375 h -3.95313 l 6.70313,-10.046875 -6.5,-9.8125 h 3.92187 z m 16.56915,-12.0625 v 4.8125 h 3.71875 v 2.625 h -3.71875 v 12.3125 q 0,1.203125 0.5,1.796875 0.5,0.59375 1.6875,0.59375 0.59375,0 1.625,-0.21875 v 2.75 q -1.34375,0.359375 -2.60938,0.359375 -2.28125,0 -3.4375,-1.375 -1.15625,-1.375 -1.15625,-3.90625 v -12.3125 h -3.60937 v -2.625 h 3.60937 v -4.8125 z m 17.28039,7.859375 q -0.76562,-0.125 -1.67187,-0.125 -3.34375,0 -4.53125,2.84375 V 56.78104 H 274.6037 V 36.921665 h 3.3125 l 0.0469,2.296875 q 1.67188,-2.671875 4.75,-2.671875 0.98438,0 1.5,0.265625 z m 14.6428,16.8125 q -0.29688,-0.59375 -0.46875,-2.09375 -2.375,2.453125 -5.65625,2.453125 -2.9375,0 -4.82813,-1.65625 -1.875,-1.65625 -1.875,-4.203125 0,-3.109375 2.35938,-4.828125 2.35937,-1.71875 6.64062,-1.71875 h 3.29688 v -1.5625 q 0,-1.765625 -1.0625,-2.828125 -1.0625,-1.0625 -3.14063,-1.0625 -1.8125,0 -3.04687,0.921875 -1.23438,0.921875 -1.23438,2.21875 h -3.40625 q 0,-1.484375 1.04688,-2.859375 1.0625,-1.390625 2.85937,-2.203125 1.8125,-0.8125 3.98438,-0.8125 3.4375,0 5.375,1.71875 1.95312,1.71875 2.03125,4.734375 v 9.140625 q 0,2.734375 0.6875,4.34375 v 0.296875 z m -5.625,-2.59375 q 1.59375,0 3.01562,-0.8125 1.4375,-0.828125 2.07813,-2.15625 v -4.078125 h -2.65625 q -6.25,0 -6.25,3.65625 0,1.59375 1.0625,2.5 1.07812,0.890625 2.75,0.890625 z m 21.77707,0.1875 q 1.82812,0 3.1875,-1.09375 1.35937,-1.109375 1.5,-2.765625 h 3.21875 q -0.0937,1.71875 -1.1875,3.265625 -1.07813,1.53125 -2.89063,2.453125 -1.79687,0.90625 -3.82812,0.90625 -4.04688,0 -6.45313,-2.703125 -2.39062,-2.703125 -2.39062,-7.40625 v -0.5625 q 0,-2.90625 1.0625,-5.15625 1.0625,-2.265625 3.04687,-3.515625 2,-1.25 4.71875,-1.25 3.34375,0 5.54688,2 2.21875,2 2.375,5.203125 h -3.21875 q -0.14063,-1.921875 -1.45313,-3.15625 -1.3125,-1.25 -3.25,-1.25 -2.57812,0 -4.01562,1.859375 -1.42188,1.859375 -1.42188,5.390625 v 0.640625 q 0,3.4375 1.40625,5.296875 1.42188,1.84375 4.04688,1.84375 z m 16.3186,-22.265625 v 4.8125 h 3.71875 v 2.625 h -3.71875 v 12.3125 q 0,1.203125 0.5,1.796875 0.5,0.59375 1.6875,0.59375 0.59375,0 1.625,-0.21875 v 2.75 q -1.34375,0.359375 -2.60937,0.359375 -2.28125,0 -3.4375,-1.375 -1.15625,-1.375 -1.15625,-3.90625 v -12.3125 h -3.60938 v -2.625 h 3.60938 v -4.8125 z m 11.37412,24.671875 h -3.40625 V 36.921665 h 3.40625 z m -3.67188,-25.125 q 0,-0.828125 0.5,-1.390625 0.5,-0.578125 1.48438,-0.578125 1,0 1.51562,0.578125 0.51563,0.5625 0.51563,1.390625 0,0.828125 -0.51563,1.375 -0.51562,0.546875 -1.51562,0.546875 -0.98438,0 -1.48438,-0.546875 -0.5,-0.546875 -0.5,-1.375 z m 8.20123,15.015625 q 0,-2.921875 1.14063,-5.25 1.15625,-2.34375 3.20312,-3.609375 2.04688,-1.265625 4.67188,-1.265625 4.04687,0 6.54687,2.8125 2.51563,2.8125 2.51563,7.46875 v 0.25 q 0,2.890625 -1.10938,5.203125 -1.10937,2.296875 -3.17187,3.578125 -2.0625,1.28125 -4.75,1.28125 -4.03125,0 -6.54688,-2.796875 -2.5,-2.8125 -2.5,-7.4375 z m 3.40625,0.40625 q 0,3.296875 1.53125,5.296875 1.54688,2 4.10938,2 2.59375,0 4.10937,-2.03125 1.53125,-2.03125 1.53125,-5.671875 0,-3.265625 -1.5625,-5.296875 -1.54687,-2.03125 -4.10937,-2.03125 -2.51563,0 -4.0625,2 -1.54688,2 -1.54688,5.734375 z m 22.14331,-10.15625 0.10938,2.5 q 2.28125,-2.875 5.95312,-2.875 6.29688,0 6.34375,7.109375 v 13.125 H 381.7952 V 43.640415 q -0.0156,-2.15625 -0.98438,-3.171875 -0.96875,-1.03125 -3,-1.03125 -1.65625,0 -2.90625,0.890625 -1.25,0.875 -1.9375,2.296875 v 14.15625 h -3.40625 V 36.921665 Z"
       fill-rule="nonzero"
       id="path9" />
    <path
       fill="#000000"
       fill-opacity="0"
       d="m 269.74277,50.974068 v 0 c 0,-8.639591 7.00378,-15.64336 15.64337,-15.64336 h 62.57157 v 0 c 4.14886,0 8.1278,1.648136 11.06152,4.581833 2.93368,2.933701 4.58182,6.912651 4.58182,11.061527 v 86.823522 c 0,8.63959 -7.00376,15.64336 -15.64334,15.64336 h -62.57157 c -8.63959,0 -15.64337,-7.00377 -15.64337,-15.64336 z"
       fill-rule="evenodd"
       id="path11" />
    <path
       stroke="#1c4587"
       stroke-width="1"
       stroke-linejoin="round"
       stroke-linecap="butt"
       d="m 269.74277,50.974068 v 0 c 0,-8.639591 7.00378,-15.64336 15.64337,-15.64336 h 62.57157 v 0 c 4.14886,0 8.1278,1.648136 11.06152,4.581833 2.93368,2.933701 4.58182,6.912651 4.58182,11.061527 v 86.823522 c 0,8.63959 -7.00376,15.64336 -15.64334,15.64336 h -62.57157 c -8.63959,0 -15.64337,-7.00377 -15.64337,-15.64336 z"
       fill-rule="evenodd"
       id="path13" />
    <path
       fill="#000000"
       fill-opacity="0"
       d="m 461.67453,73.25218 v 0 c 0,-5.801285 4.70288,-10.50415 10.50415,-10.50415 h 72.85001 c 2.78582,0 5.45764,1.106682 7.42755,3.076592 1.96991,1.969909 3.0766,4.641685 3.0766,7.427559 v 42.015329 c 0,5.80127 -4.70288,10.50414 -10.50415,10.50414 h -72.85001 c -5.80127,0 -10.50415,-4.70287 -10.50415,-10.50414 z"
       fill-rule="evenodd"
       id="path15" />
    <path
       stroke="#1c4587"
       stroke-width="1"
       stroke-linejoin="round"
       stroke-linecap="butt"
       d="m 461.67453,73.25218 v 0 c 0,-5.801285 4.70288,-10.50415 10.50415,-10.50415 h 72.85001 c 2.78582,0 5.45764,1.106682 7.42755,3.076592 1.96991,1.969909 3.0766,4.641685 3.0766,7.427559 v 42.015329 c 0,5.80127 -4.70288,10.50414 -10.50415,10.50414 h -72.85001 c -5.80127,0 -10.50415,-4.70287 -10.50415,-10.50414 z"
       fill-rule="evenodd"
       id="path17" />
    <path
       fill="#d9ead3"
       d="m 277.0469,45.86359 v 0 c 0,-2.04393 1.65692,-3.700859 3.70087,-3.700859 h 71.71637 c 0.98153,0 1.92285,0.389908 2.61691,1.083954 0.69403,0.69405 1.08395,1.635376 1.08395,2.616905 v 14.803001 c 0,2.04393 -1.65692,3.700863 -3.70086,3.700863 h -71.71637 c -2.04395,0 -3.70087,-1.656933 -3.70087,-3.700863 z"
       fill-rule="evenodd"
       id="path19" />
    <path
       stroke="#4285f4"
       stroke-width="2"
       stroke-linejoin="round"
       stroke-linecap="butt"
       d="m 277.0469,45.86359 v 0 c 0,-2.04393 1.65692,-3.700859 3.70087,-3.700859 h 71.71637 c 0.98153,0 1.92285,0.389908 2.61691,1.083954 0.69403,0.69405 1.08395,1.635376 1.08395,2.616905 v 14.803001 c 0,2.04393 -1.65692,3.700863 -3.70086,3.700863 h -71.71637 c -2.04395,0 -3.70087,-1.656933 -3.70087,-3.700863 z"
       fill-rule="evenodd"
       id="path21" />
    <path
       fill="#4285f4"
       d="m 290.99023,60.18509 v -1.765625 h -6.17188 l 2.9375,-3.140625 q 0.59375,-0.625 1.07813,-1.203125 0.5,-0.59375 0.875,-1.15625 0.34375,-0.578125 0.54687,-1.15625 0.21875,-0.59375 0.21875,-1.21875 0,-0.84375 -0.28125,-1.53125 -0.26562,-0.703125 -0.79687,-1.203125 -0.51563,-0.5 -1.29688,-0.78125 -0.76562,-0.296875 -1.73437,-0.296875 -1.04688,0 -1.89063,0.34375 -0.84375,0.34375 -1.42187,0.90625 -0.59375,0.578125 -0.92188,1.359375 -0.3125,0.765625 -0.3125,1.625 h 2.1875 q 0,-0.578125 0.14063,-1.015625 0.15625,-0.453125 0.45312,-0.78125 0.28125,-0.296875 0.70313,-0.453125 0.42187,-0.171875 1.01562,-0.171875 0.45313,0 0.8125,0.15625 0.375,0.15625 0.64063,0.421875 0.26562,0.28125 0.39062,0.671875 0.14063,0.375 0.14063,0.828125 0,0.359375 -0.0937,0.703125 -0.0937,0.328125 -0.3125,0.71875 -0.21875,0.390625 -0.59375,0.859375 -0.35938,0.46875 -0.89063,1.0625 l -4.32812,4.703125 V 60.18509 Z M 320.4988,47.919465 h -2.1875 v 2.40625 h -2.375 v 1.640625 h 2.375 v 4.84375 q 0,0.9375 0.25,1.625 0.25,0.671875 0.70313,1.09375 0.4375,0.4375 1.0625,0.640625 0.625,0.203125 1.375,0.203125 0.40625,0 0.8125,-0.04687 0.42187,-0.03125 0.8125,-0.109375 0.375,-0.0625 0.70312,-0.171875 0.34375,-0.109375 0.57813,-0.25 l -0.23438,-1.5 q -0.17187,0.03125 -0.40625,0.07813 -0.23437,0.04687 -0.51562,0.09375 -0.28125,0.04687 -0.57813,0.07813 -0.29687,0.01563 -0.59375,0.01563 -0.39062,0 -0.71875,-0.07813 -0.32812,-0.09375 -0.5625,-0.3125 -0.23437,-0.21875 -0.375,-0.578125 -0.125,-0.375 -0.125,-0.921875 v -4.70314 h 3.70313 v -1.640625 h -3.70313 z m 15.32059,5.5 V 51.59134 h -8.40625 v 1.828125 z m 0,3.859375 v -1.8125 h -8.40625 v 1.8125 z m 5.88306,-1 h 2.03125 q 0,-0.359375 0.0156,-0.625 0.0156,-0.265625 0.0937,-0.5 0.0625,-0.21875 0.21875,-0.4375 0.15625,-0.234375 0.42188,-0.5 0.4375,-0.390625 0.875,-0.8125 0.45312,-0.4375 0.79687,-0.921875 0.35938,-0.484375 0.57813,-1.03125 0.21875,-0.546875 0.21875,-1.203125 0,-0.84375 -0.28125,-1.5 -0.28125,-0.65625 -0.8125,-1.109375 -0.53125,-0.4375 -1.29688,-0.671875 -0.76562,-0.234375 -1.73437,-0.234375 -0.875,0 -1.625,0.21875 -0.75,0.21875 -1.3125,0.671875 -0.54688,0.4375 -0.875,1.09375 -0.32813,0.65625 -0.32813,1.515625 h 2.1875 q 0,-0.4375 0.15625,-0.75 0.17188,-0.328125 0.45313,-0.53125 0.26562,-0.203125 0.60937,-0.296875 0.35938,-0.09375 0.73438,-0.09375 0.46875,0 0.82812,0.125 0.375,0.109375 0.625,0.328125 0.23438,0.21875 0.35938,0.5625 0.125,0.328125 0.125,0.765625 0,0.390625 -0.17188,0.765625 -0.15625,0.375 -0.40625,0.71875 -0.26562,0.359375 -0.57812,0.6875 -0.3125,0.3125 -0.625,0.609375 -0.4375,0.359375 -0.70313,0.671875 -0.25,0.296875 -0.375,0.640625 -0.125,0.34375 -0.17187,0.78125 -0.0312,0.421875 -0.0312,1.0625 z m -0.29688,2.796875 q 0,0.515625 0.32813,0.875 0.34375,0.34375 0.95312,0.34375 0.60938,0 0.95313,-0.34375 0.35937,-0.359375 0.35937,-0.875 0,-0.53125 -0.35937,-0.875 -0.34375,-0.359375 -0.95313,-0.359375 -0.60937,0 -0.95312,0.359375 -0.32813,0.34375 -0.32813,0.875 z"
       fill-rule="nonzero"
       id="path23" />
    <path
       fill="#d9ead3"
       d="m 277.04462,74.11294 v 0 c 0,-2.04393 1.65692,-3.700867 3.70087,-3.700867 h 71.71637 c 0.98153,0 1.92288,0.389916 2.61691,1.083962 0.69406,0.694046 1.08395,1.635376 1.08395,2.616905 v 14.803001 c 0,2.04393 -1.65692,3.700859 -3.70086,3.700859 h -71.71637 c -2.04395,0 -3.70087,-1.656929 -3.70087,-3.700859 z"
       fill-rule="evenodd"
       id="path25" />
    <path
       stroke="#4285f4"
       stroke-width="2"
       stroke-linejoin="round"
       stroke-linecap="butt"
       d="m 277.04462,74.11294 v 0 c 0,-2.04393 1.65692,-3.700867 3.70087,-3.700867 h 71.71637 c 0.98153,0 1.92288,0.389916 2.61691,1.083962 0.69406,0.694046 1.08395,1.635376 1.08395,2.616905 v 14.803001 c 0,2.04393 -1.65692,3.700859 -3.70086,3.700859 h -71.71637 c -2.04395,0 -3.70087,-1.656929 -3.70087,-3.700859 z"
       fill-rule="evenodd"
       id="path27" />
    <path
       fill="#4285f4"
       d="m 284.75134,81.85631 1.75,0.421875 q 0.17188,-0.15625 0.35938,-0.296875 0.1875,-0.140625 0.40625,-0.25 0.21875,-0.109375 0.5,-0.171875 0.29687,-0.0625 0.6875,-0.0625 0.59375,0 1.03125,0.203125 0.45312,0.1875 0.75,0.546875 0.3125,0.359375 0.45312,0.84375 0.15625,0.46875 0.15625,1.046875 0,0.59375 -0.14062,1.09375 -0.125,0.5 -0.375,0.859375 -0.26563,0.359375 -0.67188,0.5625 -0.40625,0.203125 -0.95312,0.203125 -0.92188,0 -1.51563,-0.515625 -0.59375,-0.515625 -0.71875,-1.5 h -2.125 q 0.0625,0.921875 0.4375,1.640625 0.375,0.703125 0.96875,1.171875 0.59375,0.484375 1.35938,0.734375 0.76562,0.234375 1.59375,0.234375 1.10937,0 1.92187,-0.34375 0.8125,-0.359375 1.34375,-0.953125 0.53125,-0.609375 0.78125,-1.40625 0.26563,-0.8125 0.26563,-1.71875 0,-1.03125 -0.28125,-1.859375 -0.26563,-0.828125 -0.76563,-1.40625 -0.53125,-0.578125 -1.28125,-0.875 -0.73437,-0.3125 -1.67187,-0.3125 -0.6875,0 -1.21875,0.171875 -0.53125,0.171875 -0.85938,0.359375 l 0.34375,-3.171875 h 5.3125 v -1.9375 h -7.125 z m 37.63358,-5.6875 h -2.1875 v 2.40625 h -2.375 v 1.640625 h 2.375 v 4.84375 q 0,0.9375 0.25,1.625 0.25,0.671875 0.70312,1.09375 0.4375,0.4375 1.0625,0.640625 0.625,0.203125 1.375,0.203125 0.40625,0 0.8125,-0.04687 0.42188,-0.03125 0.8125,-0.109375 0.375,-0.0625 0.70313,-0.171875 0.34375,-0.109375 0.57812,-0.25 l -0.23437,-1.5 q -0.17188,0.03125 -0.40625,0.07813 -0.23438,0.04687 -0.51563,0.09375 -0.28125,0.04687 -0.57812,0.07813 -0.29688,0.01563 -0.59375,0.01563 -0.39063,0 -0.71875,-0.07813 -0.32813,-0.09375 -0.5625,-0.3125 -0.23438,-0.21875 -0.375,-0.578125 -0.125,-0.375 -0.125,-0.921875 V 80.2157 h 3.70312 v -1.64064 h -3.70312 z m 15.32058,5.5 v -1.828125 h -8.40625 v 1.828125 z m 0,3.859375 v -1.8125 h -8.40625 v 1.8125 z m 8.60181,2.90625 V 75.16881 h -0.14063 l -5.45312,2.03125 v 1.921875 l 3.39062,-1.25 v 10.5625 z"
       fill-rule="nonzero"
       id="path29" />
    <path
       fill="#d9ead3"
       d="m 277.0463,102.36228 v 0 c 0,-2.04393 1.65692,-3.700867 3.70087,-3.700867 h 71.71637 c 0.98153,0 1.92288,0.389916 2.61691,1.083962 0.69406,0.694045 1.08395,1.635375 1.08395,2.616905 v 14.803 c 0,2.04393 -1.65692,3.70086 -3.70086,3.70086 h -71.71637 c -2.04395,0 -3.70087,-1.65693 -3.70087,-3.70086 z"
       fill-rule="evenodd"
       id="path31" />
    <path
       stroke="#4285f4"
       stroke-width="2"
       stroke-linejoin="round"
       stroke-linecap="butt"
       d="m 277.0463,102.36228 v 0 c 0,-2.04393 1.65692,-3.700867 3.70087,-3.700867 h 71.71637 c 0.98153,0 1.92288,0.389916 2.61691,1.083962 0.69406,0.694045 1.08395,1.635375 1.08395,2.616905 v 14.803 c 0,2.04393 -1.65692,3.70086 -3.70086,3.70086 h -71.71637 c -2.04395,0 -3.70087,-1.65693 -3.70087,-3.70086 z"
       fill-rule="evenodd"
       id="path33" />
    <path
       fill="#4285f4"
       d="m 286.19052,114.8869 h -0.17188 v 1.85937 h 0.1875 q 1.71875,0 2.92188,-0.5 1.21875,-0.5 1.96875,-1.375 0.92187,-1.0625 1.28125,-2.48437 0.375,-1.42188 0.375,-2.98438 v -0.76562 q 0,-1.14063 -0.3125,-2.17188 -0.29688,-1.04687 -0.875,-1.76562 -0.5625,-0.67188 -1.35938,-1.0625 -0.79687,-0.40625 -1.82812,-0.40625 -1.01563,0 -1.8125,0.375 -0.79688,0.375 -1.34375,1 -0.54688,0.64062 -0.84375,1.48437 -0.28125,0.84375 -0.28125,1.79688 0,0.875 0.23437,1.6875 0.25,0.79687 0.73438,1.42187 0.46875,0.60938 1.17187,0.96875 0.71875,0.35938 1.6875,0.35938 0.48438,0 0.875,-0.0781 0.39063,-0.0937 0.71875,-0.25 0.3125,-0.15625 0.5625,-0.34375 0.26563,-0.20312 0.46875,-0.42187 v 0.0469 q -0.0781,0.76563 -0.32812,1.4375 -0.25,0.67188 -0.79688,1.1875 -0.51562,0.46875 -1.3125,0.73438 -0.78125,0.25 -1.92187,0.25 z m 2.20312,-4.28125 q -0.54687,0 -0.95312,-0.23438 -0.39063,-0.23437 -0.65625,-0.60937 -0.26563,-0.39063 -0.39063,-0.89063 -0.125,-0.5 -0.125,-1.04687 0,-0.5625 0.14063,-1.07813 0.14062,-0.51562 0.40625,-0.90625 0.26562,-0.375 0.65625,-0.59375 0.40625,-0.23437 0.90625,-0.23437 0.46875,0 0.85937,0.21875 0.40625,0.21875 0.70313,0.625 0.29687,0.40625 0.46875,1.01562 0.17187,0.60938 0.17187,1.40625 v 0.75 q -0.125,0.34375 -0.34375,0.64063 -0.21875,0.28125 -0.5,0.48437 -0.28125,0.21875 -0.625,0.34375 -0.34375,0.10938 -0.71875,0.10938 z m 33.99295,-6.1875 h -2.1875 v 2.40625 h -2.375 v 1.64062 h 2.375 v 4.84375 q 0,0.9375 0.25,1.625 0.25,0.67188 0.70313,1.09375 0.4375,0.4375 1.0625,0.64063 0.625,0.20312 1.375,0.20312 0.40625,0 0.8125,-0.0469 0.42187,-0.0312 0.8125,-0.10938 0.375,-0.0625 0.70312,-0.17187 0.34375,-0.10938 0.57813,-0.25 l -0.23438,-1.5 q -0.17187,0.0312 -0.40625,0.0781 -0.23437,0.0469 -0.51562,0.0937 -0.28125,0.0469 -0.57813,0.0781 -0.29687,0.0156 -0.59375,0.0156 -0.39062,0 -0.71875,-0.0781 -0.32812,-0.0937 -0.5625,-0.3125 -0.23437,-0.21875 -0.375,-0.57813 -0.125,-0.375 -0.125,-0.92187 v -4.70313 h 3.70313 v -1.64062 h -3.70313 z m 15.32059,5.5 v -1.82813 h -8.40625 v 1.82813 z m 0,3.85937 v -1.8125 h -8.40625 v 1.8125 z m 5.88306,-1 h 2.03125 q 0,-0.35937 0.0156,-0.625 0.0156,-0.26562 0.0937,-0.5 0.0625,-0.21875 0.21875,-0.4375 0.15625,-0.23437 0.42188,-0.5 0.4375,-0.39062 0.875,-0.8125 0.45312,-0.4375 0.79687,-0.92187 0.35938,-0.48438 0.57813,-1.03125 0.21875,-0.54688 0.21875,-1.20313 0,-0.84375 -0.28125,-1.5 -0.28125,-0.65625 -0.8125,-1.10937 -0.53125,-0.4375 -1.29688,-0.67188 -0.76562,-0.23437 -1.73437,-0.23437 -0.875,0 -1.625,0.21875 -0.75,0.21875 -1.3125,0.67187 -0.54688,0.4375 -0.875,1.09375 -0.32813,0.65625 -0.32813,1.51563 h 2.1875 q 0,-0.4375 0.15625,-0.75 0.17188,-0.32813 0.45313,-0.53125 0.26562,-0.20313 0.60937,-0.29688 0.35938,-0.0937 0.73438,-0.0937 0.46875,0 0.82812,0.125 0.375,0.10938 0.625,0.32813 0.23438,0.21875 0.35938,0.5625 0.125,0.32812 0.125,0.76562 0,0.39063 -0.17188,0.76563 -0.15625,0.375 -0.40625,0.71875 -0.26562,0.35937 -0.57812,0.6875 -0.3125,0.3125 -0.625,0.60937 -0.4375,0.35938 -0.70313,0.67188 -0.25,0.29687 -0.375,0.64062 -0.125,0.34375 -0.17187,0.78125 -0.0312,0.42188 -0.0312,1.0625 z m -0.29688,2.79688 q 0,0.51562 0.32813,0.875 0.34375,0.34375 0.95312,0.34375 0.60938,0 0.95313,-0.34375 0.35937,-0.35938 0.35937,-0.875 0,-0.53125 -0.35937,-0.875 -0.34375,-0.35938 -0.95313,-0.35938 -0.60937,0 -0.95312,0.35938 -0.32813,0.34375 -0.32813,0.875 z"
       fill-rule="nonzero"
       id="path35" />
    <path
       fill="#d9ead3"
       d="m 277.0483,129.35178 v 0 c 0,-2.04392 1.65695,-3.70086 3.70087,-3.70086 h 71.7164 c 0.98153,0 1.92285,0.38992 2.61691,1.08396 0.69403,0.69405 1.08395,1.63538 1.08395,2.6169 v 14.80301 c 0,2.04393 -1.65695,3.70085 -3.70086,3.70085 h -71.7164 c -2.04392,0 -3.70087,-1.65692 -3.70087,-3.70085 z"
       fill-rule="evenodd"
       id="path37" />
    <path
       stroke="#4285f4"
       stroke-width="2"
       stroke-linejoin="round"
       stroke-linecap="butt"
       d="m 277.0483,129.35178 v 0 c 0,-2.04392 1.65695,-3.70086 3.70087,-3.70086 h 71.7164 c 0.98153,0 1.92285,0.38992 2.61691,1.08396 0.69403,0.69405 1.08395,1.63538 1.08395,2.6169 v 14.80301 c 0,2.04393 -1.65695,3.70085 -3.70086,3.70085 h -71.7164 c -2.04392,0 -3.70087,-1.65692 -3.70087,-3.70085 z"
       fill-rule="evenodd"
       id="path39" />
    <path
       fill="#4285f4"
       d="m 290.33316,143.67328 v -13.26563 h -0.14062 l -5.45313,2.03125 v 1.92188 l 3.39063,-1.25 v 10.5625 z m 11.19559,0 v -13.26563 h -0.14063 l -5.45312,2.03125 v 1.92188 l 3.39062,-1.25 v 10.5625 z m 20.85989,-12.26563 h -2.1875 v 2.40625 h -2.375 v 1.64063 h 2.375 v 4.84375 q 0,0.9375 0.25,1.625 0.25,0.67187 0.70313,1.09375 0.4375,0.4375 1.0625,0.64062 0.625,0.20313 1.375,0.20313 0.40625,0 0.8125,-0.0469 0.42187,-0.0312 0.8125,-0.10937 0.375,-0.0625 0.70312,-0.17188 0.34375,-0.10937 0.57813,-0.25 l -0.23438,-1.5 q -0.17187,0.0312 -0.40625,0.0781 -0.23437,0.0469 -0.51562,0.0937 -0.28125,0.0469 -0.57813,0.0781 -0.29687,0.0156 -0.59375,0.0156 -0.39062,0 -0.71875,-0.0781 -0.32812,-0.0937 -0.5625,-0.3125 -0.23437,-0.21875 -0.375,-0.57812 -0.125,-0.375 -0.125,-0.92188 v -4.70312 h 3.70313 v -1.64063 h -3.70313 z m 15.32056,5.5 v -1.82812 h -8.40625 v 1.82812 z m 0,3.85938 v -1.8125 h -8.40625 v 1.8125 z m 8.60183,2.90625 v -13.26563 h -0.14062 l -5.45313,2.03125 v 1.92188 l 3.39063,-1.25 v 10.5625 z"
       fill-rule="nonzero"
       id="path41" />
    <path
       fill="#d9ead3"
       d="m 469.04462,74.11294 v 0 c 0,-2.04393 1.65692,-3.700867 3.70087,-3.700867 h 71.71637 c 0.98156,0 1.92285,0.389916 2.61694,1.083962 0.69403,0.694046 1.08392,1.635376 1.08392,2.616905 v 14.803001 c 0,2.04393 -1.65692,3.700859 -3.70086,3.700859 h -71.71637 c -2.04395,0 -3.70087,-1.656929 -3.70087,-3.700859 z"
       fill-rule="evenodd"
       id="path43" />
    <path
       stroke="#4285f4"
       stroke-width="2"
       stroke-linejoin="round"
       stroke-linecap="butt"
       d="m 469.04462,74.11294 v 0 c 0,-2.04393 1.65692,-3.700867 3.70087,-3.700867 h 71.71637 c 0.98156,0 1.92285,0.389916 2.61694,1.083962 0.69403,0.694046 1.08392,1.635376 1.08392,2.616905 v 14.803001 c 0,2.04393 -1.65692,3.700859 -3.70086,3.700859 h -71.71637 c -2.04395,0 -3.70087,-1.656929 -3.70087,-3.700859 z"
       fill-rule="evenodd"
       id="path45" />
    <path
       fill="#4285f4"
       d="m 476.75134,81.85631 1.75,0.421875 q 0.17188,-0.15625 0.35938,-0.296875 0.1875,-0.140625 0.40625,-0.25 0.21875,-0.109375 0.5,-0.171875 0.29687,-0.0625 0.6875,-0.0625 0.59375,0 1.03125,0.203125 0.45312,0.1875 0.75,0.546875 0.3125,0.359375 0.45312,0.84375 0.15625,0.46875 0.15625,1.046875 0,0.59375 -0.14062,1.09375 -0.125,0.5 -0.375,0.859375 -0.26563,0.359375 -0.67188,0.5625 -0.40625,0.203125 -0.95312,0.203125 -0.92188,0 -1.51563,-0.515625 -0.59375,-0.515625 -0.71875,-1.5 h -2.125 q 0.0625,0.921875 0.4375,1.640625 0.375,0.703125 0.96875,1.171875 0.59375,0.484375 1.35938,0.734375 0.76562,0.234375 1.59375,0.234375 1.10937,0 1.92187,-0.34375 0.8125,-0.359375 1.34375,-0.953125 0.53125,-0.609375 0.78125,-1.40625 0.26563,-0.8125 0.26563,-1.71875 0,-1.03125 -0.28125,-1.859375 -0.26563,-0.828125 -0.76563,-1.40625 -0.53125,-0.578125 -1.28125,-0.875 -0.73437,-0.3125 -1.67187,-0.3125 -0.6875,0 -1.21875,0.171875 -0.53125,0.171875 -0.85938,0.359375 l 0.34375,-3.171875 h 5.3125 v -1.9375 h -7.125 z m 37.63361,-5.6875 h -2.1875 v 2.40625 h -2.37503 v 1.640625 h 2.37503 v 4.84375 q 0,0.9375 0.25,1.625 0.25,0.671875 0.70312,1.09375 0.4375,0.4375 1.0625,0.640625 0.625,0.203125 1.375,0.203125 0.40625,0 0.8125,-0.04687 0.42188,-0.03125 0.8125,-0.109375 0.375,-0.0625 0.70313,-0.171875 0.34375,-0.109375 0.57812,-0.25 l -0.23437,-1.5 q -0.17188,0.03125 -0.40625,0.07813 -0.23438,0.04687 -0.51563,0.09375 -0.28125,0.04687 -0.57812,0.07813 -0.29688,0.01563 -0.59375,0.01563 -0.39063,0 -0.71875,-0.07813 -0.32813,-0.09375 -0.5625,-0.3125 -0.23438,-0.21875 -0.375,-0.578125 -0.125,-0.375 -0.125,-0.921875 V 80.2157 h 3.70312 v -1.64064 h -3.70312 z m 15.32055,5.5 v -1.828125 h -8.40625 v 1.828125 z m 0,3.859375 v -1.8125 h -8.40625 v 1.8125 z m 8.60181,2.90625 V 75.16881 h -0.14062 l -5.45313,2.03125 v 1.921875 l 3.39063,-1.25 v 10.5625 z"
       fill-rule="nonzero"
       id="path47" />
    <path
       fill="#d9ead3"
       d="m 469.0457,101.88459 v 0 c 0,-2.04393 1.65695,-3.700867 3.70087,-3.700867 h 71.7164 c 0.9815,0 1.92285,0.389916 2.61688,1.083962 0.69409,0.694046 1.08398,1.635375 1.08398,2.616905 v 14.803 c 0,2.04393 -1.65692,3.70086 -3.70086,3.70086 h -71.7164 c -2.04392,0 -3.70087,-1.65693 -3.70087,-3.70086 z"
       fill-rule="evenodd"
       id="path49" />
    <path
       stroke="#4285f4"
       stroke-width="2"
       stroke-linejoin="round"
       stroke-linecap="butt"
       d="m 469.0457,101.88459 v 0 c 0,-2.04393 1.65695,-3.700867 3.70087,-3.700867 h 71.7164 c 0.9815,0 1.92285,0.389916 2.61688,1.083962 0.69409,0.694046 1.08398,1.635375 1.08398,2.616905 v 14.803 c 0,2.04393 -1.65692,3.70086 -3.70086,3.70086 h -71.7164 c -2.04392,0 -3.70087,-1.65693 -3.70087,-3.70086 z"
       fill-rule="evenodd"
       id="path51" />
    <path
       fill="#4285f4"
       d="m 482.33054,116.20609 v -13.26563 h -0.14063 l -5.45312,2.03125 v 1.92188 l 3.39062,-1.25 v 10.5625 z m 11.19559,0 v -13.26563 h -0.14063 l -5.45312,2.03125 v 1.92188 l 3.39062,-1.25 v 10.5625 z m 20.85986,-12.26563 h -2.1875 v 2.40625 h -2.37497 v 1.64063 h 2.37497 v 4.84375 q 0,0.9375 0.25,1.625 0.25,0.67187 0.70312,1.09375 0.4375,0.4375 1.0625,0.64062 0.625,0.20313 1.375,0.20313 0.40625,0 0.8125,-0.0469 0.42188,-0.0312 0.8125,-0.10937 0.375,-0.0625 0.70313,-0.17188 0.34375,-0.10937 0.57812,-0.25 l -0.23437,-1.5 q -0.17188,0.0312 -0.40625,0.0781 -0.23438,0.0469 -0.51563,0.0937 -0.28125,0.0469 -0.57812,0.0781 -0.29688,0.0156 -0.59375,0.0156 -0.39063,0 -0.71875,-0.0781 -0.32813,-0.0937 -0.5625,-0.3125 -0.23438,-0.21875 -0.375,-0.57812 -0.125,-0.375 -0.125,-0.92188 v -4.70312 h 3.70312 v -1.64063 h -3.70312 z m 15.32062,5.5 v -1.82812 h -8.40625 v 1.82812 z m 0,3.85938 v -1.8125 h -8.40625 v 1.8125 z m 8.6018,2.90625 v -13.26563 h -0.14062 l -5.45313,2.03125 v 1.92188 l 3.39063,-1.25 v 10.5625 z"
       fill-rule="nonzero"
       id="path53" />
    <path
       fill="#000000"
       fill-opacity="0"
       d="m 55.969803,89.71916 c 11.269516,0 16.905182,11.75591 22.53904,23.51181 5.633858,11.7559 11.265915,23.51181 22.531827,23.51181"
       fill-rule="evenodd"
       id="path55" />
    <path
       stroke="#93c47d"
       stroke-width="2"
       stroke-linejoin="round"
       stroke-linecap="butt"
       d="m 55.9698,89.71916 c 11.26952,0 16.905186,11.75591 22.539043,23.51181 2.816933,5.87795 5.633408,11.7559 9.153885,16.16437 1.760246,2.20424 3.696495,4.04109 5.896797,5.32689 0.13752,0.0804 0.276062,0.15858 0.415672,0.2346 l 0.395531,0.20751"
       fill-rule="evenodd"
       id="path57" />
    <path
       fill="#93c47d"
       stroke="#93c47d"
       stroke-width="2"
       stroke-linecap="butt"
       d="m 94.37073,135.16434 -2.70668,1.67076 6.531402,-0.76564 -5.495483,-3.6118 z"
       fill-rule="evenodd"
       id="path59" />
    <path
       fill="#000000"
       fill-opacity="0"
       d="m 180.16501,53.26509 h 33.5748"
       fill-rule="evenodd"
       id="path61" />
    <path
       stroke="#1c4587"
       stroke-width="2"
       stroke-linejoin="round"
       stroke-linecap="butt"
       d="m 180.16501,53.26509 h 26.72063"
       fill-rule="evenodd"
       id="path63" />
    <path
       fill="#1c4587"
       stroke="#1c4587"
       stroke-width="2"
       stroke-linecap="butt"
       d="m 206.88564,53.26509 -2.24916,2.249168 6.17953,-2.249168 -6.17953,-2.249165 z"
       fill-rule="evenodd"
       id="path65" />
    <path
       fill="#000000"
       fill-opacity="0"
       d="m 180.1644,109.76378 c 8.7944,0 13.19116,0.0157 17.58879,0.0315 4.39764,0.0157 8.79616,0.0315 17.59232,0.0315"
       fill-rule="evenodd"
       id="path67" />
    <path
       stroke="#1c4587"
       stroke-width="2"
       stroke-linejoin="round"
       stroke-linecap="butt"
       d="m 180.16441,109.76378 c 8.79439,0 13.19115,0.0157 17.58879,0.0315 2.19881,0.008 4.39786,0.0157 7.14671,0.0217 l 3.59143,0.006"
       fill-rule="evenodd"
       id="path69" />
    <path
       fill="#1c4587"
       stroke="#1c4587"
       stroke-width="2"
       stroke-linecap="butt"
       d="m 208.49135,109.8225 -2.25058,2.24776 6.18094,-2.24531 -6.17813,-2.25303 z"
       fill-rule="evenodd"
       id="path71" />
    <path
       fill="#000000"
       fill-opacity="0"
       d="m 356.16272,81.514435 c 12.94205,0 19.41165,0.01575 25.88406,0.03149 6.47245,0.01575 12.94776,0.0315 25.89548,0.0315"
       fill-rule="evenodd"
       id="path73" />
    <path
       stroke="#1c4587"
       stroke-width="2"
       stroke-linejoin="round"
       stroke-linecap="butt"
       d="m 356.16272,81.514435 c 12.94205,0 19.41162,0.01575 25.88406,0.03149 3.23624,0.0079 6.47315,0.01575 10.51954,0.02166 2.02316,0.003 4.24868,0.0054 6.77764,0.0071 l 1.74414,5.5e-4"
       fill-rule="evenodd"
       id="path75" />
    <path
       fill="#1c4587"
       stroke="#1c4587"
       stroke-width="2"
       stroke-linecap="butt"
       d="m 401.08807,81.57527 -2.24988,2.248459 6.18027,-2.247223 -6.17883,-2.251114 z"
       fill-rule="evenodd"
       id="path77" />
    <path
       fill="#000000"
       fill-opacity="0"
       d="m 356.1644,109.76378 c 11.1384,0 16.70593,0.0157 22.27679,0.0315 5.57087,0.0157 11.14505,0.0315 22.29013,0.0315"
       fill-rule="evenodd"
       id="path79" />
    <path
       stroke="#1c4587"
       stroke-width="2"
       stroke-linejoin="round"
       stroke-linecap="butt"
       d="m 356.1644,109.76378 c 11.1384,0 16.70593,0.0157 22.27679,0.0315 2.78544,0.008 5.57169,0.0157 9.05475,0.0217 1.74152,0.003 3.65723,0.005 5.83411,0.007 l 0.54712,2e-4"
       fill-rule="evenodd"
       id="path81" />
    <path
       fill="#1c4587"
       stroke="#1c4587"
       stroke-width="2"
       stroke-linecap="butt"
       d="m 393.87717,109.82426 -2.25,2.24835 6.18036,-2.24691 -6.17871,-2.25143 z"
       fill-rule="evenodd"
       id="path83" />
    <path
       fill="#000000"
       fill-opacity="0"
       d="m 236.9803,53.26509 c 10.01674,0 15.02562,0.01575 20.03349,0.0315 5.00788,0.01575 10.01474,0.03149 20.02948,0.03149"
       fill-rule="evenodd"
       id="path85" />
    <path
       stroke="#93c47d"
       stroke-width="2"
       stroke-linejoin="round"
       stroke-linecap="butt"
       d="m 236.9803,53.26509 c 10.01674,0 15.02562,0.01575 20.03349,0.0315 2.50394,0.0079 5.00763,0.01575 8.13718,0.02165 l 5.03815,0.0069"
       fill-rule="evenodd"
       id="path87" />
    <path
       fill="#93c47d"
       stroke="#93c47d"
       stroke-width="2"
       stroke-linecap="butt"
       d="m 270.18912,53.3251 -2.25015,2.248188 6.18051,-2.246475 -6.17856,-2.251858 z"
       fill-rule="evenodd"
       id="path89" />
    <path
       fill="#000000"
       fill-opacity="0"
       d="m 236.9803,53.26509 c 10.01694,0 15.02602,20.874016 20.03389,41.74803 5.00787,20.87402 10.01456,41.74803 20.02908,41.74803"
       fill-rule="evenodd"
       id="path91" />
    <path
       stroke="#93c47d"
       stroke-width="2"
       stroke-linejoin="round"
       stroke-linecap="butt"
       d="m 236.9803,53.26509 c 10.01695,0 15.02602,20.874016 20.03389,41.74803 2.50394,10.43701 5.0076,20.87402 8.13705,28.70178 1.56473,3.91387 3.28592,7.17543 5.24186,9.45853 0.12225,0.1427 0.24539,0.28157 0.3695,0.41653 l 0.13248,0.14147"
       fill-rule="evenodd"
       id="path93" />
    <path
       fill="#93c47d"
       stroke="#93c47d"
       stroke-width="2"
       stroke-linecap="butt"
       d="m 270.89508,133.73143 -3.01169,1.02332 6.53723,0.714 -4.54886,-4.74901 z"
       fill-rule="evenodd"
       id="path95" />
    <path
       fill="#000000"
       fill-opacity="0"
       d="m 236.9803,53.26509 c 10.01614,0 15.02441,7.062992 20.0323,14.125984 5.00788,7.062996 10.01532,14.125984 20.03067,14.125984"
       fill-rule="evenodd"
       id="path97" />
    <path
       stroke="#93c47d"
       stroke-width="2"
       stroke-linejoin="round"
       stroke-linecap="butt"
       d="m 236.9803,53.26509 c 10.01613,0 15.02441,7.062992 20.0323,14.125984 2.50394,3.531494 5.00775,7.062996 8.13755,9.711617 0.78244,0.662155 1.604,1.269126 2.47445,1.807128 0.43524,0.269005 0.88269,0.52076 1.3436,0.753548 0.23047,0.116394 0.46426,0.228043 0.7016,0.334747 0.11868,0.05334 0.23822,0.105454 0.35867,0.156296 l 0.27561,0.112579"
       fill-rule="evenodd"
       id="path99" />
    <path
       fill="#93c47d"
       stroke="#93c47d"
       stroke-width="2"
       stroke-linecap="butt"
       d="m 270.30408,80.26699 -2.62164,1.801239 6.48608,-1.084412 -5.66568,-3.338478 z"
       fill-rule="evenodd"
       id="path101" />
    <path
       fill="#000000"
       fill-opacity="0"
       d="m 238.58629,109.79788 c 9.61494,0 14.42281,0.0157 19.22987,0.0315 4.8071,0.0157 9.61344,0.0315 19.22684,0.0315"
       fill-rule="evenodd"
       id="path103" />
    <path
       stroke="#93c47d"
       stroke-width="2"
       stroke-linejoin="round"
       stroke-linecap="butt"
       d="m 238.58629,109.79788 c 9.61494,0 14.42279,0.0157 19.22987,0.0315 2.40357,0.008 4.80692,0.0157 7.81107,0.0217 l 4.56158,0.006"
       fill-rule="evenodd"
       id="path105" />
    <path
       fill="#93c47d"
       stroke="#93c47d"
       stroke-width="2"
       stroke-linecap="butt"
       d="m 270.1888,109.8575 -2.25027,2.24806 6.18063,-2.24612 -6.17844,-2.25221 z"
       fill-rule="evenodd"
       id="path107" />
    <path
       fill="#000000"
       fill-opacity="0"
       d="m 431.1747,81.51575 c 9.46741,0 14.20251,0.01575 18.93481,0.03149 4.73227,0.01575 9.46173,0.0315 18.92347,0.0315"
       fill-rule="evenodd"
       id="path109" />
    <path
       stroke="#93c47d"
       stroke-width="2"
       stroke-linejoin="round"
       stroke-linecap="butt"
       d="m 431.1747,81.51575 c 9.46738,0 14.20254,0.01575 18.93481,0.03149 2.36615,0.0079 4.7316,0.01575 7.68818,0.02166 l 4.3811,0.0063"
       fill-rule="evenodd"
       id="path111" />
    <path
       fill="#93c47d"
       stroke="#93c47d"
       stroke-width="2"
       stroke-linecap="butt"
       d="m 462.1788,81.57521 -2.25034,2.248009 6.1807,-2.245987 -6.17838,-2.25235 z"
       fill-rule="evenodd"
       id="path113" />
    <path
       fill="#000000"
       fill-opacity="0"
       d="m 431.1747,81.51575 c 9.46777,0 14.20328,6.944885 18.93558,13.889763 4.73227,6.944887 9.46133,13.889767 18.9227,13.889767"
       fill-rule="evenodd"
       id="path115" />
    <path
       stroke="#93c47d"
       stroke-width="2"
       stroke-linejoin="round"
       stroke-linecap="butt"
       d="m 431.1747,81.51575 c 9.4678,0 14.20328,6.944885 18.93558,13.889763 2.36612,3.472443 4.73147,6.944887 7.68792,9.549217 0.73914,0.65108 1.5152,1.2479 2.33744,1.77691 0.41113,0.26451 0.83383,0.51205 1.26919,0.74095 0.21768,0.11445 0.43857,0.22424 0.66278,0.32914 l 0.25144,0.11406"
       fill-rule="evenodd"
       id="path117" />
    <path
       fill="#93c47d"
       stroke="#93c47d"
       stroke-width="2"
       stroke-linecap="butt"
       d="m 462.31906,107.91579 -2.65582,1.75047 6.50577,-0.95943 -5.60044,-3.44686 z"
       fill-rule="evenodd"
       id="path119" />
    <path
       fill="#000000"
       fill-opacity="0"
       d="m 438.3873,109.76509 c 7.66464,0 11.49857,-0.11811 15.32928,-0.23622 3.83072,-0.11811 7.65821,-0.23622 15.31641,-0.23622"
       fill-rule="evenodd"
       id="path121" />
    <path
       stroke="#93c47d"
       stroke-width="2"
       stroke-linejoin="round"
       stroke-linecap="butt"
       d="m 438.3873,109.76509 c 7.66467,0 11.49857,-0.11811 15.32928,-0.23622 1.91535,-0.059 3.82993,-0.11811 6.22291,-0.1624 0.59823,-0.0111 1.22641,-0.0212 1.89193,-0.0302 l 0.34751,-0.004"
       fill-rule="evenodd"
       id="path123" />
    <path
       fill="#93c47d"
       stroke="#93c47d"
       stroke-width="2"
       stroke-linecap="butt"
       d="m 462.17892,109.33243 -2.23608,2.26218 6.16638,-2.28499 -6.19248,-2.21327 z"
       fill-rule="evenodd"
       id="path125" />
    <path
       fill="#000000"
       fill-opacity="0"
       d="m 55.969803,89.71916 c 11.269295,0 16.904732,-9.110237 22.53859,-18.220474 5.633858,-9.110237 11.266136,-18.220474 22.532277,-18.220474"
       fill-rule="evenodd"
       id="path127" />
    <path
       stroke="#93c47d"
       stroke-width="2"
       stroke-linejoin="round"
       stroke-linecap="butt"
       d="m 55.9698,89.71916 c 11.269299,0 16.904736,-9.110237 22.538593,-18.220474 2.816925,-4.555115 5.633461,-9.110237 9.15403,-12.526573 1.760292,-1.708172 3.696587,-3.131645 5.896942,-4.128078 0.13752,-0.06227 0.27607,-0.122887 0.41568,-0.181794 l 0.32663,-0.132797"
       fill-rule="evenodd"
       id="path129" />
    <path
       fill="#93c47d"
       stroke="#93c47d"
       stroke-width="2"
       stroke-linecap="butt"
       d="m 94.301674,54.529446 -1.800789,2.62196 5.665116,-3.339447 -6.48629,-1.083298 z"
       fill-rule="evenodd"
       id="path131" />
    <path
       fill="#000000"
       fill-opacity="0"
       d="m 55.969803,89.71916 c 11.269066,0 16.904282,5.007874 22.53814,10.015747 5.633858,5.007873 11.266365,10.015743 22.532727,10.015743"
       fill-rule="evenodd"
       id="path133" />
    <path
       stroke="#93c47d"
       stroke-width="2"
       stroke-linejoin="round"
       stroke-linecap="butt"
       d="m 55.9698,89.71916 c 11.26907,0 16.904285,5.007874 22.538143,10.015747 2.816925,2.503933 5.633522,5.007873 9.154175,6.885823 1.76033,0.93898 3.69667,1.72146 5.897079,2.2692 0.137528,0.0342 0.276085,0.0675 0.415696,0.0999 l 0.248001,0.0554"
       fill-rule="evenodd"
       id="path135" />
    <path
       fill="#93c47d"
       stroke="#93c47d"
       stroke-width="2"
       stroke-linecap="butt"
       d="m 94.22289,109.04528 -2.468689,2.00576 6.378189,-1.60128 -5.91526,-2.87317 z"
       fill-rule="evenodd"
       id="path137" />
    <path
       fill="#000000"
       fill-opacity="0"
       d="m 55.969803,89.71916 c 11.268616,0 16.903374,-2.047249 22.53724,-4.09449 5.633858,-2.047241 11.266815,-4.09449 22.533627,-4.09449"
       fill-rule="evenodd"
       id="path139" />
    <path
       stroke="#93c47d"
       stroke-width="2"
       stroke-linejoin="round"
       stroke-linecap="butt"
       d="m 55.9698,89.71916 c 11.26862,0 16.903378,-2.047249 22.537243,-4.09449 2.816925,-1.023621 5.633629,-2.047241 9.154457,-2.814964 1.760406,-0.383858 3.696854,-0.703736 5.897369,-0.927651 l 0.633843,-0.06008"
       fill-rule="evenodd"
       id="path141" />
    <path
       fill="#93c47d"
       stroke="#93c47d"
       stroke-width="2"
       stroke-linecap="butt"
       d="m 94.19271,81.821976 -2.151375,2.342873 6.078186,-2.510193 -6.269684,-1.984062 z"
       fill-rule="evenodd"
       id="path143" />
    <path
       fill="#d9ead3"
       d="m 101.0469,45.86359 v 0 c 0,-2.04393 1.65694,-3.700859 3.70087,-3.700859 h 71.71638 c 0.98153,0 1.92286,0.389908 2.61691,1.083954 0.69405,0.69405 1.08395,1.635376 1.08395,2.616905 v 14.803001 c 0,2.04393 -1.65693,3.700863 -3.70086,3.700863 h -71.71638 c -2.04393,0 -3.70087,-1.656933 -3.70087,-3.700863 z"
       fill-rule="evenodd"
       id="path145" />
    <path
       stroke="#4285f4"
       stroke-width="2"
       stroke-linejoin="round"
       stroke-linecap="butt"
       d="m 101.0469,45.86359 v 0 c 0,-2.04393 1.65694,-3.700859 3.70087,-3.700859 h 71.71638 c 0.98153,0 1.92286,0.389908 2.61691,1.083954 0.69405,0.69405 1.08395,1.635376 1.08395,2.616905 v 14.803001 c 0,2.04393 -1.65693,3.700863 -3.70086,3.700863 h -71.71638 c -2.04393,0 -3.70087,-1.656933 -3.70087,-3.700863 z"
       fill-rule="evenodd"
       id="path147" />
    <path
       fill="#4285f4"
       d="m 114.99022,60.18509 v -1.765625 h -6.17188 l 2.9375,-3.140625 q 0.59375,-0.625 1.07813,-1.203125 0.5,-0.59375 0.875,-1.15625 0.34375,-0.578125 0.54687,-1.15625 0.21875,-0.59375 0.21875,-1.21875 0,-0.84375 -0.28125,-1.53125 -0.26562,-0.703125 -0.79687,-1.203125 -0.51563,-0.5 -1.29688,-0.78125 -0.76562,-0.296875 -1.73437,-0.296875 -1.04688,0 -1.89063,0.34375 -0.84375,0.34375 -1.42187,0.90625 -0.59375,0.578125 -0.92188,1.359375 -0.3125,0.765625 -0.3125,1.625 h 2.1875 q 0,-0.578125 0.14063,-1.015625 0.15625,-0.453125 0.45312,-0.78125 0.28125,-0.296875 0.70313,-0.453125 0.42187,-0.171875 1.01562,-0.171875 0.45313,0 0.8125,0.15625 0.375,0.15625 0.64063,0.421875 0.26562,0.28125 0.39062,0.671875 0.14063,0.375 0.14063,0.828125 0,0.359375 -0.0937,0.703125 -0.0937,0.328125 -0.3125,0.71875 -0.21875,0.390625 -0.59375,0.859375 -0.35938,0.46875 -0.89063,1.0625 l -4.32812,4.703125 v 1.515625 z m 29.50859,-12.265625 h -2.1875 v 2.40625 h -2.375 v 1.640625 h 2.375 v 4.84375 q 0,0.9375 0.25,1.625 0.25,0.671875 0.70312,1.09375 0.4375,0.4375 1.0625,0.640625 0.625,0.203125 1.375,0.203125 0.40625,0 0.8125,-0.04687 0.42188,-0.03125 0.8125,-0.109375 0.375,-0.0625 0.70313,-0.171875 0.34375,-0.109375 0.57812,-0.25 l -0.23437,-1.5 q -0.17188,0.03125 -0.40625,0.07813 -0.23438,0.04687 -0.51563,0.09375 -0.28125,0.04687 -0.57812,0.07813 -0.29688,0.01563 -0.59375,0.01563 -0.39063,0 -0.71875,-0.07813 -0.32813,-0.09375 -0.5625,-0.3125 -0.23438,-0.21875 -0.375,-0.578125 -0.125,-0.375 -0.125,-0.921875 v -4.70314 h 3.70312 v -1.640625 h -3.70312 z m 15.32057,5.5 V 51.59134 h -8.40625 v 1.828125 z m 0,3.859375 v -1.8125 h -8.40625 v 1.8125 z m 5.88307,-1 h 2.03125 q 0,-0.359375 0.0156,-0.625 0.0156,-0.265625 0.0937,-0.5 0.0625,-0.21875 0.21875,-0.4375 0.15625,-0.234375 0.42187,-0.5 0.4375,-0.390625 0.875,-0.8125 0.45313,-0.4375 0.79688,-0.921875 0.35937,-0.484375 0.57812,-1.03125 0.21875,-0.546875 0.21875,-1.203125 0,-0.84375 -0.28125,-1.5 -0.28125,-0.65625 -0.8125,-1.109375 -0.53125,-0.4375 -1.29687,-0.671875 -0.76563,-0.234375 -1.73438,-0.234375 -0.875,0 -1.625,0.21875 -0.75,0.21875 -1.3125,0.671875 -0.54687,0.4375 -0.875,1.09375 -0.32812,0.65625 -0.32812,1.515625 h 2.1875 q 0,-0.4375 0.15625,-0.75 0.17187,-0.328125 0.45312,-0.53125 0.26563,-0.203125 0.60938,-0.296875 0.35937,-0.09375 0.73437,-0.09375 0.46875,0 0.82813,0.125 0.375,0.109375 0.625,0.328125 0.23437,0.21875 0.35937,0.5625 0.125,0.328125 0.125,0.765625 0,0.390625 -0.17187,0.765625 -0.15625,0.375 -0.40625,0.71875 -0.26563,0.359375 -0.57813,0.6875 -0.3125,0.3125 -0.625,0.609375 -0.4375,0.359375 -0.70312,0.671875 -0.25,0.296875 -0.375,0.640625 -0.125,0.34375 -0.17188,0.78125 -0.0312,0.421875 -0.0312,1.0625 z m -0.29687,2.796875 q 0,0.515625 0.32812,0.875 0.34375,0.34375 0.95313,0.34375 0.60937,0 0.95312,-0.34375 0.35938,-0.359375 0.35938,-0.875 0,-0.53125 -0.35938,-0.875 -0.34375,-0.359375 -0.95312,-0.359375 -0.60938,0 -0.95313,0.359375 -0.32812,0.34375 -0.32812,0.875 z"
       fill-rule="nonzero"
       id="path149" />
    <path
       fill="#d9ead3"
       d="m 101.04462,74.11294 v 0 c 0,-2.04393 1.65694,-3.700867 3.70087,-3.700867 h 71.71638 c 0.98154,0 1.92285,0.389916 2.6169,1.083962 0.69405,0.694046 1.08397,1.635376 1.08397,2.616905 v 14.803001 c 0,2.04393 -1.65694,3.700859 -3.70087,3.700859 h -71.71638 c -2.04393,0 -3.70087,-1.656929 -3.70087,-3.700859 z"
       fill-rule="evenodd"
       id="path151" />
    <path
       stroke="#4285f4"
       stroke-width="2"
       stroke-linejoin="round"
       stroke-linecap="butt"
       d="m 101.04462,74.11294 v 0 c 0,-2.04393 1.65694,-3.700867 3.70087,-3.700867 h 71.71638 c 0.98154,0 1.92285,0.389916 2.6169,1.083962 0.69405,0.694046 1.08397,1.635376 1.08397,2.616905 v 14.803001 c 0,2.04393 -1.65694,3.700859 -3.70087,3.700859 h -71.71638 c -2.04393,0 -3.70087,-1.656929 -3.70087,-3.700859 z"
       fill-rule="evenodd"
       id="path153" />
    <path
       fill="#4285f4"
       d="m 108.75133,81.85631 1.75,0.421875 q 0.17188,-0.15625 0.35938,-0.296875 0.1875,-0.140625 0.40625,-0.25 0.21875,-0.109375 0.5,-0.171875 0.29687,-0.0625 0.6875,-0.0625 0.59375,0 1.03125,0.203125 0.45312,0.1875 0.75,0.546875 0.3125,0.359375 0.45312,0.84375 0.15625,0.46875 0.15625,1.046875 0,0.59375 -0.14062,1.09375 -0.125,0.5 -0.375,0.859375 -0.26563,0.359375 -0.67188,0.5625 -0.40625,0.203125 -0.95312,0.203125 -0.92188,0 -1.51563,-0.515625 -0.59375,-0.515625 -0.71875,-1.5 h -2.125 q 0.0625,0.921875 0.4375,1.640625 0.375,0.703125 0.96875,1.171875 0.59375,0.484375 1.35938,0.734375 0.76562,0.234375 1.59375,0.234375 1.10937,0 1.92187,-0.34375 0.8125,-0.359375 1.34375,-0.953125 0.53125,-0.609375 0.78125,-1.40625 0.26563,-0.8125 0.26563,-1.71875 0,-1.03125 -0.28125,-1.859375 -0.26563,-0.828125 -0.76563,-1.40625 -0.53125,-0.578125 -1.28125,-0.875 -0.73437,-0.3125 -1.67187,-0.3125 -0.6875,0 -1.21875,0.171875 -0.53125,0.171875 -0.85938,0.359375 l 0.34375,-3.171875 h 5.3125 v -1.9375 h -7.125 z m 37.63359,-5.6875 h -2.1875 v 2.40625 h -2.375 v 1.640625 h 2.375 v 4.84375 q 0,0.9375 0.25,1.625 0.25,0.671875 0.70312,1.09375 0.4375,0.4375 1.0625,0.640625 0.625,0.203125 1.375,0.203125 0.40625,0 0.8125,-0.04687 0.42188,-0.03125 0.8125,-0.109375 0.375,-0.0625 0.70313,-0.171875 0.34375,-0.109375 0.57812,-0.25 l -0.23437,-1.5 q -0.17188,0.03125 -0.40625,0.07813 -0.23438,0.04687 -0.51563,0.09375 -0.28125,0.04687 -0.57812,0.07813 -0.29688,0.01563 -0.59375,0.01563 -0.39063,0 -0.71875,-0.07813 -0.32813,-0.09375 -0.5625,-0.3125 -0.23438,-0.21875 -0.375,-0.578125 -0.125,-0.375 -0.125,-0.921875 V 80.2157 h 3.70312 v -1.64064 h -3.70312 z m 15.32057,5.5 v -1.828125 h -8.40625 v 1.828125 z m 0,3.859375 v -1.8125 h -8.40625 v 1.8125 z m 11.21121,-2.15625 V 80.23131 q 0,-1.265625 -0.3125,-2.25 -0.29687,-0.984375 -0.84375,-1.65625 -0.5625,-0.65625 -1.35937,-1 -0.79688,-0.34375 -1.79688,-0.34375 -1.01562,0 -1.8125,0.34375 -0.79689,0.34375 -1.34376,1 -0.5625,0.671875 -0.85938,1.65625 -0.29687,0.984375 -0.29687,2.25 v 3.140625 q 0,1.28125 0.29687,2.265625 0.29688,0.96875 0.85938,1.625 0.5625,0.6875 1.35939,1.03125 0.8125,0.328125 1.8125,0.328125 1,0 1.79687,-0.328125 0.79688,-0.34375 1.34375,-1.03125 0.5625,-0.65625 0.85938,-1.625 0.29687,-0.984375 0.29687,-2.265625 z m -6.4375,-0.765625 q 0,-0.265625 0,-0.4375 0,-0.1875 0,-0.546875 v -1.78125 q 0,-0.8125 0.14063,-1.421875 0.15625,-0.609375 0.45312,-0.984375 0.26563,-0.34375 0.64063,-0.515625 0.375,-0.171875 0.89062,-0.171875 0.45313,0 0.82813,0.15625 0.375,0.140625 0.625,0.421875 0.28125,0.328125 0.4375,0.859375 0.17187,0.515625 0.20312,1.21875 z m 4.23438,1.140625 q 0,0.828125 -0.15625,1.453125 -0.14063,0.625 -0.4375,1 -0.26563,0.328125 -0.64063,0.5 -0.375,0.171875 -0.85937,0.171875 -0.5,0 -0.89063,-0.171875 -0.375,-0.171875 -0.625,-0.53125 -0.25,-0.3125 -0.40625,-0.796875 -0.15625,-0.484375 -0.20312,-1.109375 l 4.21875,-3.171875 q 0,0.25 0,0.5 0,0.25 0,0.46875 z"
       fill-rule="nonzero"
       id="path155" />
    <path
       fill="#d9ead3"
       d="m 101.0463,102.36228 v 0 c 0,-2.04393 1.65692,-3.700867 3.70085,-3.700867 h 71.71639 c 0.98153,0 1.92286,0.389916 2.6169,1.083962 0.69405,0.694045 1.08396,1.635375 1.08396,2.616905 v 14.803 c 0,2.04393 -1.65693,3.70086 -3.70086,3.70086 h -71.71639 c -2.04393,0 -3.70085,-1.65693 -3.70085,-3.70086 z"
       fill-rule="evenodd"
       id="path157" />
    <path
       stroke="#4285f4"
       stroke-width="2"
       stroke-linejoin="round"
       stroke-linecap="butt"
       d="m 101.0463,102.36228 v 0 c 0,-2.04393 1.65692,-3.700867 3.70085,-3.700867 h 71.71639 c 0.98153,0 1.92286,0.389916 2.6169,1.083962 0.69405,0.694045 1.08396,1.635375 1.08396,2.616905 v 14.803 c 0,2.04393 -1.65693,3.70086 -3.70086,3.70086 h -71.71639 c -2.04393,0 -3.70085,-1.65693 -3.70085,-3.70086 z"
       fill-rule="evenodd"
       id="path159" />
    <path
       fill="#4285f4"
       d="m 116.69051,106.91815 q 0,-0.89063 -0.3125,-1.57813 -0.3125,-0.6875 -0.84375,-1.14062 -0.5625,-0.48438 -1.3125,-0.71875 -0.73438,-0.25 -1.60938,-0.25 -0.89062,0 -1.64062,0.25 -0.73438,0.23437 -1.25,0.71875 -0.54688,0.46875 -0.85938,1.15625 -0.29687,0.67187 -0.29687,1.5625 0,0.48437 0.14062,0.9375 0.14063,0.45312 0.375,0.82812 0.25,0.35938 0.57813,0.65625 0.34375,0.29688 0.76562,0.51563 -0.48437,0.21875 -0.89062,0.54687 -0.39063,0.32813 -0.67188,0.71875 -0.28125,0.42188 -0.4375,0.92188 -0.15625,0.48437 -0.15625,1.03125 0,0.9375 0.32813,1.64062 0.34375,0.70313 0.9375,1.17188 0.57812,0.48437 1.375,0.73437 0.79687,0.25 1.73437,0.25 0.90625,0 1.6875,-0.25 0.79688,-0.25 1.39063,-0.73437 0.57812,-0.46875 0.90625,-1.17188 0.34375,-0.71875 0.34375,-1.64062 0,-0.64063 -0.21875,-1.1875 -0.20313,-0.5625 -0.5625,-1 -0.26563,-0.32813 -0.625,-0.57813 -0.34375,-0.25 -0.76563,-0.45312 0.35938,-0.17188 0.64063,-0.39063 0.28125,-0.23437 0.5,-0.5 0.35937,-0.40625 0.54687,-0.92187 0.20313,-0.53125 0.20313,-1.125 z m -1.89063,6.04687 q 0,0.5 -0.17187,0.90625 -0.15625,0.39063 -0.4375,0.67188 -0.28125,0.26562 -0.6875,0.42187 -0.39063,0.14063 -0.85938,0.14063 -0.5,0 -0.90625,-0.14063 -0.39062,-0.14062 -0.67187,-0.40625 -0.29688,-0.26562 -0.45313,-0.67187 -0.15625,-0.40625 -0.15625,-0.92188 0,-0.5 0.15625,-0.90625 0.15625,-0.40625 0.4375,-0.70312 0.28125,-0.28125 0.67188,-0.4375 0.39062,-0.15625 0.90625,-0.15625 0.46875,0 0.875,0.15625 0.40625,0.15625 0.6875,0.4375 0.28125,0.29687 0.4375,0.70312 0.17187,0.40625 0.17187,0.90625 z m -0.28125,-5.96875 q 0,0.45313 -0.14062,0.82813 -0.14063,0.35937 -0.375,0.60937 -0.25,0.26563 -0.59375,0.42188 -0.34375,0.14062 -0.78125,0.14062 -0.42188,0 -0.78125,-0.14062 -0.34375,-0.15625 -0.57813,-0.42188 -0.26562,-0.25 -0.39062,-0.60937 -0.125,-0.375 -0.125,-0.82813 0,-0.45312 0.125,-0.82812 0.125,-0.375 0.375,-0.625 0.23437,-0.25 0.57812,-0.39063 0.34375,-0.14062 0.76563,-0.14062 0.4375,0 0.78125,0.14062 0.35937,0.14063 0.60937,0.40625 0.25,0.26563 0.39063,0.64063 0.14062,0.35937 0.14062,0.79687 z m 31.86797,-2.57812 h -2.1875 v 2.40625 h -2.375 v 1.64062 h 2.375 v 4.84375 q 0,0.9375 0.25,1.625 0.25,0.67188 0.70312,1.09375 0.4375,0.4375 1.0625,0.64063 0.625,0.20312 1.375,0.20312 0.40625,0 0.8125,-0.0469 0.42188,-0.0312 0.8125,-0.10938 0.375,-0.0625 0.70313,-0.17187 0.34375,-0.10938 0.57812,-0.25 l -0.23437,-1.5 q -0.17188,0.0312 -0.40625,0.0781 -0.23438,0.0469 -0.51563,0.0937 -0.28125,0.0469 -0.57812,0.0781 -0.29688,0.0156 -0.59375,0.0156 -0.39063,0 -0.71875,-0.0781 -0.32813,-0.0937 -0.5625,-0.3125 -0.23438,-0.21875 -0.375,-0.57813 -0.125,-0.375 -0.125,-0.92187 v -4.70313 h 3.70312 v -1.64062 h -3.70312 z m 15.32057,5.5 v -1.82813 h -8.40625 v 1.82813 z m 0,3.85937 v -1.8125 h -8.40625 v 1.8125 z m 5.88307,-1 h 2.03125 q 0,-0.35937 0.0156,-0.625 0.0156,-0.26562 0.0937,-0.5 0.0625,-0.21875 0.21875,-0.4375 0.15625,-0.23437 0.42187,-0.5 0.4375,-0.39062 0.875,-0.8125 0.45313,-0.4375 0.79688,-0.92187 0.35937,-0.48438 0.57812,-1.03125 0.21875,-0.54688 0.21875,-1.20313 0,-0.84375 -0.28125,-1.5 -0.28125,-0.65625 -0.8125,-1.10937 -0.53125,-0.4375 -1.29687,-0.67188 -0.76563,-0.23437 -1.73438,-0.23437 -0.875,0 -1.625,0.21875 -0.75,0.21875 -1.3125,0.67187 -0.54687,0.4375 -0.875,1.09375 -0.32812,0.65625 -0.32812,1.51563 h 2.1875 q 0,-0.4375 0.15625,-0.75 0.17187,-0.32813 0.45312,-0.53125 0.26563,-0.20313 0.60938,-0.29688 0.35937,-0.0937 0.73437,-0.0937 0.46875,0 0.82813,0.125 0.375,0.10938 0.625,0.32813 0.23437,0.21875 0.35937,0.5625 0.125,0.32812 0.125,0.76562 0,0.39063 -0.17187,0.76563 -0.15625,0.375 -0.40625,0.71875 -0.26563,0.35937 -0.57813,0.6875 -0.3125,0.3125 -0.625,0.60937 -0.4375,0.35938 -0.70312,0.67188 -0.25,0.29687 -0.375,0.64062 -0.125,0.34375 -0.17188,0.78125 -0.0312,0.42188 -0.0312,1.0625 z m -0.29687,2.79688 q 0,0.51562 0.32812,0.875 0.34375,0.34375 0.95313,0.34375 0.60937,0 0.95312,-0.34375 0.35938,-0.35938 0.35938,-0.875 0,-0.53125 -0.35938,-0.875 -0.34375,-0.35938 -0.95312,-0.35938 -0.60938,0 -0.95313,0.35938 -0.32812,0.34375 -0.32812,0.875 z"
       fill-rule="nonzero"
       id="path161" />
    <path
       fill="#ffffff"
       d="m 213.7362,45.86359 v 0 c 0,-2.04393 1.65692,-3.700859 3.70085,-3.700859 h 15.84238 v 0 c 0.98152,0 1.92285,0.389908 2.6169,1.083954 0.69404,0.69405 1.08397,1.635376 1.08397,2.616905 v 14.803001 c 0,2.04393 -1.65694,3.700863 -3.70087,3.700863 h -15.84238 c -2.04393,0 -3.70085,-1.656933 -3.70085,-3.700863 z"
       fill-rule="evenodd"
       id="path163" />
    <path
       stroke="#93c47d"
       stroke-width="2"
       stroke-linejoin="round"
       stroke-linecap="butt"
       d="m 213.7362,45.86359 v 0 c 0,-2.04393 1.65692,-3.700859 3.70085,-3.700859 h 15.84238 v 0 c 0.98152,0 1.92285,0.389908 2.6169,1.083954 0.69404,0.69405 1.08397,1.635376 1.08397,2.616905 v 14.803001 c 0,2.04393 -1.65694,3.700863 -3.70087,3.700863 h -15.84238 c -2.04393,0 -3.70085,-1.656933 -3.70085,-3.700863 z"
       fill-rule="evenodd"
       id="path165" />
    <path
       fill="#93c47d"
       d="m 223.47922,52.575714 v 1.703125 h 1.29687 q 0.5625,0 1.01563,0.140625 0.46875,0.125 0.79687,0.390625 0.32813,0.28125 0.5,0.6875 0.17188,0.40625 0.17188,0.984375 0,0.5 -0.15625,0.90625 -0.14063,0.390625 -0.42188,0.65625 -0.29687,0.28125 -0.71875,0.421875 -0.42187,0.140625 -0.95312,0.140625 -0.48438,0 -0.89063,-0.140625 -0.40625,-0.15625 -0.70312,-0.40625 -0.29688,-0.265625 -0.45313,-0.625 -0.15625,-0.375 -0.15625,-0.8125 h -2.1875 q 0,0.9375 0.35938,1.640625 0.35937,0.6875 0.96875,1.15625 0.59375,0.46875 1.39062,0.71875 0.79688,0.234375 1.65625,0.234375 0.9375,0 1.75,-0.265625 0.82813,-0.265625 1.42188,-0.765625 0.59375,-0.484375 0.9375,-1.203125 0.34375,-0.734375 0.34375,-1.65625 0,-0.5 -0.125,-0.96875 -0.10938,-0.46875 -0.375,-0.890625 -0.26563,-0.390625 -0.6875,-0.71875 -0.40625,-0.328125 -1,-0.53125 0.5,-0.21875 0.875,-0.546875 0.375,-0.328125 0.60937,-0.703125 0.25,-0.375 0.375,-0.78125 0.125,-0.421875 0.125,-0.828125 0,-0.9375 -0.3125,-1.625 -0.3125,-0.703125 -0.875,-1.1875 -0.54687,-0.484375 -1.34375,-0.71875 -0.78125,-0.25 -1.71875,-0.25 -0.92187,0 -1.70312,0.28125 -0.76563,0.265625 -1.32813,0.75 -0.5625,0.5 -0.89062,1.171875 -0.3125,0.65625 -0.3125,1.453125 h 2.17187 q 0,-0.4375 0.15625,-0.78125 0.17188,-0.34375 0.45313,-0.59375 0.26562,-0.25 0.64062,-0.375 0.39063,-0.125 0.82813,-0.125 0.5,0 0.89062,0.140625 0.39063,0.125 0.64063,0.375 0.26562,0.265625 0.39062,0.640625 0.14063,0.375 0.14063,0.84375 0,0.4375 -0.15625,0.8125 -0.14063,0.375 -0.39063,0.640625 -0.28125,0.28125 -0.71875,0.453125 -0.4375,0.15625 -1.03125,0.15625 z"
       fill-rule="nonzero"
       id="path167" />
    <path
       fill="#ffffff"
       d="m 215.3422,102.39638 v 0 c 0,-2.04393 1.65694,-3.700862 3.70087,-3.700862 h 15.84237 v 0 c 0.98153,0 1.92286,0.389916 2.6169,1.083962 0.69405,0.69405 1.08396,1.63538 1.08396,2.6169 v 14.80301 c 0,2.04393 -1.65693,3.70085 -3.70086,3.70085 h -15.84237 c -2.04393,0 -3.70087,-1.65692 -3.70087,-3.70085 z"
       fill-rule="evenodd"
       id="path169" />
    <path
       stroke="#93c47d"
       stroke-width="2"
       stroke-linejoin="round"
       stroke-linecap="butt"
       d="m 215.3422,102.39638 v 0 c 0,-2.04393 1.65694,-3.700862 3.70087,-3.700862 h 15.84237 v 0 c 0.98153,0 1.92286,0.389916 2.6169,1.083962 0.69405,0.69405 1.08396,1.63538 1.08396,2.6169 v 14.80301 c 0,2.04393 -1.65693,3.70085 -3.70086,3.70085 h -15.84237 c -2.04393,0 -3.70087,-1.65692 -3.70087,-3.70085 z"
       fill-rule="evenodd"
       id="path171" />
    <path
       fill="#93c47d"
       d="m 224.53833,114.921 h -0.17188 v 1.85938 h 0.1875 q 1.71875,0 2.92188,-0.5 1.21875,-0.5 1.96875,-1.375 0.92187,-1.0625 1.28125,-2.48438 0.375,-1.42187 0.375,-2.98437 V 108.671 q 0,-1.14062 -0.3125,-2.17187 -0.29688,-1.04688 -0.875,-1.76563 -0.5625,-0.67187 -1.35938,-1.0625 -0.79687,-0.40625 -1.82812,-0.40625 -1.01563,0 -1.8125,0.375 -0.79688,0.375 -1.34375,1 -0.54688,0.64063 -0.84375,1.48438 -0.28125,0.84375 -0.28125,1.79687 0,0.875 0.23437,1.6875 0.25,0.79688 0.73438,1.42188 0.46875,0.60937 1.17187,0.96875 0.71875,0.35937 1.6875,0.35937 0.48438,0 0.875,-0.0781 0.39063,-0.0937 0.71875,-0.25 0.3125,-0.15625 0.5625,-0.34375 0.26563,-0.20313 0.46875,-0.42188 v 0.0469 q -0.0781,0.76562 -0.32812,1.4375 -0.25,0.67187 -0.79688,1.1875 -0.51562,0.46875 -1.3125,0.73437 -0.78125,0.25 -1.92187,0.25 z m 2.20312,-4.28125 q -0.54687,0 -0.95312,-0.23437 -0.39063,-0.23438 -0.65625,-0.60938 -0.26563,-0.39062 -0.39063,-0.89062 -0.125,-0.5 -0.125,-1.04688 0,-0.5625 0.14063,-1.07812 0.14062,-0.51563 0.40625,-0.90625 0.26562,-0.375 0.65625,-0.59375 0.40625,-0.23438 0.90625,-0.23438 0.46875,0 0.85937,0.21875 0.40625,0.21875 0.70313,0.625 0.29687,0.40625 0.46875,1.01563 0.17187,0.60937 0.17187,1.40625 v 0.75 q -0.125,0.34375 -0.34375,0.64062 -0.21875,0.28125 -0.5,0.48438 -0.28125,0.21875 -0.625,0.34375 -0.34375,0.10937 -0.71875,0.10937 z"
       fill-rule="nonzero"
       id="path173" />
    <path
       fill="#ffffff"
       d="m 407.93063,74.11425 v 0 c 0,-2.04393 1.65692,-3.700867 3.70084,-3.700867 h 15.84237 v 0 c 0.98154,0 1.92285,0.389916 2.61692,1.083962 0.69403,0.694046 1.08395,1.635376 1.08395,2.616905 v 14.803001 c 0,2.04393 -1.65692,3.700859 -3.70087,3.700859 h -15.84237 c -2.04392,0 -3.70084,-1.656929 -3.70084,-3.700859 z"
       fill-rule="evenodd"
       id="path175" />
    <path
       stroke="#93c47d"
       stroke-width="2"
       stroke-linejoin="round"
       stroke-linecap="butt"
       d="m 407.93063,74.11425 v 0 c 0,-2.04393 1.65692,-3.700867 3.70084,-3.700867 h 15.84237 v 0 c 0.98154,0 1.92285,0.389916 2.61692,1.083962 0.69403,0.694046 1.08395,1.635376 1.08395,2.616905 v 14.803001 c 0,2.04393 -1.65692,3.700859 -3.70087,3.700859 h -15.84237 c -2.04392,0 -3.70084,-1.656929 -3.70084,-3.700859 z"
       fill-rule="evenodd"
       id="path177" />
    <path
       fill="#93c47d"
       d="m 421.87677,75.10762 h -0.26562 q -1.54688,0 -2.75,0.484375 -1.20313,0.484375 -2.01563,1.390625 -0.96875,1.046875 -1.39062,2.5 -0.40625,1.453125 -0.40625,3.046875 v 0.90625 q 0,1.0625 0.3125,2.03125 0.3125,0.953125 0.90625,1.671875 0.5625,0.671875 1.375,1.078125 0.82812,0.40625 1.875,0.40625 1.03125,0 1.82812,-0.34375 0.79688,-0.359375 1.34375,-0.984375 0.54688,-0.609375 0.82813,-1.421875 0.29687,-0.828125 0.29687,-1.78125 0,-0.859375 -0.23437,-1.65625 -0.21875,-0.8125 -0.6875,-1.4375 -0.46875,-0.609375 -1.1875,-0.96875 -0.70313,-0.375 -1.67188,-0.375 -0.45312,0 -0.875,0.109375 -0.40625,0.09375 -0.73437,0.265625 -0.35938,0.1875 -0.65625,0.421875 -0.28125,0.234375 -0.5,0.484375 0.0625,-0.859375 0.35937,-1.59375 0.3125,-0.734375 0.875,-1.265625 0.54688,-0.53125 1.34375,-0.828125 0.79688,-0.296875 1.875,-0.296875 h 0.15625 z m -2.39062,6.3125 q 0.53125,0 0.9375,0.21875 0.40625,0.203125 0.6875,0.578125 0.26562,0.375 0.40625,0.875 0.14062,0.5 0.14062,1.046875 0,0.59375 -0.14062,1.09375 -0.14063,0.484375 -0.4375,0.859375 -0.28125,0.34375 -0.6875,0.5625 -0.39063,0.203125 -0.90625,0.203125 -0.45313,0 -0.875,-0.203125 -0.40625,-0.21875 -0.71875,-0.625 -0.29688,-0.40625 -0.48438,-1 -0.17187,-0.609375 -0.17187,-1.390625 v -0.671875 q 0.14062,-0.34375 0.35937,-0.609375 0.21875,-0.28125 0.5,-0.484375 0.29688,-0.21875 0.64063,-0.328125 0.35937,-0.125 0.75,-0.125 z"
       fill-rule="nonzero"
       id="path179" />
    <path
       fill="#9e9e9e"
       fill-opacity="0"
       d="m 400.71802,102.36359 v 0 c 0,-2.04393 1.65692,-3.700863 3.70087,-3.700863 h 30.26757 c 0.98151,0 1.92286,0.389916 2.61689,1.083962 0.69406,0.694041 1.08395,1.635371 1.08395,2.616901 v 14.80301 c 0,2.04393 -1.65692,3.70085 -3.70084,3.70085 h -30.26757 c -2.04395,0 -3.70087,-1.65693 -3.70087,-3.70085 z"
       fill-rule="evenodd"
       id="path181" />
    <path
       stroke="#93c47d"
       stroke-width="2"
       stroke-linejoin="round"
       stroke-linecap="butt"
       d="m 400.71802,102.36359 v 0 c 0,-2.04393 1.65692,-3.700863 3.70087,-3.700863 h 30.26757 c 0.98151,0 1.92286,0.389916 2.61689,1.083962 0.69406,0.694041 1.08395,1.635371 1.08395,2.616901 v 14.80301 c 0,2.04393 -1.65692,3.70085 -3.70084,3.70085 h -30.26757 c -2.04395,0 -3.70087,-1.65693 -3.70087,-3.70085 z"
       fill-rule="evenodd"
       id="path183" />
    <path
       fill="#93c47d"
       d="m 415.6696,116.68509 v -13.26562 h -0.14063 l -5.45312,2.03125 v 1.92187 l 3.39062,-1.25 v 10.5625 z m 13.80496,-5.0625 v -3.14062 q 0,-1.26563 -0.3125,-2.25 -0.29687,-0.98438 -0.84375,-1.65625 -0.5625,-0.65625 -1.35937,-1 -0.79688,-0.34375 -1.79688,-0.34375 -1.01562,0 -1.8125,0.34375 -0.79687,0.34375 -1.34375,1 -0.5625,0.67187 -0.85937,1.65625 -0.29688,0.98437 -0.29688,2.25 v 3.14062 q 0,1.28125 0.29688,2.26563 0.29687,0.96875 0.85937,1.625 0.5625,0.6875 1.35938,1.03125 0.8125,0.32812 1.8125,0.32812 1,0 1.79687,-0.32812 0.79688,-0.34375 1.34375,-1.03125 0.5625,-0.65625 0.85938,-1.625 0.29687,-0.98438 0.29687,-2.26563 z m -6.4375,-0.76562 q 0,-0.26563 0,-0.4375 0,-0.1875 0,-0.54688 v -1.78125 q 0,-0.8125 0.14063,-1.42187 0.15625,-0.60938 0.45312,-0.98438 0.26563,-0.34375 0.64063,-0.51562 0.375,-0.17188 0.89062,-0.17188 0.45313,0 0.82813,0.15625 0.375,0.14063 0.625,0.42188 0.28125,0.32812 0.4375,0.85937 0.17187,0.51563 0.20312,1.21875 z m 4.23438,1.14062 q 0,0.82813 -0.15625,1.45313 -0.14063,0.625 -0.4375,1 -0.26563,0.32812 -0.64063,0.5 -0.375,0.17187 -0.85937,0.17187 -0.5,0 -0.89063,-0.17187 -0.375,-0.17188 -0.625,-0.53125 -0.25,-0.3125 -0.40625,-0.79688 -0.15625,-0.48437 -0.20312,-1.10937 l 4.21875,-3.17188 q 0,0.25 0,0.5 0,0.25 0,0.46875 z"
       fill-rule="nonzero"
       id="path185" />
    <path
       fill="#ffffff"
       d="m 32.725708,82.31766 v 0 c 0,-2.04393 1.656933,-3.700859 3.700863,-3.700859 H 52.26894 v 0 c 0.981529,0 1.922859,0.389908 2.616905,1.083954 0.694046,0.694046 1.083958,1.635376 1.083958,2.616905 v 14.803001 c 0,2.04393 -1.656933,3.700869 -3.700863,3.700869 H 36.426571 c -2.04393,0 -3.700863,-1.656939 -3.700863,-3.700869 z"
       fill-rule="evenodd"
       id="path187" />
    <path
       stroke="#93c47d"
       stroke-width="2"
       stroke-linejoin="round"
       stroke-linecap="butt"
       d="m 32.725708,82.31766 v 0 c 0,-2.04393 1.656933,-3.700859 3.700863,-3.700859 H 52.26894 v 0 c 0.981529,0 1.922859,0.389908 2.616905,1.083954 0.694046,0.694046 1.083958,1.635376 1.083958,2.616905 v 14.803001 c 0,2.04393 -1.656933,3.700869 -3.700863,3.700869 H 36.426571 c -2.04393,0 -3.700863,-1.656939 -3.700863,-3.700869 z"
       fill-rule="evenodd"
       id="path189" />
    <path
       fill="#93c47d"
       d="m 48.153404,91.41791 v -3.59375 q 0,-1.453125 -0.34375,-2.5625 -0.34375,-1.125 -0.96875,-1.90625 -0.640625,-0.75 -1.5625,-1.140625 -0.90625,-0.390625 -2.0625,-0.390625 -1.140625,0 -2.0625,0.390625 -0.90625,0.390625 -1.546875,1.140625 -0.625,0.78125 -0.96875,1.90625 -0.34375,1.109375 -0.34375,2.5625 v 3.59375 q 0,1.453125 0.34375,2.578125 0.34375,1.125 0.984375,1.875 0.640625,0.765625 1.546875,1.15625 0.921875,0.390625 2.0625,0.390625 1.15625,0 2.0625,-0.390625 0.921875,-0.390625 1.546875,-1.15625 0.640625,-0.75 0.96875,-1.875 0.34375,-1.125 0.34375,-2.578125 z m -7.359375,-0.890625 q 0,-0.296875 0,-0.5 0,-0.21875 0,-0.609375 v -2.046875 q 0,-0.921875 0.171875,-1.609375 0.171875,-0.703125 0.515625,-1.140625 0.28125,-0.390625 0.71875,-0.578125 0.4375,-0.203125 1.015625,-0.203125 0.53125,0 0.953125,0.171875 0.421875,0.15625 0.71875,0.5 0.328125,0.375 0.5,0.96875 0.1875,0.59375 0.234375,1.390625 z m 4.84375,1.3125 q 0,0.953125 -0.171875,1.671875 -0.171875,0.703125 -0.515625,1.140625 -0.296875,0.375 -0.734375,0.5625 -0.421875,0.1875 -0.984375,0.1875 -0.5625,0 -1,-0.1875 -0.4375,-0.203125 -0.71875,-0.59375 -0.296875,-0.375 -0.46875,-0.921875 -0.171875,-0.546875 -0.21875,-1.265625 l 4.8125,-3.640625 q 0,0.296875 0,0.578125 0,0.28125 0,0.546875 z"
       fill-rule="nonzero"
       id="path191" />
    <path
       fill="#000000"
       fill-opacity="0"
       d="m 183.39468,30.98431 v 0 c 0,-2.04393 1.65694,-3.700861 3.70087,-3.700861 h 15.84237 v 0 c 0.98153,0 1.92286,0.38991 2.6169,1.083956 0.69405,0.694048 1.08396,1.635376 1.08396,2.616905 v 14.803001 c 0,2.04393 -1.65693,3.700863 -3.70086,3.700863 h -15.84237 c -2.04393,0 -3.70087,-1.656933 -3.70087,-3.700863 z"
       fill-rule="evenodd"
       id="path193" />
    <path
       fill="#1c4587"
       d="m 193.23744,45.788937 q -0.875,0 -1.53125,-0.421875 -0.65625,-0.421875 -1.01563,-1.234375 -0.35937,-0.828125 -0.35937,-2.015625 0,-1.1875 0.25,-2.28125 0.25,-1.09375 0.70312,-2.03125 0.46875,-0.9375 1.10938,-1.640625 0.65625,-0.703125 1.45312,-1.09375 0.8125,-0.390625 1.75,-0.390625 0.73438,0 1.26563,0.28125 0.53125,0.265625 0.875,0.71875 0.35937,0.4375 0.57812,0.9375 h 0.0937 l 0.625,-1.734375 h 1.23438 l -2.26563,10.703125 h -1.29687 l 0.29687,-2.078125 h -0.0781 q -0.4375,0.59375 -1.01563,1.109375 -0.5625,0.515625 -1.23437,0.84375 -0.67188,0.328125 -1.4375,0.328125 z m 0.51562,-1.359375 q 0.75,0 1.48438,-0.546875 0.75,-0.546875 1.32812,-1.484375 0.59375,-0.953125 0.90625,-2.140625 0.15625,-0.578125 0.20313,-1.046875 0.0625,-0.484375 0.0625,-0.90625 0,-1.015625 -0.53125,-1.625 -0.53125,-0.625 -1.45313,-0.625 -0.64062,0 -1.21875,0.328125 -0.57812,0.328125 -1.04687,0.90625 -0.46875,0.578125 -0.79688,1.34375 -0.32812,0.765625 -0.51562,1.671875 -0.17188,0.890625 -0.17188,1.84375 0,1.125 0.45313,1.703125 0.46875,0.578125 1.29687,0.578125 z"
       fill-rule="nonzero"
       id="path195" />
    <path
       fill="#000000"
       fill-opacity="0"
       d="m 183.39468,86.98431 v 0 c 0,-2.043922 1.65694,-3.700859 3.70087,-3.700859 h 15.84237 v 0 c 0.98153,0 1.92286,0.389915 2.6169,1.083961 0.69405,0.694046 1.08396,1.635369 1.08396,2.616898 v 14.803 c 0,2.04393 -1.65693,3.70087 -3.70086,3.70087 h -15.84237 c -2.04393,0 -3.70087,-1.65694 -3.70087,-3.70087 z"
       fill-rule="evenodd"
       id="path197" />
    <path
       fill="#1c4587"
       d="m 193.23744,101.78893 q -0.875,0 -1.53125,-0.42188 -0.65625,-0.42187 -1.01563,-1.23437 -0.35937,-0.828125 -0.35937,-2.015625 0,-1.1875 0.25,-2.28125 0.25,-1.09375 0.70312,-2.03125 0.46875,-0.9375 1.10938,-1.640625 0.65625,-0.703125 1.45312,-1.09375 0.8125,-0.390625 1.75,-0.390625 0.73438,0 1.26563,0.28125 0.53125,0.265625 0.875,0.71875 0.35937,0.4375 0.57812,0.9375 h 0.0937 l 0.625,-1.734375 h 1.23438 l -2.26563,10.70312 h -1.29687 l 0.29687,-2.07812 h -0.0781 q -0.4375,0.59375 -1.01563,1.10937 -0.5625,0.51563 -1.23437,0.84375 -0.67188,0.32813 -1.4375,0.32813 z m 0.51562,-1.35938 q 0.75,0 1.48438,-0.54687 0.75,-0.546875 1.32812,-1.484375 0.59375,-0.953125 0.90625,-2.140625 0.15625,-0.578125 0.20313,-1.046875 0.0625,-0.484375 0.0625,-0.90625 0,-1.015625 -0.53125,-1.625 -0.53125,-0.625 -1.45313,-0.625 -0.64062,0 -1.21875,0.328125 -0.57812,0.328125 -1.04687,0.90625 -0.46875,0.578125 -0.79688,1.34375 -0.32812,0.765625 -0.51562,1.671875 -0.17188,0.890625 -0.17188,1.84375 0,1.125 0.45313,1.703125 0.46875,0.57812 1.29687,0.57812 z"
       fill-rule="nonzero"
       id="path199" />
    <path
       fill="#000000"
       fill-opacity="0"
       d="m 367.39468,62.98431 v 0 c 0,-2.04393 1.65695,-3.700863 3.70087,-3.700863 h 15.84237 v 0 c 0.98154,0 1.92286,0.389912 2.61692,1.083958 0.69403,0.694046 1.08395,1.635376 1.08395,2.616905 v 14.802998 c 0,2.04393 -1.65695,3.700867 -3.70087,3.700867 h -15.84237 c -2.04392,0 -3.70087,-1.656937 -3.70087,-3.700867 z"
       fill-rule="evenodd"
       id="path201" />
    <path
       fill="#1c4587"
       d="m 378.55286,77.78893 q -0.75,0 -1.3125,-0.265625 -0.54688,-0.28125 -0.90625,-0.71875 -0.35938,-0.4375 -0.5625,-0.953125 h -0.0937 l -0.64063,1.734375 h -1.23437 l 3.23437,-15.203121 h 1.60938 l -0.78125,3.671871 q -0.125,0.65625 -0.28125,1.296875 -0.15625,0.640625 -0.28125,1.09375 -0.125,0.4375 -0.17188,0.515625 h 0.0781 q 0.46875,-0.59375 1.01562,-1.109375 0.54688,-0.515625 1.1875,-0.828125 0.65625,-0.3125 1.42188,-0.3125 0.90625,0 1.5625,0.421875 0.67187,0.40625 1.03125,1.21875 0.375,0.8125 0.375,2 0,1.15625 -0.23438,2.25 -0.23437,1.09375 -0.67187,2.03125 -0.4375,0.9375 -1.07813,1.640625 -0.625,0.703125 -1.45312,1.109375 -0.82813,0.40625 -1.8125,0.40625 z m -0.10938,-1.359375 q 0.67188,0 1.23438,-0.34375 0.57812,-0.34375 1.03125,-0.921875 0.46875,-0.59375 0.78125,-1.375 0.3125,-0.78125 0.46875,-1.65625 0.17187,-0.890625 0.17187,-1.796875 0,-1.125 -0.45312,-1.703125 -0.45313,-0.578125 -1.34375,-0.578125 -0.46875,0 -0.95313,0.234375 -0.48437,0.21875 -0.9375,0.640625 -0.45312,0.421875 -0.84375,1 -0.375,0.5625 -0.67187,1.25 -0.28125,0.671875 -0.45313,1.4375 -0.15625,0.765625 -0.15625,1.546875 0,1.03125 0.51563,1.65625 0.53125,0.609375 1.60937,0.609375 z"
       fill-rule="nonzero"
       id="path203" />
    <path
       fill="#000000"
       fill-opacity="0"
       d="m 367.39468,88.237595 v 0 c 0,-2.04393 1.65695,-3.700867 3.70087,-3.700867 h 15.84237 v 0 c 0.98154,0 1.92286,0.389916 2.61692,1.083962 0.69403,0.694046 1.08395,1.635368 1.08395,2.616905 V 103.0406 c 0,2.04392 -1.65695,3.70085 -3.70087,3.70085 h -15.84237 c -2.04392,0 -3.70087,-1.65693 -3.70087,-3.70085 z"
       fill-rule="evenodd"
       id="path205" />
    <path
       fill="#1c4587"
       d="m 378.55286,103.04221 q -0.75,0 -1.3125,-0.26563 -0.54688,-0.28125 -0.90625,-0.71875 -0.35938,-0.4375 -0.5625,-0.95312 h -0.0937 l -0.64063,1.73437 h -1.23437 l 3.23437,-15.20312 h 1.60938 l -0.78125,3.671875 q -0.125,0.65625 -0.28125,1.296875 -0.15625,0.640625 -0.28125,1.09375 -0.125,0.4375 -0.17188,0.515625 h 0.0781 q 0.46875,-0.59375 1.01562,-1.109375 0.54688,-0.515625 1.1875,-0.828125 0.65625,-0.3125 1.42188,-0.3125 0.90625,0 1.5625,0.421875 0.67187,0.40625 1.03125,1.21875 0.375,0.8125 0.375,2 0,1.15625 -0.23438,2.25 -0.23437,1.09375 -0.67187,2.03125 -0.4375,0.9375 -1.07813,1.64062 -0.625,0.70313 -1.45312,1.10938 -0.82813,0.40625 -1.8125,0.40625 z m -0.10938,-1.35938 q 0.67188,0 1.23438,-0.34375 0.57812,-0.34375 1.03125,-0.92187 0.46875,-0.59375 0.78125,-1.375 0.3125,-0.78125 0.46875,-1.65625 0.17187,-0.890625 0.17187,-1.796875 0,-1.125 -0.45312,-1.703125 -0.45313,-0.578125 -1.34375,-0.578125 -0.46875,0 -0.95313,0.234375 -0.48437,0.21875 -0.9375,0.640625 -0.45312,0.421875 -0.84375,1 -0.375,0.5625 -0.67187,1.25 -0.28125,0.671875 -0.45313,1.4375 -0.15625,0.765625 -0.15625,1.546875 0,1.03125 0.51563,1.65625 0.53125,0.60937 1.60937,0.60937 z"
       fill-rule="nonzero"
       id="path207" />
    <path
       fill="#d9ead3"
       d="m 101.04833,129.35178 v 0 c 0,-2.04392 1.65692,-3.70086 3.70085,-3.70086 h 71.71639 c 0.98153,0 1.92286,0.38992 2.6169,1.08396 0.69405,0.69405 1.08396,1.63538 1.08396,2.6169 v 14.80301 c 0,2.04393 -1.65693,3.70085 -3.70086,3.70085 h -71.71639 c -2.04393,0 -3.70085,-1.65692 -3.70085,-3.70085 z"
       fill-rule="evenodd"
       id="path209" />
    <path
       stroke="#4285f4"
       stroke-width="2"
       stroke-linejoin="round"
       stroke-linecap="butt"
       d="m 101.04833,129.35178 v 0 c 0,-2.04392 1.65692,-3.70086 3.70085,-3.70086 h 71.71639 c 0.98153,0 1.92286,0.38992 2.6169,1.08396 0.69405,0.69405 1.08396,1.63538 1.08396,2.6169 v 14.80301 c 0,2.04393 -1.65693,3.70085 -3.70086,3.70085 h -71.71639 c -2.04393,0 -3.70085,-1.65692 -3.70085,-3.70085 z"
       fill-rule="evenodd"
       id="path211" />
    <path
       fill="#4285f4"
       d="m 114.33316,143.67328 v -13.26563 h -0.14062 l -5.45313,2.03125 v 1.92188 l 3.39063,-1.25 v 10.5625 z m 11.19557,0 v -13.26563 h -0.14062 l -5.45313,2.03125 v 1.92188 l 3.39063,-1.25 v 10.5625 z m 20.8599,-12.26563 h -2.1875 v 2.40625 h -2.375 v 1.64063 h 2.375 v 4.84375 q 0,0.9375 0.25,1.625 0.25,0.67187 0.70312,1.09375 0.4375,0.4375 1.0625,0.64062 0.625,0.20313 1.375,0.20313 0.40625,0 0.8125,-0.0469 0.42188,-0.0312 0.8125,-0.10937 0.375,-0.0625 0.70313,-0.17188 0.34375,-0.10937 0.57812,-0.25 l -0.23437,-1.5 q -0.17188,0.0312 -0.40625,0.0781 -0.23438,0.0469 -0.51563,0.0937 -0.28125,0.0469 -0.57812,0.0781 -0.29688,0.0156 -0.59375,0.0156 -0.39063,0 -0.71875,-0.0781 -0.32813,-0.0937 -0.5625,-0.3125 -0.23438,-0.21875 -0.375,-0.57812 -0.125,-0.375 -0.125,-0.92188 v -4.70312 h 3.70312 v -1.64063 h -3.70312 z m 15.32057,5.5 v -1.82812 h -8.40625 v 1.82812 z m 0,3.85938 v -1.8125 h -8.40625 v 1.8125 z m 11.2112,-2.15625 v -3.14063 q 0,-1.26562 -0.3125,-2.25 -0.29688,-0.98437 -0.84375,-1.65625 -0.5625,-0.65625 -1.35938,-1 -0.79687,-0.34375 -1.79687,-0.34375 -1.01563,0 -1.8125,0.34375 -0.79688,0.34375 -1.34375,1 -0.5625,0.67188 -0.85938,1.65625 -0.29687,0.98438 -0.29687,2.25 v 3.14063 q 0,1.28125 0.29687,2.26562 0.29688,0.96875 0.85938,1.625 0.5625,0.6875 1.35937,1.03125 0.8125,0.32813 1.8125,0.32813 1,0 1.79688,-0.32813 0.79687,-0.34375 1.34375,-1.03125 0.5625,-0.65625 0.85937,-1.625 0.29688,-0.98437 0.29688,-2.26562 z m -6.4375,-0.76563 q 0,-0.26562 0,-0.4375 0,-0.1875 0,-0.54687 v -1.78125 q 0,-0.8125 0.14062,-1.42188 0.15625,-0.60937 0.45313,-0.98437 0.26562,-0.34375 0.64062,-0.51563 0.375,-0.17187 0.89063,-0.17187 0.45312,0 0.82812,0.15625 0.375,0.14062 0.625,0.42187 0.28125,0.32813 0.4375,0.85938 0.17188,0.51562 0.20313,1.21875 z m 4.23437,1.14063 q 0,0.82812 -0.15625,1.45312 -0.14062,0.625 -0.4375,1 -0.26562,0.32813 -0.64062,0.5 -0.375,0.17188 -0.85938,0.17188 -0.5,0 -0.89062,-0.17188 -0.375,-0.17187 -0.625,-0.53125 -0.25,-0.3125 -0.40625,-0.79687 -0.15625,-0.48438 -0.20313,-1.10938 l 4.21875,-3.17187 q 0,0.25 0,0.5 0,0.25 0,0.46875 z"
       fill-rule="nonzero"
       id="path213" />
    <path
       fill="#000000"
       fill-opacity="0"
       d="m 93.74278,50.974068 v 0 c 0,-8.639591 7.00377,-15.64336 15.64336,-15.64336 h 62.57155 v 0 c 4.14888,0 8.12783,1.648136 11.06152,4.581833 2.9337,2.933701 4.58183,6.912651 4.58183,11.061527 v 86.823522 c 0,8.63959 -7.00377,15.64336 -15.64335,15.64336 h -62.57155 c -8.63959,0 -15.64336,-7.00377 -15.64336,-15.64336 z"
       fill-rule="evenodd"
       id="path215" />
    <path
       stroke="#1c4587"
       stroke-width="1"
       stroke-linejoin="round"
       stroke-linecap="butt"
       d="m 93.74278,50.974068 v 0 c 0,-8.639591 7.00377,-15.64336 15.64336,-15.64336 h 62.57155 v 0 c 4.14888,0 8.12783,1.648136 11.06152,4.581833 2.9337,2.933701 4.58183,6.912651 4.58183,11.061527 v 86.823522 c 0,8.63959 -7.00377,15.64336 -15.64335,15.64336 h -62.57155 c -8.63959,0 -15.64336,-7.00377 -15.64336,-15.64336 z"
       fill-rule="evenodd"
       id="path217" />
  </g>
</svg>
