<?xml version="1.0" encoding="UTF-8" standalone="no"?>
<svg
   version="1.1"
   viewBox="0 0 562.54504 226.50797"
   fill="none"
   stroke="none"
   stroke-linecap="square"
   stroke-miterlimit="10"
   id="svg213"
   sodipodi:docname="tnfa1.svg"
   inkscape:version="1.1.1 (3bf5ae0d25, 2021-09-20)"
   width="562.54504"
   height="226.50797"
   xmlns:inkscape="http://www.inkscape.org/namespaces/inkscape"
   xmlns:sodipodi="http://sodipodi.sourceforge.net/DTD/sodipodi-0.dtd"
   xmlns="http://www.w3.org/2000/svg"
   xmlns:svg="http://www.w3.org/2000/svg">
  <defs
     id="defs217">
    <clipPath
       clipPathUnits="userSpaceOnUse"
       id="clipPath7469">
      <rect
         style="fill:#0000ff;fill-rule:evenodd"
         id="rect7471"
         width="562.54504"
         height="226.50797"
         x="201.84062"
         y="162.78748" />
    </clipPath>
  </defs>
  <sodipodi:namedview
     id="namedview215"
     pagecolor="#ffffff"
     bordercolor="#666666"
     borderopacity="1.0"
     inkscape:pageshadow="2"
     inkscape:pageopacity="0.0"
     inkscape:pagecheckerboard="0"
     showgrid="false"
     inkscape:zoom="1.3197917"
     inkscape:cx="278.45303"
     inkscape:cy="106.83504"
     inkscape:window-width="1916"
     inkscape:window-height="1037"
     inkscape:window-x="0"
     inkscape:window-y="20"
     inkscape:window-maximized="1"
     inkscape:current-layer="svg213" />
  <clipPath
     id="gd3650c1d61_0_1057.0">
    <path
       d="M 0,0 H 960 V 540 H 0 Z"
       clip-rule="nonzero"
       id="path2" />
  </clipPath>
  <g
     clip-path="url(#clipPath7469)"
     id="g211"
     transform="translate(-201.84062,-162.78748)">
    <path
       fill="#ffffff"
       d="M 0,0 H 960 V 540 H 0 Z"
       fill-rule="evenodd"
       id="path5" />
    <path
       fill="#000000"
       fill-opacity="0"
       d="M 32.72441,11.68504 H 927.27556 V 71.811019 H 32.72441 Z"
       fill-rule="evenodd"
       id="path7" />
    <path
       fill="#ffffff"
       d="m 52.708786,44.87479 q -4.546875,-1.3125 -6.609375,-3.203125 -2.0625,-1.90625 -2.0625,-4.703125 0,-3.15625 2.515625,-5.21875 2.53125,-2.0625 6.578125,-2.0625 2.75,0 4.90625,1.0625 2.15625,1.0625 3.328125,2.9375 1.1875,1.875 1.1875,4.09375 h -3.53125 q 0,-2.421875 -1.546875,-3.796875 -1.546875,-1.390625 -4.34375,-1.390625 -2.609375,0 -4.078125,1.140625 -1.453125,1.140625 -1.453125,3.1875 0,1.625 1.375,2.765625 1.390625,1.125 4.71875,2.0625 3.34375,0.9375 5.21875,2.0625 1.890625,1.125 2.796875,2.640625 0.90625,1.5 0.90625,3.53125 0,3.25 -2.53125,5.203125 -2.53125,1.953125 -6.78125,1.953125 -2.75,0 -5.140625,-1.046875 -2.375,-1.0625 -3.671875,-2.890625 -1.296875,-1.84375 -1.296875,-4.171875 h 3.546875 q 0,2.421875 1.78125,3.828125 1.796875,1.40625 4.78125,1.40625 2.796875,0 4.28125,-1.140625 1.484375,-1.140625 1.484375,-3.09375 0,-1.96875 -1.375,-3.03125 -1.375,-1.078125 -4.984375,-2.125 z m 26.146683,9.9375 q -1.984375,2.328125 -5.8125,2.328125 -3.171875,0 -4.84375,-1.84375 -1.65625,-1.84375 -1.671875,-5.453125 V 36.921665 h 3.390625 V 49.74979 q 0,4.515625 3.671875,4.515625 3.890625,0 5.171875,-2.90625 v -14.4375 h 3.40625 V 56.78104 h -3.234375 z m 25.286791,-7.734375 q 0,4.546875 -2.09375,7.3125 -2.093752,2.75 -5.625002,2.75 -3.765625,0 -5.8125,-2.65625 l -0.171875,2.296875 h -3.125 V 28.577915 h 3.40625 v 10.53125 q 2.046875,-2.5625 5.65625,-2.5625 3.624997,0 5.687497,2.734375 2.07813,2.734375 2.07813,7.5 z m -3.40625,-0.390625 q 0,-3.46875 -1.343752,-5.359375 -1.328125,-1.890625 -3.84375,-1.890625 -3.359375,0 -4.828125,3.125 v 8.578125 q 1.5625,3.125 4.859375,3.125 2.4375,0 3.796875,-1.890625 1.359377,-1.890625 1.359377,-5.6875 z m 10.87266,-9.765625 0.0937,2.203125 q 2.1875,-2.578125 5.89063,-2.578125 4.17187,0 5.67187,3.203125 0.98438,-1.4375 2.57813,-2.3125 1.59375,-0.890625 3.75,-0.890625 6.53125,0 6.64062,6.921875 v 13.3125 H 132.843 V 43.671665 q 0,-2.125 -0.96875,-3.171875 -0.96875,-1.0625 -3.26563,-1.0625 -1.89062,0 -3.14062,1.125 -1.25,1.125 -1.45313,3.03125 v 13.1875 h -3.40625 V 43.765415 q 0,-4.328125 -4.25,-4.328125 -3.34375,0 -4.5625,2.84375 v 14.5 h -3.40625 V 36.921665 Z m 42.0121,19.859375 q -0.29687,-0.59375 -0.46875,-2.09375 -2.375,2.453125 -5.65625,2.453125 -2.9375,0 -4.82812,-1.65625 -1.875,-1.65625 -1.875,-4.203125 0,-3.109375 2.35937,-4.828125 2.35938,-1.71875 6.64063,-1.71875 h 3.29687 v -1.5625 q 0,-1.765625 -1.0625,-2.828125 -1.0625,-1.0625 -3.14062,-1.0625 -1.8125,0 -3.04688,0.921875 -1.23437,0.921875 -1.23437,2.21875 h -3.40625 q 0,-1.484375 1.04687,-2.859375 1.0625,-1.390625 2.85938,-2.203125 1.8125,-0.8125 3.98437,-0.8125 3.4375,0 5.375,1.71875 1.95313,1.71875 2.03125,4.734375 v 9.140625 q 0,2.734375 0.6875,4.34375 v 0.296875 z m -5.625,-2.59375 q 1.59375,0 3.01563,-0.8125 1.4375,-0.828125 2.07812,-2.15625 v -4.078125 h -2.65625 q -6.25,0 -6.25,3.65625 0,1.59375 1.0625,2.5 1.07813,0.890625 2.75,0.890625 z m 18.4177,-22.078125 v 4.8125 h 3.71875 v 2.625 h -3.71875 v 12.3125 q 0,1.203125 0.5,1.796875 0.5,0.59375 1.6875,0.59375 0.59375,0 1.625,-0.21875 v 2.75 q -1.34375,0.359375 -2.60938,0.359375 -2.28125,0 -3.4375,-1.375 -1.15625,-1.375 -1.15625,-3.90625 v -12.3125 h -3.60937 v -2.625 h 3.60937 v -4.8125 z m 15.63975,22.265625 q 1.82813,0 3.1875,-1.09375 1.35938,-1.109375 1.5,-2.765625 h 3.21875 q -0.0937,1.71875 -1.1875,3.265625 -1.07812,1.53125 -2.89062,2.453125 -1.79688,0.90625 -3.82813,0.90625 -4.04687,0 -6.45312,-2.703125 -2.39063,-2.703125 -2.39063,-7.40625 v -0.5625 q 0,-2.90625 1.0625,-5.15625 1.0625,-2.265625 3.04688,-3.515625 2,-1.25 4.71875,-1.25 3.34375,0 5.54687,2 2.21875,2 2.375,5.203125 h -3.21875 q -0.14062,-1.921875 -1.45312,-3.15625 -1.3125,-1.25 -3.25,-1.25 -2.57813,0 -4.01563,1.859375 -1.42187,1.859375 -1.42187,5.390625 v 0.640625 q 0,3.4375 1.40625,5.296875 1.42187,1.84375 4.04687,1.84375 z M 197.1687,39.327915 q 2.25,-2.78125 5.875,-2.78125 6.29688,0 6.34375,7.109375 v 13.125 h -3.39062 V 43.640415 q -0.0156,-2.15625 -0.98438,-3.171875 -0.96875,-1.03125 -3,-1.03125 -1.65625,0 -2.90625,0.890625 -1.25,0.875 -1.9375,2.296875 v 14.15625 h -3.40625 V 28.577915 h 3.40625 z m 34.85634,17.8125 q -4.03125,0 -6.57812,-2.640625 -2.53125,-2.65625 -2.53125,-7.09375 v -0.625 q 0,-2.953125 1.125,-5.28125 1.14062,-2.328125 3.15625,-3.640625 2.03125,-1.3125 4.40625,-1.3125 3.875,0 6.01562,2.5625 2.15625,2.546875 2.15625,7.296875 v 1.421875 h -13.45312 q 0.0625,2.9375 1.70312,4.75 1.65625,1.796875 4.1875,1.796875 1.79688,0 3.04688,-0.734375 1.25,-0.734375 2.1875,-1.9375 l 2.0625,1.609375 q -2.48438,3.828125 -7.48438,3.828125 z M 231.60317,39.34354 q -2.0625,0 -3.45313,1.5 -1.39062,1.484375 -1.71875,4.1875 h 9.9375 v -0.25 q -0.14062,-2.59375 -1.39062,-4.015625 -1.25,-1.421875 -3.375,-1.421875 z m 18.76036,4.828125 4.40625,-7.25 h 3.96875 l -6.5,9.8125 6.70312,10.046875 h -3.9375 l -4.59375,-7.4375 -4.57812,7.4375 h -3.95313 l 6.70313,-10.046875 -6.5,-9.8125 h 3.92187 z m 16.56915,-12.0625 v 4.8125 h 3.71875 v 2.625 h -3.71875 v 12.3125 q 0,1.203125 0.5,1.796875 0.5,0.59375 1.6875,0.59375 0.59375,0 1.625,-0.21875 v 2.75 q -1.34375,0.359375 -2.60938,0.359375 -2.28125,0 -3.4375,-1.375 -1.15625,-1.375 -1.15625,-3.90625 v -12.3125 h -3.60937 v -2.625 h 3.60937 v -4.8125 z m 17.28039,7.859375 q -0.76562,-0.125 -1.67187,-0.125 -3.34375,0 -4.53125,2.84375 V 56.78104 H 274.6037 V 36.921665 h 3.3125 l 0.0469,2.296875 q 1.67188,-2.671875 4.75,-2.671875 0.98438,0 1.5,0.265625 z m 14.6428,16.8125 q -0.29688,-0.59375 -0.46875,-2.09375 -2.375,2.453125 -5.65625,2.453125 -2.9375,0 -4.82813,-1.65625 -1.875,-1.65625 -1.875,-4.203125 0,-3.109375 2.35938,-4.828125 2.35937,-1.71875 6.64062,-1.71875 h 3.29688 v -1.5625 q 0,-1.765625 -1.0625,-2.828125 -1.0625,-1.0625 -3.14063,-1.0625 -1.8125,0 -3.04687,0.921875 -1.23438,0.921875 -1.23438,2.21875 h -3.40625 q 0,-1.484375 1.04688,-2.859375 1.0625,-1.390625 2.85937,-2.203125 1.8125,-0.8125 3.98438,-0.8125 3.4375,0 5.375,1.71875 1.95312,1.71875 2.03125,4.734375 v 9.140625 q 0,2.734375 0.6875,4.34375 v 0.296875 z m -5.625,-2.59375 q 1.59375,0 3.01562,-0.8125 1.4375,-0.828125 2.07813,-2.15625 v -4.078125 h -2.65625 q -6.25,0 -6.25,3.65625 0,1.59375 1.0625,2.5 1.07812,0.890625 2.75,0.890625 z m 21.77707,0.1875 q 1.82812,0 3.1875,-1.09375 1.35937,-1.109375 1.5,-2.765625 h 3.21875 q -0.0937,1.71875 -1.1875,3.265625 -1.07813,1.53125 -2.89063,2.453125 -1.79687,0.90625 -3.82812,0.90625 -4.04688,0 -6.45313,-2.703125 -2.39062,-2.703125 -2.39062,-7.40625 v -0.5625 q 0,-2.90625 1.0625,-5.15625 1.0625,-2.265625 3.04687,-3.515625 2,-1.25 4.71875,-1.25 3.34375,0 5.54688,2 2.21875,2 2.375,5.203125 h -3.21875 q -0.14063,-1.921875 -1.45313,-3.15625 -1.3125,-1.25 -3.25,-1.25 -2.57812,0 -4.01562,1.859375 -1.42188,1.859375 -1.42188,5.390625 v 0.640625 q 0,3.4375 1.40625,5.296875 1.42188,1.84375 4.04688,1.84375 z m 16.3186,-22.265625 v 4.8125 h 3.71875 v 2.625 h -3.71875 v 12.3125 q 0,1.203125 0.5,1.796875 0.5,0.59375 1.6875,0.59375 0.59375,0 1.625,-0.21875 v 2.75 q -1.34375,0.359375 -2.60937,0.359375 -2.28125,0 -3.4375,-1.375 -1.15625,-1.375 -1.15625,-3.90625 v -12.3125 h -3.60938 v -2.625 h 3.60938 v -4.8125 z m 11.37412,24.671875 h -3.40625 V 36.921665 h 3.40625 z m -3.67188,-25.125 q 0,-0.828125 0.5,-1.390625 0.5,-0.578125 1.48438,-0.578125 1,0 1.51562,0.578125 0.51563,0.5625 0.51563,1.390625 0,0.828125 -0.51563,1.375 -0.51562,0.546875 -1.51562,0.546875 -0.98438,0 -1.48438,-0.546875 -0.5,-0.546875 -0.5,-1.375 z m 8.20123,15.015625 q 0,-2.921875 1.14063,-5.25 1.15625,-2.34375 3.20312,-3.609375 2.04688,-1.265625 4.67188,-1.265625 4.04687,0 6.54687,2.8125 2.51563,2.8125 2.51563,7.46875 v 0.25 q 0,2.890625 -1.10938,5.203125 -1.10937,2.296875 -3.17187,3.578125 -2.0625,1.28125 -4.75,1.28125 -4.03125,0 -6.54688,-2.796875 -2.5,-2.8125 -2.5,-7.4375 z m 3.40625,0.40625 q 0,3.296875 1.53125,5.296875 1.54688,2 4.10938,2 2.59375,0 4.10937,-2.03125 1.53125,-2.03125 1.53125,-5.671875 0,-3.265625 -1.5625,-5.296875 -1.54687,-2.03125 -4.10937,-2.03125 -2.51563,0 -4.0625,2 -1.54688,2 -1.54688,5.734375 z m 22.14331,-10.15625 0.10938,2.5 q 2.28125,-2.875 5.95312,-2.875 6.29688,0 6.34375,7.109375 v 13.125 H 381.7952 V 43.640415 q -0.0156,-2.15625 -0.98438,-3.171875 -0.96875,-1.03125 -3,-1.03125 -1.65625,0 -2.90625,0.890625 -1.25,0.875 -1.9375,2.296875 v 14.15625 h -3.40625 V 36.921665 Z"
       fill-rule="nonzero"
       id="path9" />
    <path
       fill="#ffffff"
       d="m 235.68079,318.773 v 0 c 0,-2.04391 1.65692,-3.70084 3.70085,-3.70084 h 15.84238 v 0 c 0.98152,0 1.92287,0.3899 2.6169,1.08396 0.69406,0.69403 1.08395,1.63537 1.08395,2.61688 v 14.80301 c 0,2.04394 -1.65692,3.70087 -3.70085,3.70087 h -15.84238 c -2.04393,0 -3.70085,-1.65693 -3.70085,-3.70087 z"
       fill-rule="evenodd"
       id="path11" />
    <path
       stroke="#4285f4"
       stroke-width="2"
       stroke-linejoin="round"
       stroke-linecap="butt"
       d="m 235.68079,318.773 v 0 c 0,-2.04391 1.65692,-3.70084 3.70085,-3.70084 h 15.84238 v 0 c 0.98152,0 1.92287,0.3899 2.6169,1.08396 0.69406,0.69403 1.08395,1.63537 1.08395,2.61688 v 14.80301 c 0,2.04394 -1.65692,3.70087 -3.70085,3.70087 h -15.84238 c -2.04393,0 -3.70085,-1.65693 -3.70085,-3.70087 z"
       fill-rule="evenodd"
       id="path13" />
    <path
       fill="#4285f4"
       d="m 251.62692,328.032 v -3.14063 q 0,-1.26562 -0.3125,-2.25 -0.29688,-0.98437 -0.84375,-1.65625 -0.5625,-0.65625 -1.35938,-1 -0.79687,-0.34375 -1.79687,-0.34375 -1.01563,0 -1.8125,0.34375 -0.79688,0.34375 -1.34375,1 -0.5625,0.67188 -0.85938,1.65625 -0.29687,0.98438 -0.29687,2.25 v 3.14063 q 0,1.28125 0.29687,2.26562 0.29688,0.96875 0.85938,1.625 0.5625,0.6875 1.35937,1.03125 0.8125,0.32813 1.8125,0.32813 1,0 1.79688,-0.32813 0.79687,-0.34375 1.34375,-1.03125 0.5625,-0.65625 0.85937,-1.625 0.29688,-0.98437 0.29688,-2.26562 z m -6.4375,-0.76563 q 0,-0.26562 0,-0.4375 0,-0.1875 0,-0.54687 v -1.78125 q 0,-0.8125 0.14062,-1.42188 0.15625,-0.60937 0.45313,-0.98437 0.26562,-0.34375 0.64062,-0.51563 0.375,-0.17187 0.89063,-0.17187 0.45312,0 0.82812,0.15625 0.375,0.14062 0.625,0.42187 0.28125,0.32813 0.4375,0.85938 0.17188,0.51562 0.20313,1.21875 z m 4.23437,1.14063 q 0,0.82812 -0.15625,1.45312 -0.14062,0.625 -0.4375,1 -0.26562,0.32813 -0.64062,0.5 -0.375,0.17188 -0.85938,0.17188 -0.5,0 -0.89062,-0.17188 -0.375,-0.17187 -0.625,-0.53125 -0.25,-0.3125 -0.40625,-0.79687 -0.15625,-0.48438 -0.20313,-1.10938 l 4.21875,-3.17187 q 0,0.25 0,0.5 0,0.25 0,0.46875 z"
       fill-rule="nonzero"
       id="path15" />
    <path
       fill="#ffffff"
       d="m 291.67947,289.962 v 0 c 0,-2.04395 1.65692,-3.70087 3.70087,-3.70087 h 15.84234 v 0 c 0.98154,0 1.92288,0.38993 2.61692,1.08396 0.69406,0.69406 1.08395,1.63537 1.08395,2.61691 v 14.80301 c 0,2.04391 -1.65692,3.70084 -3.70087,3.70084 h -15.84234 c -2.04395,0 -3.70087,-1.65693 -3.70087,-3.70084 z"
       fill-rule="evenodd"
       id="path17" />
    <path
       stroke="#4285f4"
       stroke-width="2"
       stroke-linejoin="round"
       stroke-linecap="butt"
       d="m 291.67947,289.962 v 0 c 0,-2.04395 1.65692,-3.70087 3.70087,-3.70087 h 15.84234 v 0 c 0.98154,0 1.92288,0.38993 2.61692,1.08396 0.69406,0.69406 1.08395,1.63537 1.08395,2.61691 v 14.80301 c 0,2.04391 -1.65692,3.70084 -3.70087,3.70084 h -15.84234 c -2.04395,0 -3.70087,-1.65693 -3.70087,-3.70084 z"
       fill-rule="evenodd"
       id="path19" />
    <path
       fill="#4285f4"
       d="m 305.01624,304.2835 v -13.26563 h -0.14063 l -5.45312,2.03125 v 1.92188 l 3.39062,-1.25 v 10.5625 z"
       fill-rule="nonzero"
       id="path21" />
    <path
       fill="#ffffff"
       d="m 323.96817,238.04993 v 0 c 0,-2.04393 1.65695,-3.70087 3.70087,-3.70087 h 15.84237 v 0 c 0.98154,0 1.92286,0.38993 2.61692,1.08397 0.69403,0.69405 1.08395,1.63536 1.08395,2.6169 v 14.80301 c 0,2.04391 -1.65692,3.70087 -3.70087,3.70087 h -15.84237 c -2.04392,0 -3.70087,-1.65696 -3.70087,-3.70087 z"
       fill-rule="evenodd"
       id="path23" />
    <path
       stroke="#4285f4"
       stroke-width="2"
       stroke-linejoin="round"
       stroke-linecap="butt"
       d="m 323.96817,238.04993 v 0 c 0,-2.04393 1.65695,-3.70087 3.70087,-3.70087 h 15.84237 v 0 c 0.98154,0 1.92286,0.38993 2.61692,1.08397 0.69403,0.69405 1.08395,1.63536 1.08395,2.6169 v 14.80301 c 0,2.04391 -1.65692,3.70087 -3.70087,3.70087 h -15.84237 c -2.04392,0 -3.70087,-1.65696 -3.70087,-3.70087 z"
       fill-rule="evenodd"
       id="path25" />
    <path
       fill="#4285f4"
       d="m 339.8518,252.37143 v -1.76563 h -6.17187 l 2.9375,-3.14062 q 0.59375,-0.625 1.07812,-1.20313 0.5,-0.59375 0.875,-1.15625 0.34375,-0.57812 0.54688,-1.15625 0.21875,-0.59375 0.21875,-1.21875 0,-0.84375 -0.28125,-1.53125 -0.26563,-0.70312 -0.79688,-1.20312 -0.51562,-0.5 -1.29687,-0.78125 -0.76563,-0.29688 -1.73438,-0.29688 -1.04687,0 -1.89062,0.34375 -0.84375,0.34375 -1.42188,0.90625 -0.59375,0.57813 -0.92187,1.35938 -0.3125,0.76562 -0.3125,1.625 h 2.1875 q 0,-0.57813 0.14062,-1.01563 0.15625,-0.45312 0.45313,-0.78125 0.28125,-0.29687 0.70312,-0.45312 0.42188,-0.17188 1.01563,-0.17188 0.45312,0 0.8125,0.15625 0.375,0.15625 0.64062,0.42188 0.26563,0.28125 0.39063,0.67187 0.14062,0.375 0.14062,0.82813 0,0.35937 -0.0937,0.70312 -0.0937,0.32813 -0.3125,0.71875 -0.21875,0.39063 -0.59375,0.85938 -0.35937,0.46875 -0.89062,1.0625 l -4.32813,4.70312 v 1.51563 z"
       fill-rule="nonzero"
       id="path27" />
    <path
       fill="#ffffff"
       d="m 387.59155,238.34126 v 0 c 0,-2.04393 1.65692,-3.70085 3.70084,-3.70085 h 15.84237 v 0 c 0.98154,0 1.92289,0.38991 2.61692,1.08395 0.69406,0.69405 1.08395,1.63538 1.08395,2.6169 v 14.80301 c 0,2.04393 -1.65692,3.70085 -3.70087,3.70085 h -15.84237 c -2.04392,0 -3.70084,-1.65692 -3.70084,-3.70085 z"
       fill-rule="evenodd"
       id="path29" />
    <path
       stroke="#4285f4"
       stroke-width="2"
       stroke-linejoin="round"
       stroke-linecap="butt"
       d="m 387.59155,238.34126 v 0 c 0,-2.04393 1.65692,-3.70085 3.70084,-3.70085 h 15.84237 v 0 c 0.98154,0 1.92289,0.38991 2.61692,1.08395 0.69406,0.69405 1.08395,1.63538 1.08395,2.6169 v 14.80301 c 0,2.04393 -1.65692,3.70085 -3.70087,3.70085 h -15.84237 c -2.04392,0 -3.70084,-1.65692 -3.70084,-3.70085 z"
       fill-rule="evenodd"
       id="path31" />
    <path
       fill="#4285f4"
       d="m 397.33456,245.05339 v 1.70312 h 1.29687 q 0.5625,0 1.01563,0.14063 0.46875,0.125 0.79687,0.39062 0.32813,0.28125 0.5,0.6875 0.17188,0.40625 0.17188,0.98438 0,0.5 -0.15625,0.90625 -0.14063,0.39062 -0.42188,0.65625 -0.29687,0.28125 -0.71875,0.42187 -0.42187,0.14063 -0.95312,0.14063 -0.48438,0 -0.89063,-0.14063 -0.40625,-0.15625 -0.70312,-0.40625 -0.29688,-0.26562 -0.45313,-0.625 -0.15625,-0.375 -0.15625,-0.8125 h -2.1875 q 0,0.9375 0.35938,1.64063 0.35937,0.6875 0.96875,1.15625 0.59375,0.46875 1.39062,0.71875 0.79688,0.23437 1.65625,0.23437 0.9375,0 1.75,-0.26562 0.82813,-0.26563 1.42188,-0.76563 0.59375,-0.48437 0.9375,-1.20312 0.34375,-0.73438 0.34375,-1.65625 0,-0.5 -0.125,-0.96875 -0.10938,-0.46875 -0.375,-0.89063 -0.26563,-0.39062 -0.6875,-0.71875 -0.40625,-0.32812 -1,-0.53125 0.5,-0.21875 0.875,-0.54687 0.375,-0.32813 0.60937,-0.70313 0.25,-0.375 0.375,-0.78125 0.125,-0.42187 0.125,-0.82812 0,-0.9375 -0.3125,-1.625 -0.3125,-0.70313 -0.875,-1.1875 -0.54687,-0.48438 -1.34375,-0.71875 -0.78125,-0.25 -1.71875,-0.25 -0.92187,0 -1.70312,0.28125 -0.76563,0.26562 -1.32813,0.75 -0.5625,0.5 -0.89062,1.17187 -0.3125,0.65625 -0.3125,1.45313 h 2.17187 q 0,-0.4375 0.15625,-0.78125 0.17188,-0.34375 0.45313,-0.59375 0.26562,-0.25 0.64062,-0.375 0.39063,-0.125 0.82813,-0.125 0.5,0 0.89062,0.14062 0.39063,0.125 0.64063,0.375 0.26562,0.26563 0.39062,0.64063 0.14063,0.375 0.14063,0.84375 0,0.4375 -0.15625,0.8125 -0.14063,0.375 -0.39063,0.64062 -0.28125,0.28125 -0.71875,0.45313 -0.4375,0.15625 -1.03125,0.15625 z"
       fill-rule="nonzero"
       id="path33" />
    <path
       fill="#ffffff"
       d="m 421.1703,289.962 v 0 c 0,-2.04395 1.65692,-3.70087 3.70087,-3.70087 h 15.84234 v 0 c 0.98154,0 1.92288,0.38993 2.61692,1.08396 0.69406,0.69406 1.08395,1.63537 1.08395,2.61691 v 14.80301 c 0,2.04391 -1.65692,3.70084 -3.70087,3.70084 h -15.84234 c -2.04395,0 -3.70087,-1.65693 -3.70087,-3.70084 z"
       fill-rule="evenodd"
       id="path35" />
    <path
       stroke="#4285f4"
       stroke-width="2"
       stroke-linejoin="round"
       stroke-linecap="butt"
       d="m 421.1703,289.962 v 0 c 0,-2.04395 1.65692,-3.70087 3.70087,-3.70087 h 15.84234 v 0 c 0.98154,0 1.92288,0.38993 2.61692,1.08396 0.69406,0.69406 1.08395,1.63537 1.08395,2.61691 v 14.80301 c 0,2.04391 -1.65692,3.70084 -3.70087,3.70084 h -15.84234 c -2.04395,0 -3.70087,-1.65693 -3.70087,-3.70084 z"
       fill-rule="evenodd"
       id="path37" />
    <path
       fill="#4285f4"
       d="m 435.77267,299.54913 v -8.53125 h -2.25 l -5.73438,8.96875 0.0625,1.34375 h 5.73438 v 2.95312 h 2.1875 v -2.95312 h 1.65625 v -1.78125 z m -5.75,0 3.3125,-5.14063 0.25,-0.46875 v 5.60938 z"
       fill-rule="nonzero"
       id="path39" />
    <path
       fill="#ffffff"
       d="m 465.31235,334.77435 v 0 c 0,-2.04395 1.65692,-3.70087 3.70084,-3.70087 h 15.84237 v 0 c 0.98154,0 1.92285,0.38993 2.61692,1.08396 0.69403,0.69406 1.08395,1.63537 1.08395,2.61691 v 14.80301 c 0,2.04391 -1.65692,3.70087 -3.70087,3.70087 h -15.84237 c -2.04392,0 -3.70084,-1.65696 -3.70084,-3.70087 z"
       fill-rule="evenodd"
       id="path41" />
    <path
       stroke="#4285f4"
       stroke-width="2"
       stroke-linejoin="round"
       stroke-linecap="butt"
       d="m 465.31235,334.77435 v 0 c 0,-2.04395 1.65692,-3.70087 3.70084,-3.70087 h 15.84237 v 0 c 0.98154,0 1.92285,0.38993 2.61692,1.08396 0.69403,0.69406 1.08395,1.63537 1.08395,2.61691 v 14.80301 c 0,2.04391 -1.65692,3.70087 -3.70087,3.70087 h -15.84237 c -2.04392,0 -3.70084,-1.65696 -3.70084,-3.70087 z"
       fill-rule="evenodd"
       id="path43" />
    <path
       fill="#4285f4"
       d="m 474.50848,347.29898 h -0.17187 v 1.85937 h 0.1875 q 1.71875,0 2.92187,-0.5 1.21875,-0.5 1.96875,-1.375 0.92188,-1.0625 1.28125,-2.48437 0.375,-1.42188 0.375,-2.98438 v -0.76562 q 0,-1.14063 -0.3125,-2.17188 -0.29687,-1.04687 -0.875,-1.76562 -0.5625,-0.67188 -1.35937,-1.0625 -0.79688,-0.40625 -1.82813,-0.40625 -1.01562,0 -1.8125,0.375 -0.79687,0.375 -1.34375,1 -0.54687,0.64062 -0.84375,1.48437 -0.28125,0.84375 -0.28125,1.79688 0,0.875 0.23438,1.6875 0.25,0.79687 0.73437,1.42187 0.46875,0.60938 1.17188,0.96875 0.71875,0.35938 1.6875,0.35938 0.48437,0 0.875,-0.0781 0.39062,-0.0937 0.71875,-0.25 0.3125,-0.15625 0.5625,-0.34375 0.26562,-0.20312 0.46875,-0.42187 v 0.0469 q -0.0781,0.76563 -0.32813,1.4375 -0.25,0.67188 -0.79687,1.1875 -0.51563,0.46875 -1.3125,0.73438 -0.78125,0.25 -1.92188,0.25 z m 2.20313,-4.28125 q -0.54688,0 -0.95313,-0.23438 -0.39062,-0.23437 -0.65625,-0.60937 -0.26562,-0.39063 -0.39062,-0.89063 -0.125,-0.5 -0.125,-1.04687 0,-0.5625 0.14062,-1.07813 0.14063,-0.51562 0.40625,-0.90625 0.26563,-0.375 0.65625,-0.59375 0.40625,-0.23437 0.90625,-0.23437 0.46875,0 0.85938,0.21875 0.40625,0.21875 0.70312,0.625 0.29688,0.40625 0.46875,1.01562 0.17188,0.60938 0.17188,1.40625 v 0.75 q -0.125,0.34375 -0.34375,0.64063 -0.21875,0.28125 -0.5,0.48437 -0.28125,0.21875 -0.625,0.34375 -0.34375,0.10938 -0.71875,0.10938 z"
       fill-rule="nonzero"
       id="path45" />
    <path
       fill="#ffffff"
       d="m 566.65094,334.77304 v 0 c 0,-2.04395 1.65692,-3.70087 3.70087,-3.70087 h 30.26751 c 0.98157,0 1.92292,0.38993 2.61695,1.08396 0.69403,0.69406 1.08392,1.63537 1.08392,2.61691 v 14.80301 c 0,2.04391 -1.65692,3.70087 -3.70087,3.70087 h -30.26751 c -2.04395,0 -3.70087,-1.65696 -3.70087,-3.70087 z"
       fill-rule="evenodd"
       id="path47" />
    <path
       stroke="#4285f4"
       stroke-width="2"
       stroke-linejoin="round"
       stroke-linecap="butt"
       d="m 566.65094,334.77304 v 0 c 0,-2.04395 1.65692,-3.70087 3.70087,-3.70087 h 30.26751 c 0.98157,0 1.92292,0.38993 2.61695,1.08396 0.69403,0.69406 1.08392,1.63537 1.08392,2.61691 v 14.80301 c 0,2.04391 -1.65692,3.70087 -3.70087,3.70087 h -30.26751 c -2.04395,0 -3.70087,-1.65696 -3.70087,-3.70087 z"
       fill-rule="evenodd"
       id="path49" />
    <path
       fill="#4285f4"
       d="m 581.6025,349.09454 v -13.26563 h -0.14063 l -5.45312,2.03125 v 1.92188 l 3.39062,-1.25 v 10.5625 z m 13.80493,-5.0625 v -3.14063 q 0,-1.26562 -0.3125,-2.25 -0.29687,-0.98437 -0.84375,-1.65625 -0.5625,-0.65625 -1.35937,-1 -0.79688,-0.34375 -1.79688,-0.34375 -1.01562,0 -1.8125,0.34375 -0.79687,0.34375 -1.34375,1 -0.5625,0.67188 -0.85937,1.65625 -0.29688,0.98438 -0.29688,2.25 v 3.14063 q 0,1.28125 0.29688,2.26562 0.29687,0.96875 0.85937,1.625 0.5625,0.6875 1.35938,1.03125 0.8125,0.32813 1.8125,0.32813 1,0 1.79687,-0.32813 0.79688,-0.34375 1.34375,-1.03125 0.5625,-0.65625 0.85938,-1.625 0.29687,-0.98437 0.29687,-2.26562 z m -6.4375,-0.76563 q 0,-0.26562 0,-0.4375 0,-0.1875 0,-0.54687 v -1.78125 q 0,-0.8125 0.14063,-1.42188 0.15625,-0.60937 0.45312,-0.98437 0.26563,-0.34375 0.64063,-0.51563 0.375,-0.17187 0.89062,-0.17187 0.45313,0 0.82813,0.15625 0.375,0.14062 0.625,0.42187 0.28125,0.32813 0.4375,0.85938 0.17187,0.51562 0.20312,1.21875 z m 4.23438,1.14063 q 0,0.82812 -0.15625,1.45312 -0.14063,0.625 -0.4375,1 -0.26563,0.32813 -0.64063,0.5 -0.375,0.17188 -0.85937,0.17188 -0.5,0 -0.89063,-0.17188 -0.375,-0.17187 -0.625,-0.53125 -0.25,-0.3125 -0.40625,-0.79687 -0.15625,-0.48438 -0.20312,-1.10938 l 4.21875,-3.17187 q 0,0.25 0,0.5 0,0.25 0,0.46875 z"
       fill-rule="nonzero"
       id="path51" />
    <path
       fill="#ffffff"
       d="m 533.4485,238.04993 v 0 c 0,-2.04393 1.65692,-3.70087 3.70087,-3.70087 h 15.8424 v 0 c 0.98151,0 1.92286,0.38993 2.61689,1.08397 0.69403,0.69405 1.08392,1.63536 1.08392,2.6169 v 14.80301 c 0,2.04391 -1.65692,3.70087 -3.70081,3.70087 h -15.8424 c -2.04395,0 -3.70087,-1.65696 -3.70087,-3.70087 z"
       fill-rule="evenodd"
       id="path53" />
    <path
       stroke="#4285f4"
       stroke-width="2"
       stroke-linejoin="round"
       stroke-linecap="butt"
       d="m 533.4485,238.04993 v 0 c 0,-2.04393 1.65692,-3.70087 3.70087,-3.70087 h 15.8424 v 0 c 0.98151,0 1.92286,0.38993 2.61689,1.08397 0.69403,0.69405 1.08392,1.63536 1.08392,2.6169 v 14.80301 c 0,2.04391 -1.65692,3.70087 -3.70081,3.70087 h -15.8424 c -2.04395,0 -3.70087,-1.65696 -3.70087,-3.70087 z"
       fill-rule="evenodd"
       id="path55" />
    <path
       fill="#4285f4"
       d="m 541.20715,245.7933 1.75,0.42187 q 0.17187,-0.15625 0.35937,-0.29687 0.1875,-0.14063 0.40625,-0.25 0.21875,-0.10938 0.5,-0.17188 0.29688,-0.0625 0.6875,-0.0625 0.59375,0 1.03125,0.20313 0.45313,0.1875 0.75,0.54687 0.3125,0.35938 0.45313,0.84375 0.15625,0.46875 0.15625,1.04688 0,0.59375 -0.14063,1.09375 -0.125,0.5 -0.375,0.85937 -0.26562,0.35938 -0.67187,0.5625 -0.40625,0.20313 -0.95313,0.20313 -0.92187,0 -1.51562,-0.51563 -0.59375,-0.51562 -0.71875,-1.5 h -2.125 q 0.0625,0.92188 0.4375,1.64063 0.375,0.70312 0.96875,1.17187 0.59375,0.48438 1.35937,0.73438 0.76563,0.23437 1.59375,0.23437 1.10938,0 1.92188,-0.34375 0.8125,-0.35937 1.34375,-0.95312 0.53125,-0.60938 0.78125,-1.40625 0.26562,-0.8125 0.26562,-1.71875 0,-1.03125 -0.28125,-1.85938 -0.26562,-0.82812 -0.76562,-1.40625 -0.53125,-0.57812 -1.28125,-0.875 -0.73438,-0.3125 -1.67188,-0.3125 -0.6875,0 -1.21875,0.17188 -0.53125,0.17187 -0.85937,0.35937 l 0.34375,-3.17187 h 5.3125 v -1.9375 h -7.125 z"
       fill-rule="nonzero"
       id="path57" />
    <path
       fill="#ffffff"
       d="m 597.07184,238.34126 v 0 c 0,-2.04393 1.65692,-3.70085 3.70087,-3.70085 h 15.8424 v 0 c 0.98151,0 1.92286,0.38991 2.61689,1.08395 0.69403,0.69405 1.08398,1.63538 1.08398,2.6169 v 14.80301 c 0,2.04393 -1.65698,3.70085 -3.70087,3.70085 h -15.8424 c -2.04395,0 -3.70087,-1.65692 -3.70087,-3.70085 z"
       fill-rule="evenodd"
       id="path59" />
    <path
       stroke="#4285f4"
       stroke-width="2"
       stroke-linejoin="round"
       stroke-linecap="butt"
       d="m 597.07184,238.34126 v 0 c 0,-2.04393 1.65692,-3.70085 3.70087,-3.70085 h 15.8424 v 0 c 0.98151,0 1.92286,0.38991 2.61689,1.08395 0.69403,0.69405 1.08398,1.63538 1.08398,2.6169 v 14.80301 c 0,2.04393 -1.65698,3.70085 -3.70087,3.70085 h -15.8424 c -2.04395,0 -3.70087,-1.65692 -3.70087,-3.70085 z"
       fill-rule="evenodd"
       id="path61" />
    <path
       fill="#4285f4"
       d="m 611.018,239.33464 h -0.26562 q -1.54688,0 -2.75,0.48437 -1.20313,0.48438 -2.01563,1.39063 -0.96875,1.04687 -1.39062,2.5 -0.40625,1.45312 -0.40625,3.04687 v 0.90625 q 0,1.0625 0.3125,2.03125 0.3125,0.95313 0.90625,1.67188 0.5625,0.67187 1.375,1.07812 0.82812,0.40625 1.875,0.40625 1.03125,0 1.82812,-0.34375 0.79688,-0.35937 1.34375,-0.98437 0.54688,-0.60938 0.82813,-1.42188 0.29687,-0.82812 0.29687,-1.78125 0,-0.85937 -0.23437,-1.65625 -0.21875,-0.8125 -0.6875,-1.4375 -0.46875,-0.60937 -1.1875,-0.96875 -0.70313,-0.375 -1.67188,-0.375 -0.45312,0 -0.875,0.10938 -0.40625,0.0937 -0.73437,0.26562 -0.35938,0.1875 -0.65625,0.42188 -0.28125,0.23437 -0.5,0.48437 0.0625,-0.85937 0.35937,-1.59375 0.3125,-0.73437 0.875,-1.26562 0.54688,-0.53125 1.34375,-0.82813 0.79688,-0.29687 1.875,-0.29687 h 0.15625 z m -2.39062,6.3125 q 0.53125,0 0.9375,0.21875 0.40625,0.20312 0.6875,0.57812 0.26562,0.375 0.40625,0.875 0.14062,0.5 0.14062,1.04688 0,0.59375 -0.14062,1.09375 -0.14063,0.48437 -0.4375,0.85937 -0.28125,0.34375 -0.6875,0.5625 -0.39063,0.20313 -0.90625,0.20313 -0.45313,0 -0.875,-0.20313 -0.40625,-0.21875 -0.71875,-0.625 -0.29688,-0.40625 -0.48438,-1 -0.17187,-0.60937 -0.17187,-1.39062 v -0.67188 q 0.14062,-0.34375 0.35937,-0.60937 0.21875,-0.28125 0.5,-0.48438 0.29688,-0.21875 0.64063,-0.32812 0.35937,-0.125 0.75,-0.125 z"
       fill-rule="nonzero"
       id="path63" />
    <path
       fill="#ffffff"
       d="m 630.6506,289.962 v 0 c 0,-2.04395 1.65698,-3.70087 3.70087,-3.70087 h 15.8424 v 0 c 0.98151,0 1.92286,0.38993 2.61689,1.08396 0.69403,0.69406 1.08398,1.63537 1.08398,2.61691 v 14.80301 c 0,2.04391 -1.65698,3.70084 -3.70087,3.70084 h -15.8424 c -2.04389,0 -3.70087,-1.65693 -3.70087,-3.70084 z"
       fill-rule="evenodd"
       id="path65" />
    <path
       stroke="#4285f4"
       stroke-width="2"
       stroke-linejoin="round"
       stroke-linecap="butt"
       d="m 630.6506,289.962 v 0 c 0,-2.04395 1.65698,-3.70087 3.70087,-3.70087 h 15.8424 v 0 c 0.98151,0 1.92286,0.38993 2.61689,1.08396 0.69403,0.69406 1.08398,1.63537 1.08398,2.61691 v 14.80301 c 0,2.04391 -1.65698,3.70084 -3.70087,3.70084 h -15.8424 c -2.04389,0 -3.70087,-1.65693 -3.70087,-3.70084 z"
       fill-rule="evenodd"
       id="path67" />
    <path
       fill="#4285f4"
       d="m 646.6436,292.23663 v -1.21875 h -9.17188 v 1.82812 h 6.875 l -5.29687,11.4375 h 2.29687 z"
       fill-rule="nonzero"
       id="path69" />
    <path
       fill="#000000"
       fill-opacity="0"
       d="m 355.7792,190.42393 v 0 c 0,-2.04391 1.65692,-3.70085 3.70087,-3.70085 h 15.84237 v 0 c 0.98151,0 1.92286,0.38991 2.61689,1.08395 0.69406,0.69405 1.08395,1.63538 1.08395,2.6169 v 14.80301 c 0,2.04393 -1.65692,3.70087 -3.70084,3.70087 h -15.84237 c -2.04395,0 -3.70087,-1.65694 -3.70087,-3.70087 z"
       fill-rule="evenodd"
       id="path71" />
    <path
       fill="#1c4587"
       d="m 365.62195,205.22856 q -0.875,0 -1.53125,-0.42188 -0.65625,-0.42187 -1.01562,-1.23437 -0.35938,-0.82813 -0.35938,-2.01563 0,-1.1875 0.25,-2.28125 0.25,-1.09375 0.70313,-2.03125 0.46875,-0.9375 1.10937,-1.64062 0.65625,-0.70313 1.45313,-1.09375 0.8125,-0.39063 1.75,-0.39063 0.73437,0 1.26562,0.28125 0.53125,0.26563 0.875,0.71875 0.35938,0.4375 0.57813,0.9375 h 0.0937 l 0.625,-1.73437 h 1.23437 l -2.26562,10.70312 h -1.29688 l 0.29688,-2.07812 h -0.0781 q -0.4375,0.59375 -1.01562,1.10937 -0.5625,0.51563 -1.23438,0.84375 -0.67187,0.32813 -1.4375,0.32813 z m 0.51563,-1.35938 q 0.75,0 1.48437,-0.54687 0.75,-0.54688 1.32813,-1.48438 0.59375,-0.95312 0.90625,-2.14062 0.15625,-0.57813 0.20312,-1.04688 0.0625,-0.48437 0.0625,-0.90625 0,-1.01562 -0.53125,-1.625 -0.53125,-0.625 -1.45312,-0.625 -0.64063,0 -1.21875,0.32813 -0.57813,0.32812 -1.04688,0.90625 -0.46875,0.57812 -0.79687,1.34375 -0.32813,0.76562 -0.51563,1.67187 -0.17187,0.89063 -0.17187,1.84375 0,1.125 0.45312,1.70313 0.46875,0.57812 1.29688,0.57812 z"
       fill-rule="nonzero"
       id="path73" />
    <path
       fill="#000000"
       fill-opacity="0"
       d="m 562.05743,190.42393 v 0 c 0,-2.04391 1.65692,-3.70085 3.70087,-3.70085 h 15.84234 v 0 c 0.98151,0 1.92285,0.38991 2.61689,1.08395 0.69409,0.69405 1.08398,1.63538 1.08398,2.6169 v 14.80301 c 0,2.04393 -1.65692,3.70087 -3.70087,3.70087 H 565.7583 c -2.04395,0 -3.70087,-1.65694 -3.70087,-3.70087 z"
       fill-rule="evenodd"
       id="path75" />
    <path
       fill="#1c4587"
       d="m 573.2156,205.22856 q -0.75,0 -1.3125,-0.26563 -0.54688,-0.28125 -0.90625,-0.71875 -0.35938,-0.4375 -0.5625,-0.95312 h -0.0937 l -0.64063,1.73437 h -1.23437 l 3.23437,-15.20312 h 1.60938 l -0.78125,3.67187 q -0.125,0.65625 -0.28125,1.29688 -0.15625,0.64062 -0.28125,1.09375 -0.125,0.4375 -0.17188,0.51562 h 0.0781 q 0.46875,-0.59375 1.01562,-1.10937 0.54688,-0.51563 1.1875,-0.82813 0.65625,-0.3125 1.42188,-0.3125 0.90625,0 1.5625,0.42188 0.67187,0.40625 1.03125,1.21875 0.375,0.8125 0.375,2 0,1.15625 -0.23438,2.25 -0.23437,1.09375 -0.67187,2.03125 -0.4375,0.9375 -1.07813,1.64062 -0.625,0.70313 -1.45312,1.10938 -0.82813,0.40625 -1.8125,0.40625 z m -0.10938,-1.35938 q 0.67188,0 1.23438,-0.34375 0.57812,-0.34375 1.03125,-0.92187 0.46875,-0.59375 0.78125,-1.375 0.3125,-0.78125 0.46875,-1.65625 0.17187,-0.89063 0.17187,-1.79688 0,-1.125 -0.45312,-1.70312 -0.45313,-0.57813 -1.34375,-0.57813 -0.46875,0 -0.95313,0.23438 -0.48437,0.21875 -0.9375,0.64062 -0.45312,0.42188 -0.84375,1 -0.375,0.5625 -0.67187,1.25 -0.28125,0.67188 -0.45313,1.4375 -0.15625,0.76563 -0.15625,1.54688 0,1.03125 0.51563,1.65625 0.53125,0.60937 1.60937,0.60937 z"
       fill-rule="nonzero"
       id="path77" />
    <path
       fill="#c9daf8"
       d="m 686.65106,318.77304 v 0 c 0,-2.04395 1.65698,-3.70087 3.70087,-3.70087 h 30.26757 c 0.98157,0 1.92286,0.38993 2.61695,1.08396 0.69403,0.69406 1.08392,1.63537 1.08392,2.61691 v 14.80301 c 0,2.04391 -1.65692,3.70087 -3.70087,3.70087 h -30.26757 c -2.04389,0 -3.70087,-1.65696 -3.70087,-3.70087 z"
       fill-rule="evenodd"
       id="path79" />
    <path
       stroke="#4285f4"
       stroke-width="2"
       stroke-linejoin="round"
       stroke-linecap="butt"
       d="m 686.65106,318.77304 v 0 c 0,-2.04395 1.65698,-3.70087 3.70087,-3.70087 h 30.26757 c 0.98157,0 1.92286,0.38993 2.61695,1.08396 0.69403,0.69406 1.08392,1.63537 1.08392,2.61691 v 14.80301 c 0,2.04391 -1.65692,3.70087 -3.70087,3.70087 h -30.26757 c -2.04389,0 -3.70087,-1.65696 -3.70087,-3.70087 z"
       fill-rule="evenodd"
       id="path81" />
    <path
       fill="#4285f4"
       d="m 701.60266,333.09454 v -13.26563 h -0.14062 l -5.45313,2.03125 v 1.92188 l 3.39063,-1.25 v 10.5625 z m 11.19556,0 v -13.26563 h -0.14063 l -5.45312,2.03125 v 1.92188 l 3.39062,-1.25 v 10.5625 z"
       fill-rule="nonzero"
       id="path83" />
    <path
       fill="#ffffff"
       d="m 355.67947,334.773 v 0 c 0,-2.04391 1.65692,-3.70084 3.70087,-3.70084 h 15.84234 v 0 c 0.98154,0 1.92288,0.3899 2.61692,1.08396 0.69406,0.69403 1.08395,1.63537 1.08395,2.61688 v 14.80301 c 0,2.04394 -1.65692,3.70087 -3.70087,3.70087 h -15.84234 c -2.04395,0 -3.70087,-1.65693 -3.70087,-3.70087 z"
       fill-rule="evenodd"
       id="path85" />
    <path
       stroke="#4285f4"
       stroke-width="2"
       stroke-linejoin="round"
       stroke-linecap="butt"
       d="m 355.67947,334.773 v 0 c 0,-2.04391 1.65692,-3.70084 3.70087,-3.70084 h 15.84234 v 0 c 0.98154,0 1.92288,0.3899 2.61692,1.08396 0.69406,0.69403 1.08395,1.63537 1.08395,2.61688 v 14.80301 c 0,2.04394 -1.65692,3.70087 -3.70087,3.70087 h -15.84234 c -2.04395,0 -3.70087,-1.65693 -3.70087,-3.70087 z"
       fill-rule="evenodd"
       id="path87" />
    <path
       fill="#4285f4"
       d="m 371.3756,339.3289 q 0,-0.89063 -0.3125,-1.57813 -0.3125,-0.6875 -0.84375,-1.14062 -0.5625,-0.48438 -1.3125,-0.71875 -0.73437,-0.25 -1.60937,-0.25 -0.89063,0 -1.64063,0.25 -0.73437,0.23437 -1.25,0.71875 -0.54687,0.46875 -0.85937,1.15625 -0.29688,0.67187 -0.29688,1.5625 0,0.48437 0.14063,0.9375 0.14062,0.45312 0.375,0.82812 0.25,0.35938 0.57812,0.65625 0.34375,0.29688 0.76563,0.51563 -0.48438,0.21875 -0.89063,0.54687 -0.39062,0.32813 -0.67187,0.71875 -0.28125,0.42188 -0.4375,0.92188 -0.15625,0.48437 -0.15625,1.03125 0,0.9375 0.32812,1.64062 0.34375,0.70313 0.9375,1.17188 0.57813,0.48437 1.375,0.73437 0.79688,0.25 1.73438,0.25 0.90625,0 1.6875,-0.25 0.79687,-0.25 1.39062,-0.73437 0.57813,-0.46875 0.90625,-1.17188 0.34375,-0.71875 0.34375,-1.64062 0,-0.64063 -0.21875,-1.1875 -0.20312,-0.5625 -0.5625,-1 -0.26562,-0.32813 -0.625,-0.57813 -0.34375,-0.25 -0.76562,-0.45312 0.35937,-0.17188 0.64062,-0.39063 0.28125,-0.23437 0.5,-0.5 0.35938,-0.40625 0.54688,-0.92187 0.20312,-0.53125 0.20312,-1.125 z m -1.89062,6.04687 q 0,0.5 -0.17188,0.90625 -0.15625,0.39063 -0.4375,0.67188 -0.28125,0.26562 -0.6875,0.42187 -0.39062,0.14063 -0.85937,0.14063 -0.5,0 -0.90625,-0.14063 -0.39063,-0.14062 -0.67188,-0.40625 -0.29687,-0.26562 -0.45312,-0.67187 -0.15625,-0.40625 -0.15625,-0.92188 0,-0.5 0.15625,-0.90625 0.15625,-0.40625 0.4375,-0.70312 0.28125,-0.28125 0.67187,-0.4375 0.39063,-0.15625 0.90625,-0.15625 0.46875,0 0.875,0.15625 0.40625,0.15625 0.6875,0.4375 0.28125,0.29687 0.4375,0.70312 0.17188,0.40625 0.17188,0.90625 z m -0.28125,-5.96875 q 0,0.45313 -0.14063,0.82813 -0.14062,0.35937 -0.375,0.60937 -0.25,0.26563 -0.59375,0.42188 -0.34375,0.14062 -0.78125,0.14062 -0.42187,0 -0.78125,-0.14062 -0.34375,-0.15625 -0.57812,-0.42188 -0.26563,-0.25 -0.39063,-0.60937 -0.125,-0.375 -0.125,-0.82813 0,-0.45312 0.125,-0.82812 0.125,-0.375 0.375,-0.625 0.23438,-0.25 0.57813,-0.39063 0.34375,-0.14062 0.76562,-0.14062 0.4375,0 0.78125,0.14062 0.35938,0.14063 0.60938,0.40625 0.25,0.26563 0.39062,0.64063 0.14063,0.35937 0.14063,0.79687 z"
       fill-rule="nonzero"
       id="path89" />
    <path
       fill="#000000"
       fill-opacity="0"
       d="m 403.7792,321.64966 v 0 c 0,-2.04391 1.65692,-3.70087 3.70087,-3.70087 h 15.84237 v 0 c 0.98151,0 1.92286,0.38993 2.61689,1.08396 0.69406,0.69406 1.08395,1.63537 1.08395,2.61691 v 14.80301 c 0,2.04391 -1.65692,3.70087 -3.70084,3.70087 h -15.84237 c -2.04395,0 -3.70087,-1.65696 -3.70087,-3.70087 z"
       fill-rule="evenodd"
       id="path91" />
    <path
       fill="#1c4587"
       d="m 413.62195,336.45428 q -0.875,0 -1.53125,-0.42188 -0.65625,-0.42187 -1.01562,-1.23437 -0.35938,-0.82813 -0.35938,-2.01563 0,-1.1875 0.25,-2.28125 0.25,-1.09375 0.70313,-2.03125 0.46875,-0.9375 1.10937,-1.64062 0.65625,-0.70313 1.45313,-1.09375 0.8125,-0.39063 1.75,-0.39063 0.73437,0 1.26562,0.28125 0.53125,0.26563 0.875,0.71875 0.35938,0.4375 0.57813,0.9375 h 0.0937 l 0.625,-1.73437 h 1.23437 l -2.26562,10.70312 h -1.29688 l 0.29688,-2.07812 h -0.0781 q -0.4375,0.59375 -1.01562,1.10937 -0.5625,0.51563 -1.23438,0.84375 -0.67187,0.32813 -1.4375,0.32813 z m 0.51563,-1.35938 q 0.75,0 1.48437,-0.54687 0.75,-0.54688 1.32813,-1.48438 0.59375,-0.95312 0.90625,-2.14062 0.15625,-0.57813 0.20312,-1.04688 0.0625,-0.48437 0.0625,-0.90625 0,-1.01562 -0.53125,-1.625 -0.53125,-0.625 -1.45312,-0.625 -0.64063,0 -1.21875,0.32813 -0.57813,0.32812 -1.04688,0.90625 -0.46875,0.57812 -0.79687,1.34375 -0.32813,0.76562 -0.51563,1.67187 -0.17187,0.89063 -0.17187,1.84375 0,1.125 0.45312,1.70313 0.46875,0.57812 1.29688,0.57812 z"
       fill-rule="nonzero"
       id="path93" />
    <path
       fill="#000000"
       fill-opacity="0"
       d="m 515.77924,321.64966 v 0 c 0,-2.04391 1.65692,-3.70087 3.70081,-3.70087 h 15.8424 v 0 c 0.98151,0 1.92285,0.38993 2.61689,1.08396 0.69403,0.69406 1.08398,1.63537 1.08398,2.61691 v 14.80301 c 0,2.04391 -1.65692,3.70087 -3.70087,3.70087 h -15.8424 c -2.04389,0 -3.70081,-1.65696 -3.70081,-3.70087 z"
       fill-rule="evenodd"
       id="path95" />
    <path
       fill="#1c4587"
       d="m 526.9374,336.45428 q -0.75,0 -1.3125,-0.26563 -0.54687,-0.28125 -0.90625,-0.71875 -0.35937,-0.4375 -0.5625,-0.95312 h -0.0937 l -0.64062,1.73437 h -1.23438 l 3.23438,-15.20312 h 1.60937 l -0.78125,3.67187 q -0.125,0.65625 -0.28125,1.29688 -0.15625,0.64062 -0.28125,1.09375 -0.125,0.4375 -0.17187,0.51562 h 0.0781 q 0.46875,-0.59375 1.01563,-1.10937 0.54687,-0.51563 1.1875,-0.82813 0.65625,-0.3125 1.42187,-0.3125 0.90625,0 1.5625,0.42188 0.67188,0.40625 1.03125,1.21875 0.375,0.8125 0.375,2 0,1.15625 -0.23437,2.25 -0.23438,1.09375 -0.67188,2.03125 -0.4375,0.9375 -1.07812,1.64062 -0.625,0.70313 -1.45313,1.10938 -0.82812,0.40625 -1.8125,0.40625 z m -0.10937,-1.35938 q 0.67187,0 1.23437,-0.34375 0.57813,-0.34375 1.03125,-0.92187 0.46875,-0.59375 0.78125,-1.375 0.3125,-0.78125 0.46875,-1.65625 0.17188,-0.89063 0.17188,-1.79688 0,-1.125 -0.45313,-1.70312 -0.45312,-0.57813 -1.34375,-0.57813 -0.46875,0 -0.95312,0.23438 -0.48438,0.21875 -0.9375,0.64062 -0.45313,0.42188 -0.84375,1 -0.375,0.5625 -0.67188,1.25 -0.28125,0.67188 -0.45312,1.4375 -0.15625,0.76563 -0.15625,1.54688 0,1.03125 0.51562,1.65625 0.53125,0.60937 1.60938,0.60937 z"
       fill-rule="nonzero"
       id="path97" />
    <path
       fill="#ffffff"
       d="m 501.35184,289.962 v 0 c 0,-2.04391 1.65692,-3.70084 3.70087,-3.70084 h 26.39352 c 0.98157,0 1.92285,0.3899 2.61694,1.08396 0.69403,0.69403 1.08393,1.63537 1.08393,2.61688 v 14.80301 c 0,2.04394 -1.65692,3.70087 -3.70087,3.70087 h -26.39352 c -2.04395,0 -3.70087,-1.65693 -3.70087,-3.70087 z"
       fill-rule="evenodd"
       id="path99" />
    <path
       stroke="#4285f4"
       stroke-width="2"
       stroke-linejoin="round"
       stroke-linecap="butt"
       d="m 501.35184,289.962 v 0 c 0,-2.04391 1.65692,-3.70084 3.70087,-3.70084 h 26.39352 c 0.98157,0 1.92285,0.3899 2.61694,1.08396 0.69403,0.69403 1.08393,1.63537 1.08393,2.61688 v 14.80301 c 0,2.04394 -1.65692,3.70087 -3.70087,3.70087 h -26.39352 c -2.04395,0 -3.70087,-1.65693 -3.70087,-3.70087 z"
       fill-rule="evenodd"
       id="path101" />
    <path
       fill="#4285f4"
       d="m 514.3664,304.2835 v -13.26563 h -0.14063 l -5.45312,2.03125 v 1.92188 l 3.39062,-1.25 v 10.5625 z m 13.74243,0 v -1.76563 h -6.17187 l 2.9375,-3.14062 q 0.59375,-0.625 1.07812,-1.20313 0.5,-0.59375 0.875,-1.15625 0.34375,-0.57812 0.54688,-1.15625 0.21875,-0.59375 0.21875,-1.21875 0,-0.84375 -0.28125,-1.53125 -0.26563,-0.70312 -0.79688,-1.20312 -0.51562,-0.5 -1.29687,-0.78125 -0.76563,-0.29688 -1.73438,-0.29688 -1.04687,0 -1.89062,0.34375 -0.84375,0.34375 -1.42188,0.90625 -0.59375,0.57813 -0.92187,1.35938 -0.3125,0.76562 -0.3125,1.625 h 2.1875 q 0,-0.57813 0.14062,-1.01563 0.15625,-0.45312 0.45313,-0.78125 0.28125,-0.29687 0.70312,-0.45312 0.42188,-0.17188 1.01563,-0.17188 0.45312,0 0.8125,0.15625 0.375,0.15625 0.64062,0.42188 0.26563,0.28125 0.39063,0.67187 0.14062,0.375 0.14062,0.82813 0,0.35937 -0.0937,0.70312 -0.0937,0.32813 -0.3125,0.71875 -0.21875,0.39063 -0.59375,0.85938 -0.35937,0.46875 -0.89062,1.0625 l -4.32813,4.70312 v 1.51563 z"
       fill-rule="nonzero"
       id="path103" />
    <path
       fill="#000000"
       fill-opacity="0"
       d="m 455.6824,273.6497 v 0 c 0,-2.04395 1.65692,-3.70087 3.70087,-3.70087 h 26.39355 c 0.98151,0 1.92285,0.38993 2.61688,1.08396 0.69407,0.69406 1.08399,1.63537 1.08399,2.61691 v 14.80298 c 0,2.04394 -1.65695,3.70087 -3.70087,3.70087 h -26.39355 c -2.04395,0 -3.70087,-1.65693 -3.70087,-3.70087 z"
       fill-rule="evenodd"
       id="path105" />
    <path
       fill="#1c4587"
       d="m 463.62302,289.46994 8.4375,-15.4375 h -1.67188 l -8.4375,15.4375 z m 16.03516,-14.34375 h -1.78125 l -0.45313,2.5625 h -2.6875 l -0.23437,1.39062 h 2.6875 l -0.95313,5.75 q -0.0781,0.71875 0.0469,1.375 0.125,0.64063 0.45312,1.125 0.34375,0.5 0.89063,0.79688 0.54687,0.29687 1.32812,0.3125 0.70313,0.0156 1.45313,-0.0937 0.75,-0.10938 1.35937,-0.45313 l -0.15625,-1.29687 q -0.53125,0.125 -1.0625,0.21875 -0.53125,0.0937 -1.07812,0.0781 -0.46875,-0.0156 -0.78125,-0.17187 -0.29688,-0.17188 -0.46875,-0.4375 -0.15625,-0.28125 -0.21875,-0.64063 -0.0469,-0.375 0,-0.8125 l 0.95312,-5.75 h 3.90625 l 0.25,-1.39062 h -3.90625 z"
       fill-rule="nonzero"
       id="path107" />
    <path
       fill="#000000"
       fill-opacity="0"
       d="m 258.92487,326.17453 32.75592,-28.81891"
       fill-rule="evenodd"
       id="path109" />
    <path
       stroke="#4285f4"
       stroke-width="2"
       stroke-linejoin="round"
       stroke-linecap="butt"
       d="m 258.92487,326.17453 27.60989,-24.29141"
       fill-rule="evenodd"
       id="path111" />
    <path
       fill="#4285f4"
       stroke="#4285f4"
       stroke-width="2"
       stroke-linecap="butt"
       d="m 286.53476,301.88312 -0.20297,3.17432 3.15384,-5.77051 -6.12519,2.39325 z"
       fill-rule="evenodd"
       id="path113" />
    <path
       fill="#000000"
       fill-opacity="0"
       d="m 303.3015,286.26114 20.66141,-40.81889"
       fill-rule="evenodd"
       id="path115" />
    <path
       stroke="#4285f4"
       stroke-width="2"
       stroke-linejoin="round"
       stroke-linecap="butt"
       d="m 303.3015,286.26114 17.56598,-34.70352"
       fill-rule="evenodd"
       id="path117" />
    <path
       fill="#4285f4"
       stroke="#4285f4"
       stroke-width="2"
       stroke-linecap="butt"
       d="m 320.8675,251.55762 0.99097,3.02249 0.78402,-6.52922 -4.79748,4.49771 z"
       fill-rule="evenodd"
       id="path119" />
    <path
       fill="#000000"
       fill-opacity="0"
       d="m 444.41437,297.3635 h 56.94489"
       fill-rule="evenodd"
       id="path121" />
    <path
       stroke="#00ff00"
       stroke-width="2"
       stroke-linejoin="round"
       stroke-linecap="butt"
       d="M 444.41437,297.3635 H 494.5051"
       fill-rule="evenodd"
       id="path123" />
    <path
       fill="#00ff00"
       stroke="#00ff00"
       stroke-width="2"
       stroke-linecap="butt"
       d="m 494.50507,297.3635 -2.24915,2.24918 6.17954,-2.24918 -6.17954,-2.24918 z"
       fill-rule="evenodd"
       id="path125" />
    <path
       fill="#000000"
       fill-opacity="0"
       d="m 410.83563,245.74277 21.95276,40.50394"
       fill-rule="evenodd"
       id="path127" />
    <path
       stroke="#4285f4"
       stroke-width="2"
       stroke-linejoin="round"
       stroke-linecap="butt"
       d="m 410.83563,245.74277 18.68671,34.47794"
       fill-rule="evenodd"
       id="path129" />
    <path
       fill="#4285f4"
       stroke="#4285f4"
       stroke-width="2"
       stroke-linecap="butt"
       d="m 429.52234,280.2207 -3.04913,-0.90567 4.92196,4.36114 -0.96716,-6.5046 z"
       fill-rule="evenodd"
       id="path131" />
    <path
       fill="#000000"
       fill-opacity="0"
       d="m 378.92355,342.17453 h 86.39371"
       fill-rule="evenodd"
       id="path133" />
    <path
       stroke="#1c4587"
       stroke-width="2"
       stroke-linejoin="round"
       stroke-linecap="butt"
       d="M 378.92355,342.17453 H 458.4631"
       fill-rule="evenodd"
       id="path135" />
    <path
       fill="#1c4587"
       stroke="#1c4587"
       stroke-width="2"
       stroke-linecap="butt"
       d="m 458.46307,342.17453 -2.24915,2.24915 6.17954,-2.24915 -6.17954,-2.24918 z"
       fill-rule="evenodd"
       id="path137" />
    <path
       fill="#000000"
       fill-opacity="0"
       d="m 488.55643,342.17584 h 78.11026"
       fill-rule="evenodd"
       id="path139" />
    <path
       stroke="#1c4587"
       stroke-width="2"
       stroke-linejoin="round"
       stroke-linecap="butt"
       d="M 488.55643,342.17584 H 559.8125"
       fill-rule="evenodd"
       id="path141" />
    <path
       fill="#1c4587"
       stroke="#1c4587"
       stroke-width="2"
       stroke-linecap="butt"
       d="m 559.8125,342.17584 -2.24915,2.24918 6.17951,-2.24918 -6.17951,-2.24915 z"
       fill-rule="evenodd"
       id="path143" />
    <path
       fill="#000000"
       fill-opacity="0"
       d="m 604.3202,342.17453 82.33075,-16"
       fill-rule="evenodd"
       id="path145" />
    <path
       stroke="#4285f4"
       stroke-width="2"
       stroke-linejoin="round"
       stroke-linecap="butt"
       d="m 604.3202,342.17453 75.60242,-14.69244"
       fill-rule="evenodd"
       id="path147" />
    <path
       fill="#4285f4"
       stroke="#4285f4"
       stroke-width="2"
       stroke-linecap="butt"
       d="m 679.9226,327.48212 -1.77875,2.63693 5.63697,-3.38675 -6.49512,-1.02899 z"
       fill-rule="evenodd"
       id="path149" />
    <path
       fill="#000000"
       fill-opacity="0"
       d="m 335.59024,234.34906 c 0,-12.5 15.90549,-25.03543 31.81101,-25 15.90551,0.0354 31.81103,12.64174 31.81103,25.28346"
       fill-rule="evenodd"
       id="path151" />
    <path
       stroke="#1c4587"
       stroke-width="2"
       stroke-linejoin="round"
       stroke-linecap="butt"
       d="m 335.5902,234.34906 c 0,-12.5 15.90552,-25.03543 31.81103,-25 7.95276,0.0177 15.90552,3.17815 21.87009,7.91437 2.98227,2.36812 5.4675,5.13017 7.20719,8.0903 0.4349,0.74004 0.82324,1.49246 1.16107,2.2542 0.0422,0.0952 0.0837,0.19056 0.12433,0.28608 l 0.0149,0.0359"
       fill-rule="evenodd"
       id="path153" />
    <path
       fill="#1c4587"
       stroke="#1c4587"
       stroke-width="2"
       stroke-linecap="butt"
       d="m 397.77887,227.92992 -2.6698,-1.72906 3.49176,5.57252 0.9071,-6.51326 z"
       fill-rule="evenodd"
       id="path155" />
    <path
       fill="#000000"
       fill-opacity="0"
       d="m 399.2136,256.84512 c 0,12.5 -15.90552,25.03543 -31.81104,25 -15.90551,-0.0354 -31.811,-12.64172 -31.811,-25.28345"
       fill-rule="evenodd"
       id="path157" />
    <path
       stroke="#4285f4"
       stroke-width="2"
       stroke-linejoin="round"
       stroke-linecap="butt"
       d="m 399.2136,256.84512 c 0,12.5 -15.90552,25.03543 -31.81104,25 -7.95275,-0.0177 -15.90551,-3.17816 -21.87008,-7.91437 -2.98227,-2.3681 -5.4675,-5.13016 -7.20719,-8.0903 -0.4349,-0.74005 -0.82324,-1.49246 -1.16107,-2.25418 -0.0422,-0.0953 -0.0837,-0.19058 -0.1243,-0.2861 l -0.0149,-0.0359"
       fill-rule="evenodd"
       id="path159" />
    <path
       fill="#4285f4"
       stroke="#4285f4"
       stroke-width="2"
       stroke-linecap="butt"
       d="m 337.02493,263.26428 2.66983,1.72906 -3.49176,-5.57254 -0.90714,6.51328 z"
       fill-rule="evenodd"
       id="path161" />
    <path
       fill="#000000"
       fill-opacity="0"
       d="M 518.24945,286.26117 533.4621,245.44226"
       fill-rule="evenodd"
       id="path163" />
    <path
       stroke="#4285f4"
       stroke-width="2"
       stroke-linejoin="round"
       stroke-linecap="butt"
       d="m 518.24945,286.26117 12.81897,-34.39629"
       fill-rule="evenodd"
       id="path165" />
    <path
       fill="#4285f4"
       stroke="#4285f4"
       stroke-width="2"
       stroke-linecap="butt"
       d="m 531.0684,251.8649 1.32214,2.89301 0.0505,-6.57593 -4.26563,5.00502 z"
       fill-rule="evenodd"
       id="path167" />
    <path
       fill="#000000"
       fill-opacity="0"
       d="M 314.92355,297.3635 H 421.15979"
       fill-rule="evenodd"
       id="path169" />
    <path
       stroke="#4285f4"
       stroke-width="2"
       stroke-linejoin="round"
       stroke-linecap="butt"
       d="M 314.92355,297.3635 H 414.3056"
       fill-rule="evenodd"
       id="path171" />
    <path
       fill="#4285f4"
       stroke="#4285f4"
       stroke-width="2"
       stroke-linecap="butt"
       d="m 414.3056,297.3635 -2.24918,2.24918 6.17954,-2.24918 -6.17954,-2.24918 z"
       fill-rule="evenodd"
       id="path173" />
    <path
       fill="#000000"
       fill-opacity="0"
       d="m 620.316,245.74277 21.9527,40.50394"
       fill-rule="evenodd"
       id="path175" />
    <path
       stroke="#4285f4"
       stroke-width="2"
       stroke-linejoin="round"
       stroke-linecap="butt"
       d="m 620.3159,245.74277 18.68677,34.47794"
       fill-rule="evenodd"
       id="path177" />
    <path
       fill="#4285f4"
       stroke="#4285f4"
       stroke-width="2"
       stroke-linecap="butt"
       d="m 639.0027,280.2207 -3.04913,-0.90567 4.92193,4.36114 -0.96716,-6.5046 z"
       fill-rule="evenodd"
       id="path179" />
    <path
       fill="#000000"
       fill-opacity="0"
       d="m 545.07056,234.34906 c 0,-12.5 15.90552,-25.03543 31.81103,-25 15.90552,0.0354 31.81098,12.64174 31.81098,25.28346"
       fill-rule="evenodd"
       id="path181" />
    <path
       stroke="#1c4587"
       stroke-width="2"
       stroke-linejoin="round"
       stroke-linecap="butt"
       d="m 545.07056,234.34906 c 0,-12.5 15.90552,-25.03543 31.81103,-25 7.9527,0.0177 15.90546,3.17815 21.87006,7.91437 2.9823,2.36812 5.46753,5.13017 7.20715,8.0903 0.43494,0.74004 0.82325,1.49246 1.16114,2.2542 0.0422,0.0952 0.0836,0.19056 0.12426,0.28608 l 0.015,0.0359"
       fill-rule="evenodd"
       id="path183" />
    <path
       fill="#1c4587"
       stroke="#1c4587"
       stroke-width="2"
       stroke-linecap="butt"
       d="m 607.25916,227.92992 -2.6698,-1.72906 3.49176,5.57252 0.9071,-6.51326 z"
       fill-rule="evenodd"
       id="path185" />
    <path
       fill="#000000"
       fill-opacity="0"
       d="m 608.6939,256.84512 c 0,12.5 -15.90552,25.03543 -31.81103,25 -15.90552,-0.0354 -31.81104,-12.64172 -31.81104,-25.28345"
       fill-rule="evenodd"
       id="path187" />
    <path
       stroke="#4285f4"
       stroke-width="2"
       stroke-linejoin="round"
       stroke-linecap="butt"
       d="m 608.6939,256.84512 c 0,12.5 -15.90552,25.03543 -31.81103,25 -7.95276,-0.0177 -15.90552,-3.17816 -21.87006,-7.91437 -2.9823,-2.3681 -5.46753,-5.13016 -7.20722,-8.0903 -0.43493,-0.74005 -0.82324,-1.49246 -1.16107,-2.25418 -0.0422,-0.0953 -0.0837,-0.19058 -0.12433,-0.2861 l -0.0149,-0.0359"
       fill-rule="evenodd"
       id="path189" />
    <path
       fill="#4285f4"
       stroke="#4285f4"
       stroke-width="2"
       stroke-linecap="butt"
       d="m 546.50525,263.26428 2.6698,1.72906 -3.49176,-5.57254 -0.9071,6.51328 z"
       fill-rule="evenodd"
       id="path191" />
    <path
       fill="#000000"
       fill-opacity="0"
       d="m 258.92487,326.17453 96.75592,16"
       fill-rule="evenodd"
       id="path193" />
    <path
       stroke="#4285f4"
       stroke-width="2"
       stroke-linejoin="round"
       stroke-linecap="butt"
       d="m 258.92487,326.17453 89.99356,14.88174"
       fill-rule="evenodd"
       id="path195" />
    <path
       fill="#4285f4"
       stroke="#4285f4"
       stroke-width="2"
       stroke-linecap="butt"
       d="m 348.91843,341.05627 -2.58597,1.85208 6.46369,-1.21084 -5.7298,-3.22724 z"
       fill-rule="evenodd"
       id="path197" />
    <path
       fill="#000000"
       fill-opacity="0"
       d="m 653.8947,297.3635 32.75586,28.81891"
       fill-rule="evenodd"
       id="path199" />
    <path
       stroke="#4285f4"
       stroke-width="2"
       stroke-linejoin="round"
       stroke-linecap="butt"
       d="m 653.8947,297.3635 27.60986,24.29141"
       fill-rule="evenodd"
       id="path201" />
    <path
       fill="#4285f4"
       stroke="#4285f4"
       stroke-width="2"
       stroke-linecap="butt"
       d="m 681.5046,321.6549 -3.17432,0.20294 6.12519,2.39325 -3.15381,-5.77054 z"
       fill-rule="evenodd"
       id="path203" />
    <path
       fill="#000000"
       fill-opacity="0"
       d="m 535.1471,297.36353 h 95.49609"
       fill-rule="evenodd"
       id="path205" />
    <path
       stroke="#4285f4"
       stroke-width="2"
       stroke-linejoin="round"
       stroke-linecap="butt"
       d="m 535.1471,297.36353 h 88.64191"
       fill-rule="evenodd"
       id="path207" />
    <path
       fill="#4285f4"
       stroke="#4285f4"
       stroke-width="2"
       stroke-linecap="butt"
       d="m 623.789,297.36353 -2.24915,2.24915 6.17951,-2.24915 -6.17951,-2.24918 z"
       fill-rule="evenodd"
       id="path209" />
  </g>
</svg>
