<?xml version="1.0" encoding="UTF-8" standalone="no"?>
<svg
   version="1.1"
   viewBox="0 0 545.62903 209.81937"
   fill="none"
   stroke="none"
   stroke-linecap="square"
   stroke-miterlimit="10"
   id="svg217"
   sodipodi:docname="tnfa.svg"
   width="545.62903"
   height="209.81937"
   inkscape:version="1.1.1 (3bf5ae0d25, 2021-09-20)"
   xmlns:inkscape="http://www.inkscape.org/namespaces/inkscape"
   xmlns:sodipodi="http://sodipodi.sourceforge.net/DTD/sodipodi-0.dtd"
   xmlns="http://www.w3.org/2000/svg"
   xmlns:svg="http://www.w3.org/2000/svg">
  <defs
     id="defs221">
    <clipPath
       clipPathUnits="userSpaceOnUse"
       id="clipPath1062">
      <rect
         style="font-variation-settings:normal;opacity:1;vector-effect:none;fill:#1c4587;fill-opacity:1;fill-rule:evenodd;stroke:none;stroke-width:1;stroke-linecap:butt;stroke-linejoin:miter;stroke-miterlimit:10;stroke-dasharray:none;stroke-dashoffset:0;stroke-opacity:1;-inkscape-stroke:none;stop-color:#000000;stop-opacity:1"
         id="rect1064"
         width="545.62909"
         height="209.81937"
         x="414.37094"
         y="330.18063" />
    </clipPath>
  </defs>
  <sodipodi:namedview
     id="namedview219"
     pagecolor="#ffffff"
     bordercolor="#666666"
     borderopacity="1.0"
     inkscape:pageshadow="2"
     inkscape:pageopacity="0.0"
     inkscape:pagecheckerboard="0"
     showgrid="false"
     inkscape:zoom="1.3197917"
     inkscape:cx="65.540647"
     inkscape:cy="-60.615627"
     inkscape:window-width="1916"
     inkscape:window-height="1037"
     inkscape:window-x="0"
     inkscape:window-y="20"
     inkscape:window-maximized="1"
     inkscape:current-layer="svg217" />
  <clipPath
     id="gd3650c1d61_0_1057.0">
    <path
       d="M 0,0 H 960 V 540 H 0 Z"
       clip-rule="nonzero"
       id="path2" />
  </clipPath>
  <g
     clip-path="url(#clipPath1062)"
     id="g215"
     transform="translate(-414.37094,-330.18063)">
    <path
       fill="#ffffff"
       d="M 0,0 H 960 V 540 H 0 Z"
       fill-rule="evenodd"
       id="path5" />
    <path
       fill="#000000"
       fill-opacity="0"
       d="M 32.72441,11.68504 H 927.27556 V 71.811019 H 32.72441 Z"
       fill-rule="evenodd"
       id="path7" />
    <path
       fill="#ffffff"
       d="m 52.708786,44.87479 q -4.546875,-1.3125 -6.609375,-3.203125 -2.0625,-1.90625 -2.0625,-4.703125 0,-3.15625 2.515625,-5.21875 2.53125,-2.0625 6.578125,-2.0625 2.75,0 4.90625,1.0625 2.15625,1.0625 3.328125,2.9375 1.1875,1.875 1.1875,4.09375 h -3.53125 q 0,-2.421875 -1.546875,-3.796875 -1.546875,-1.390625 -4.34375,-1.390625 -2.609375,0 -4.078125,1.140625 -1.453125,1.140625 -1.453125,3.1875 0,1.625 1.375,2.765625 1.390625,1.125 4.71875,2.0625 3.34375,0.9375 5.21875,2.0625 1.890625,1.125 2.796875,2.640625 0.90625,1.5 0.90625,3.53125 0,3.25 -2.53125,5.203125 -2.53125,1.953125 -6.78125,1.953125 -2.75,0 -5.140625,-1.046875 -2.375,-1.0625 -3.671875,-2.890625 -1.296875,-1.84375 -1.296875,-4.171875 h 3.546875 q 0,2.421875 1.78125,3.828125 1.796875,1.40625 4.78125,1.40625 2.796875,0 4.28125,-1.140625 1.484375,-1.140625 1.484375,-3.09375 0,-1.96875 -1.375,-3.03125 -1.375,-1.078125 -4.984375,-2.125 z m 26.146683,9.9375 q -1.984375,2.328125 -5.8125,2.328125 -3.171875,0 -4.84375,-1.84375 -1.65625,-1.84375 -1.671875,-5.453125 V 36.921665 h 3.390625 V 49.74979 q 0,4.515625 3.671875,4.515625 3.890625,0 5.171875,-2.90625 v -14.4375 h 3.40625 V 56.78104 h -3.234375 z m 25.286791,-7.734375 q 0,4.546875 -2.09375,7.3125 -2.093752,2.75 -5.625002,2.75 -3.765625,0 -5.8125,-2.65625 l -0.171875,2.296875 h -3.125 V 28.577915 h 3.40625 v 10.53125 q 2.046875,-2.5625 5.65625,-2.5625 3.624997,0 5.687497,2.734375 2.07813,2.734375 2.07813,7.5 z m -3.40625,-0.390625 q 0,-3.46875 -1.343752,-5.359375 -1.328125,-1.890625 -3.84375,-1.890625 -3.359375,0 -4.828125,3.125 v 8.578125 q 1.5625,3.125 4.859375,3.125 2.4375,0 3.796875,-1.890625 1.359377,-1.890625 1.359377,-5.6875 z m 10.87266,-9.765625 0.0937,2.203125 q 2.1875,-2.578125 5.89063,-2.578125 4.17187,0 5.67187,3.203125 0.98438,-1.4375 2.57813,-2.3125 1.59375,-0.890625 3.75,-0.890625 6.53125,0 6.64062,6.921875 v 13.3125 H 132.843 V 43.671665 q 0,-2.125 -0.96875,-3.171875 -0.96875,-1.0625 -3.26563,-1.0625 -1.89062,0 -3.14062,1.125 -1.25,1.125 -1.45313,3.03125 v 13.1875 h -3.40625 V 43.765415 q 0,-4.328125 -4.25,-4.328125 -3.34375,0 -4.5625,2.84375 v 14.5 h -3.40625 V 36.921665 Z m 42.0121,19.859375 q -0.29687,-0.59375 -0.46875,-2.09375 -2.375,2.453125 -5.65625,2.453125 -2.9375,0 -4.82812,-1.65625 -1.875,-1.65625 -1.875,-4.203125 0,-3.109375 2.35937,-4.828125 2.35938,-1.71875 6.64063,-1.71875 h 3.29687 v -1.5625 q 0,-1.765625 -1.0625,-2.828125 -1.0625,-1.0625 -3.14062,-1.0625 -1.8125,0 -3.04688,0.921875 -1.23437,0.921875 -1.23437,2.21875 h -3.40625 q 0,-1.484375 1.04687,-2.859375 1.0625,-1.390625 2.85938,-2.203125 1.8125,-0.8125 3.98437,-0.8125 3.4375,0 5.375,1.71875 1.95313,1.71875 2.03125,4.734375 v 9.140625 q 0,2.734375 0.6875,4.34375 v 0.296875 z m -5.625,-2.59375 q 1.59375,0 3.01563,-0.8125 1.4375,-0.828125 2.07812,-2.15625 v -4.078125 h -2.65625 q -6.25,0 -6.25,3.65625 0,1.59375 1.0625,2.5 1.07813,0.890625 2.75,0.890625 z m 18.4177,-22.078125 v 4.8125 h 3.71875 v 2.625 h -3.71875 v 12.3125 q 0,1.203125 0.5,1.796875 0.5,0.59375 1.6875,0.59375 0.59375,0 1.625,-0.21875 v 2.75 q -1.34375,0.359375 -2.60938,0.359375 -2.28125,0 -3.4375,-1.375 -1.15625,-1.375 -1.15625,-3.90625 v -12.3125 h -3.60937 v -2.625 h 3.60937 v -4.8125 z m 15.63975,22.265625 q 1.82813,0 3.1875,-1.09375 1.35938,-1.109375 1.5,-2.765625 h 3.21875 q -0.0937,1.71875 -1.1875,3.265625 -1.07812,1.53125 -2.89062,2.453125 -1.79688,0.90625 -3.82813,0.90625 -4.04687,0 -6.45312,-2.703125 -2.39063,-2.703125 -2.39063,-7.40625 v -0.5625 q 0,-2.90625 1.0625,-5.15625 1.0625,-2.265625 3.04688,-3.515625 2,-1.25 4.71875,-1.25 3.34375,0 5.54687,2 2.21875,2 2.375,5.203125 h -3.21875 q -0.14062,-1.921875 -1.45312,-3.15625 -1.3125,-1.25 -3.25,-1.25 -2.57813,0 -4.01563,1.859375 -1.42187,1.859375 -1.42187,5.390625 v 0.640625 q 0,3.4375 1.40625,5.296875 1.42187,1.84375 4.04687,1.84375 z M 197.1687,39.327915 q 2.25,-2.78125 5.875,-2.78125 6.29688,0 6.34375,7.109375 v 13.125 h -3.39062 V 43.640415 q -0.0156,-2.15625 -0.98438,-3.171875 -0.96875,-1.03125 -3,-1.03125 -1.65625,0 -2.90625,0.890625 -1.25,0.875 -1.9375,2.296875 v 14.15625 h -3.40625 V 28.577915 h 3.40625 z m 34.85634,17.8125 q -4.03125,0 -6.57812,-2.640625 -2.53125,-2.65625 -2.53125,-7.09375 v -0.625 q 0,-2.953125 1.125,-5.28125 1.14062,-2.328125 3.15625,-3.640625 2.03125,-1.3125 4.40625,-1.3125 3.875,0 6.01562,2.5625 2.15625,2.546875 2.15625,7.296875 v 1.421875 h -13.45312 q 0.0625,2.9375 1.70312,4.75 1.65625,1.796875 4.1875,1.796875 1.79688,0 3.04688,-0.734375 1.25,-0.734375 2.1875,-1.9375 l 2.0625,1.609375 q -2.48438,3.828125 -7.48438,3.828125 z M 231.60317,39.34354 q -2.0625,0 -3.45313,1.5 -1.39062,1.484375 -1.71875,4.1875 h 9.9375 v -0.25 q -0.14062,-2.59375 -1.39062,-4.015625 -1.25,-1.421875 -3.375,-1.421875 z m 18.76036,4.828125 4.40625,-7.25 h 3.96875 l -6.5,9.8125 6.70312,10.046875 h -3.9375 l -4.59375,-7.4375 -4.57812,7.4375 h -3.95313 l 6.70313,-10.046875 -6.5,-9.8125 h 3.92187 z m 16.56915,-12.0625 v 4.8125 h 3.71875 v 2.625 h -3.71875 v 12.3125 q 0,1.203125 0.5,1.796875 0.5,0.59375 1.6875,0.59375 0.59375,0 1.625,-0.21875 v 2.75 q -1.34375,0.359375 -2.60938,0.359375 -2.28125,0 -3.4375,-1.375 -1.15625,-1.375 -1.15625,-3.90625 v -12.3125 h -3.60937 v -2.625 h 3.60937 v -4.8125 z m 17.28039,7.859375 q -0.76562,-0.125 -1.67187,-0.125 -3.34375,0 -4.53125,2.84375 V 56.78104 H 274.6037 V 36.921665 h 3.3125 l 0.0469,2.296875 q 1.67188,-2.671875 4.75,-2.671875 0.98438,0 1.5,0.265625 z m 14.6428,16.8125 q -0.29688,-0.59375 -0.46875,-2.09375 -2.375,2.453125 -5.65625,2.453125 -2.9375,0 -4.82813,-1.65625 -1.875,-1.65625 -1.875,-4.203125 0,-3.109375 2.35938,-4.828125 2.35937,-1.71875 6.64062,-1.71875 h 3.29688 v -1.5625 q 0,-1.765625 -1.0625,-2.828125 -1.0625,-1.0625 -3.14063,-1.0625 -1.8125,0 -3.04687,0.921875 -1.23438,0.921875 -1.23438,2.21875 h -3.40625 q 0,-1.484375 1.04688,-2.859375 1.0625,-1.390625 2.85937,-2.203125 1.8125,-0.8125 3.98438,-0.8125 3.4375,0 5.375,1.71875 1.95312,1.71875 2.03125,4.734375 v 9.140625 q 0,2.734375 0.6875,4.34375 v 0.296875 z m -5.625,-2.59375 q 1.59375,0 3.01562,-0.8125 1.4375,-0.828125 2.07813,-2.15625 v -4.078125 h -2.65625 q -6.25,0 -6.25,3.65625 0,1.59375 1.0625,2.5 1.07812,0.890625 2.75,0.890625 z m 21.77707,0.1875 q 1.82812,0 3.1875,-1.09375 1.35937,-1.109375 1.5,-2.765625 h 3.21875 q -0.0937,1.71875 -1.1875,3.265625 -1.07813,1.53125 -2.89063,2.453125 -1.79687,0.90625 -3.82812,0.90625 -4.04688,0 -6.45313,-2.703125 -2.39062,-2.703125 -2.39062,-7.40625 v -0.5625 q 0,-2.90625 1.0625,-5.15625 1.0625,-2.265625 3.04687,-3.515625 2,-1.25 4.71875,-1.25 3.34375,0 5.54688,2 2.21875,2 2.375,5.203125 h -3.21875 q -0.14063,-1.921875 -1.45313,-3.15625 -1.3125,-1.25 -3.25,-1.25 -2.57812,0 -4.01562,1.859375 -1.42188,1.859375 -1.42188,5.390625 v 0.640625 q 0,3.4375 1.40625,5.296875 1.42188,1.84375 4.04688,1.84375 z m 16.3186,-22.265625 v 4.8125 h 3.71875 v 2.625 h -3.71875 v 12.3125 q 0,1.203125 0.5,1.796875 0.5,0.59375 1.6875,0.59375 0.59375,0 1.625,-0.21875 v 2.75 q -1.34375,0.359375 -2.60937,0.359375 -2.28125,0 -3.4375,-1.375 -1.15625,-1.375 -1.15625,-3.90625 v -12.3125 h -3.60938 v -2.625 h 3.60938 v -4.8125 z m 11.37412,24.671875 h -3.40625 V 36.921665 h 3.40625 z m -3.67188,-25.125 q 0,-0.828125 0.5,-1.390625 0.5,-0.578125 1.48438,-0.578125 1,0 1.51562,0.578125 0.51563,0.5625 0.51563,1.390625 0,0.828125 -0.51563,1.375 -0.51562,0.546875 -1.51562,0.546875 -0.98438,0 -1.48438,-0.546875 -0.5,-0.546875 -0.5,-1.375 z m 8.20123,15.015625 q 0,-2.921875 1.14063,-5.25 1.15625,-2.34375 3.20312,-3.609375 2.04688,-1.265625 4.67188,-1.265625 4.04687,0 6.54687,2.8125 2.51563,2.8125 2.51563,7.46875 v 0.25 q 0,2.890625 -1.10938,5.203125 -1.10937,2.296875 -3.17187,3.578125 -2.0625,1.28125 -4.75,1.28125 -4.03125,0 -6.54688,-2.796875 -2.5,-2.8125 -2.5,-7.4375 z m 3.40625,0.40625 q 0,3.296875 1.53125,5.296875 1.54688,2 4.10938,2 2.59375,0 4.10937,-2.03125 1.53125,-2.03125 1.53125,-5.671875 0,-3.265625 -1.5625,-5.296875 -1.54687,-2.03125 -4.10937,-2.03125 -2.51563,0 -4.0625,2 -1.54688,2 -1.54688,5.734375 z m 22.14331,-10.15625 0.10938,2.5 q 2.28125,-2.875 5.95312,-2.875 6.29688,0 6.34375,7.109375 v 13.125 H 381.7952 V 43.640415 q -0.0156,-2.15625 -0.98438,-3.171875 -0.96875,-1.03125 -3,-1.03125 -1.65625,0 -2.90625,0.890625 -1.25,0.875 -1.9375,2.296875 v 14.15625 h -3.40625 V 36.921665 Z"
       fill-rule="nonzero"
       id="path9" />
    <path
       fill="#ffffff"
       d="m 441.34744,477.04468 v 0 c 0,-2.04391 1.65692,-3.70087 3.70087,-3.70087 h 15.84237 v 0 c 0.98154,0 1.92286,0.38993 2.61692,1.08396 0.69403,0.69406 1.08395,1.63537 1.08395,2.61691 v 14.80301 c 0,2.04391 -1.65695,3.70087 -3.70087,3.70087 h -15.84237 c -2.04395,0 -3.70087,-1.65696 -3.70087,-3.70087 z"
       fill-rule="evenodd"
       id="path11" />
    <path
       stroke="#4285f4"
       stroke-width="2"
       stroke-linejoin="round"
       stroke-linecap="butt"
       d="m 441.34744,477.04468 v 0 c 0,-2.04391 1.65692,-3.70087 3.70087,-3.70087 h 15.84237 v 0 c 0.98154,0 1.92286,0.38993 2.61692,1.08396 0.69403,0.69406 1.08395,1.63537 1.08395,2.61691 v 14.80301 c 0,2.04391 -1.65695,3.70087 -3.70087,3.70087 h -15.84237 c -2.04395,0 -3.70087,-1.65696 -3.70087,-3.70087 z"
       fill-rule="evenodd"
       id="path13" />
    <path
       fill="#4285f4"
       d="m 457.29358,486.30368 v -3.14063 q 0,-1.26562 -0.3125,-2.25 -0.29687,-0.98437 -0.84375,-1.65625 -0.5625,-0.65625 -1.35937,-1 -0.79688,-0.34375 -1.79688,-0.34375 -1.01562,0 -1.8125,0.34375 -0.79687,0.34375 -1.34375,1 -0.5625,0.67188 -0.85937,1.65625 -0.29688,0.98438 -0.29688,2.25 v 3.14063 q 0,1.28125 0.29688,2.26562 0.29687,0.96875 0.85937,1.625 0.5625,0.6875 1.35938,1.03125 0.8125,0.32813 1.8125,0.32813 1,0 1.79687,-0.32813 0.79688,-0.34375 1.34375,-1.03125 0.5625,-0.65625 0.85938,-1.625 0.29687,-0.98437 0.29687,-2.26562 z m -6.4375,-0.76563 q 0,-0.26562 0,-0.4375 0,-0.1875 0,-0.54687 v -1.78125 q 0,-0.8125 0.14063,-1.42188 0.15625,-0.60937 0.45312,-0.98437 0.26563,-0.34375 0.64063,-0.51563 0.375,-0.17187 0.89062,-0.17187 0.45313,0 0.82813,0.15625 0.375,0.14062 0.625,0.42187 0.28125,0.32813 0.4375,0.85938 0.17187,0.51562 0.20312,1.21875 z m 4.23438,1.14063 q 0,0.82812 -0.15625,1.45312 -0.14063,0.625 -0.4375,1 -0.26563,0.32813 -0.64063,0.5 -0.375,0.17188 -0.85937,0.17188 -0.5,0 -0.89063,-0.17188 -0.375,-0.17187 -0.625,-0.53125 -0.25,-0.3125 -0.40625,-0.79687 -0.15625,-0.48438 -0.20312,-1.10938 l 4.21875,-3.17187 q 0,0.25 0,0.5 0,0.25 0,0.46875 z"
       fill-rule="nonzero"
       id="path15" />
    <path
       fill="#ffffff"
       d="m 497.34613,448.23364 v 0 c 0,-2.04391 1.65692,-3.70084 3.70087,-3.70084 h 15.84234 v 0 c 0.98157,0 1.92292,0.3899 2.61695,1.08396 0.69403,0.69403 1.08392,1.63537 1.08392,2.61688 v 14.80301 c 0,2.04394 -1.65692,3.70087 -3.70087,3.70087 H 501.047 c -2.04395,0 -3.70087,-1.65693 -3.70087,-3.70087 z"
       fill-rule="evenodd"
       id="path17" />
    <path
       stroke="#4285f4"
       stroke-width="2"
       stroke-linejoin="round"
       stroke-linecap="butt"
       d="m 497.34613,448.23364 v 0 c 0,-2.04391 1.65692,-3.70084 3.70087,-3.70084 h 15.84234 v 0 c 0.98157,0 1.92292,0.3899 2.61695,1.08396 0.69403,0.69403 1.08392,1.63537 1.08392,2.61688 v 14.80301 c 0,2.04394 -1.65692,3.70087 -3.70087,3.70087 H 501.047 c -2.04395,0 -3.70087,-1.65693 -3.70087,-3.70087 z"
       fill-rule="evenodd"
       id="path19" />
    <path
       fill="#4285f4"
       d="m 510.6829,462.55515 v -13.26562 h -0.14062 l -5.45313,2.03125 v 1.92187 l 3.39063,-1.25 v 10.5625 z"
       fill-rule="nonzero"
       id="path21" />
    <path
       fill="#ffffff"
       d="m 529.6348,396.3216 v 0 c 0,-2.04395 1.65698,-3.70087 3.70087,-3.70087 h 15.8424 v 0 c 0.98151,0 1.92286,0.3899 2.61689,1.08396 0.69403,0.69403 1.08398,1.63537 1.08398,2.61691 v 14.80298 c 0,2.04394 -1.65698,3.70087 -3.70087,3.70087 h -15.8424 c -2.04389,0 -3.70087,-1.65693 -3.70087,-3.70087 z"
       fill-rule="evenodd"
       id="path23" />
    <path
       stroke="#4285f4"
       stroke-width="2"
       stroke-linejoin="round"
       stroke-linecap="butt"
       d="m 529.6348,396.3216 v 0 c 0,-2.04395 1.65698,-3.70087 3.70087,-3.70087 h 15.8424 v 0 c 0.98151,0 1.92286,0.3899 2.61689,1.08396 0.69403,0.69403 1.08398,1.63537 1.08398,2.61691 v 14.80298 c 0,2.04394 -1.65698,3.70087 -3.70087,3.70087 h -15.8424 c -2.04389,0 -3.70087,-1.65693 -3.70087,-3.70087 z"
       fill-rule="evenodd"
       id="path25" />
    <path
       fill="#4285f4"
       d="m 545.5185,410.64307 v -1.76562 h -6.17187 l 2.9375,-3.14063 q 0.59375,-0.625 1.07812,-1.20312 0.5,-0.59375 0.875,-1.15625 0.34375,-0.57813 0.54688,-1.15625 0.21875,-0.59375 0.21875,-1.21875 0,-0.84375 -0.28125,-1.53125 -0.26563,-0.70313 -0.79688,-1.20313 -0.51562,-0.5 -1.29687,-0.78125 -0.76563,-0.29687 -1.73438,-0.29687 -1.04687,0 -1.89062,0.34375 -0.84375,0.34375 -1.42188,0.90625 -0.59375,0.57812 -0.92187,1.35937 -0.3125,0.76563 -0.3125,1.625 h 2.1875 q 0,-0.57812 0.14062,-1.01562 0.15625,-0.45313 0.45313,-0.78125 0.28125,-0.29688 0.70312,-0.45313 0.42188,-0.17187 1.01563,-0.17187 0.45312,0 0.8125,0.15625 0.375,0.15625 0.64062,0.42187 0.26563,0.28125 0.39063,0.67188 0.14062,0.375 0.14062,0.82812 0,0.35938 -0.0937,0.70313 -0.0937,0.32812 -0.3125,0.71875 -0.21875,0.39062 -0.59375,0.85937 -0.35937,0.46875 -0.89062,1.0625 l -4.32813,4.70313 v 1.51562 z"
       fill-rule="nonzero"
       id="path27" />
    <path
       fill="#ffffff"
       d="m 593.2582,396.6129 v 0 c 0,-2.04391 1.65698,-3.70087 3.70087,-3.70087 h 15.8424 v 0 c 0.98151,0 1.92286,0.38993 2.61689,1.08396 0.69403,0.69406 1.08398,1.63537 1.08398,2.61691 v 14.80301 c 0,2.04391 -1.65692,3.70087 -3.70087,3.70087 h -15.8424 c -2.04389,0 -3.70087,-1.65696 -3.70087,-3.70087 z"
       fill-rule="evenodd"
       id="path29" />
    <path
       stroke="#4285f4"
       stroke-width="2"
       stroke-linejoin="round"
       stroke-linecap="butt"
       d="m 593.2582,396.6129 v 0 c 0,-2.04391 1.65698,-3.70087 3.70087,-3.70087 h 15.8424 v 0 c 0.98151,0 1.92286,0.38993 2.61689,1.08396 0.69403,0.69406 1.08398,1.63537 1.08398,2.61691 v 14.80301 c 0,2.04391 -1.65692,3.70087 -3.70087,3.70087 h -15.8424 c -2.04389,0 -3.70087,-1.65696 -3.70087,-3.70087 z"
       fill-rule="evenodd"
       id="path31" />
    <path
       fill="#4285f4"
       d="m 603.0012,403.32504 v 1.70312 h 1.29688 q 0.5625,0 1.01562,0.14063 0.46875,0.125 0.79688,0.39062 0.32812,0.28125 0.5,0.6875 0.17187,0.40625 0.17187,0.98438 0,0.5 -0.15625,0.90625 -0.14062,0.39062 -0.42187,0.65625 -0.29688,0.28125 -0.71875,0.42187 -0.42188,0.14063 -0.95313,0.14063 -0.48437,0 -0.89062,-0.14063 -0.40625,-0.15625 -0.70313,-0.40625 -0.29687,-0.26562 -0.45312,-0.625 -0.15625,-0.375 -0.15625,-0.8125 h -2.1875 q 0,0.9375 0.35937,1.64063 0.35938,0.6875 0.96875,1.15625 0.59375,0.46875 1.39063,0.71875 0.79687,0.23437 1.65625,0.23437 0.9375,0 1.75,-0.26562 0.82812,-0.26563 1.42187,-0.76563 0.59375,-0.48437 0.9375,-1.20312 0.34375,-0.73438 0.34375,-1.65625 0,-0.5 -0.125,-0.96875 -0.10937,-0.46875 -0.375,-0.89063 -0.26562,-0.39062 -0.6875,-0.71875 -0.40625,-0.32812 -1,-0.53125 0.5,-0.21875 0.875,-0.54687 0.375,-0.32813 0.60938,-0.70313 0.25,-0.375 0.375,-0.78125 0.125,-0.42187 0.125,-0.82812 0,-0.9375 -0.3125,-1.625 -0.3125,-0.70313 -0.875,-1.1875 -0.54688,-0.48438 -1.34375,-0.71875 -0.78125,-0.25 -1.71875,-0.25 -0.92188,0 -1.70313,0.28125 -0.76562,0.26562 -1.32812,0.75 -0.5625,0.5 -0.89063,1.17187 -0.3125,0.65625 -0.3125,1.45313 h 2.17188 q 0,-0.4375 0.15625,-0.78125 0.17187,-0.34375 0.45312,-0.59375 0.26563,-0.25 0.64063,-0.375 0.39062,-0.125 0.82812,-0.125 0.5,0 0.89063,0.14062 0.39062,0.125 0.64062,0.375 0.26563,0.26563 0.39063,0.64063 0.14062,0.375 0.14062,0.84375 0,0.4375 -0.15625,0.8125 -0.14062,0.375 -0.39062,0.64062 -0.28125,0.28125 -0.71875,0.45313 -0.4375,0.15625 -1.03125,0.15625 z"
       fill-rule="nonzero"
       id="path33" />
    <path
       fill="#ffffff"
       d="m 626.837,448.23364 v 0 c 0,-2.04391 1.65692,-3.70084 3.70081,-3.70084 h 15.8424 v 0 c 0.98151,0 1.92285,0.3899 2.61689,1.08396 0.69409,0.69403 1.08398,1.63537 1.08398,2.61688 v 14.80301 c 0,2.04394 -1.65692,3.70087 -3.70087,3.70087 h -15.8424 c -2.04389,0 -3.70081,-1.65693 -3.70081,-3.70087 z"
       fill-rule="evenodd"
       id="path35" />
    <path
       stroke="#4285f4"
       stroke-width="2"
       stroke-linejoin="round"
       stroke-linecap="butt"
       d="m 626.837,448.23364 v 0 c 0,-2.04391 1.65692,-3.70084 3.70081,-3.70084 h 15.8424 v 0 c 0.98151,0 1.92285,0.3899 2.61689,1.08396 0.69409,0.69403 1.08398,1.63537 1.08398,2.61688 v 14.80301 c 0,2.04394 -1.65692,3.70087 -3.70087,3.70087 h -15.8424 c -2.04389,0 -3.70081,-1.65693 -3.70081,-3.70087 z"
       fill-rule="evenodd"
       id="path37" />
    <path
       fill="#4285f4"
       d="m 641.43933,457.82077 v -8.53125 h -2.25 l -5.73437,8.96875 0.0625,1.34375 h 5.73437 v 2.95312 h 2.1875 v -2.95312 h 1.65625 v -1.78125 z m -5.75,0 3.3125,-5.14063 0.25,-0.46875 v 5.60938 z"
       fill-rule="nonzero"
       id="path39" />
    <path
       fill="#ffffff"
       d="m 671.90027,493.0447 v 0 c 0,-2.04395 1.65692,-3.70087 3.70087,-3.70087 h 15.84234 v 0 c 0.98157,0 1.92285,0.3899 2.61695,1.08396 0.69403,0.69403 1.08392,1.63537 1.08392,2.61691 v 14.80298 c 0,2.04394 -1.65692,3.70087 -3.70087,3.70087 h -15.84234 c -2.04395,0 -3.70087,-1.65693 -3.70087,-3.70087 z"
       fill-rule="evenodd"
       id="path41" />
    <path
       stroke="#4285f4"
       stroke-width="2"
       stroke-linejoin="round"
       stroke-linecap="butt"
       d="m 671.90027,493.0447 v 0 c 0,-2.04395 1.65692,-3.70087 3.70087,-3.70087 h 15.84234 v 0 c 0.98157,0 1.92285,0.3899 2.61695,1.08396 0.69403,0.69403 1.08392,1.63537 1.08392,2.61691 v 14.80298 c 0,2.04394 -1.65692,3.70087 -3.70087,3.70087 h -15.84234 c -2.04395,0 -3.70087,-1.65693 -3.70087,-3.70087 z"
       fill-rule="evenodd"
       id="path43" />
    <path
       fill="#4285f4"
       d="m 681.0964,505.5693 h -0.17187 v 1.85937 h 0.1875 q 1.71875,0 2.92187,-0.5 1.21875,-0.5 1.96875,-1.375 0.92188,-1.0625 1.28125,-2.48437 0.375,-1.42188 0.375,-2.98438 v -0.76562 q 0,-1.14063 -0.3125,-2.17188 -0.29687,-1.04687 -0.875,-1.76562 -0.5625,-0.67188 -1.35937,-1.0625 -0.79688,-0.40625 -1.82813,-0.40625 -1.01562,0 -1.8125,0.375 -0.79687,0.375 -1.34375,1 -0.54687,0.64062 -0.84375,1.48437 -0.28125,0.84375 -0.28125,1.79688 0,0.875 0.23438,1.6875 0.25,0.79687 0.73437,1.42187 0.46875,0.60938 1.17188,0.96875 0.71875,0.35938 1.6875,0.35938 0.48437,0 0.875,-0.0781 0.39062,-0.0937 0.71875,-0.25 0.3125,-0.15625 0.5625,-0.34375 0.26562,-0.20312 0.46875,-0.42187 v 0.0469 q -0.0781,0.76563 -0.32813,1.4375 -0.25,0.67188 -0.79687,1.1875 -0.51563,0.46875 -1.3125,0.73438 -0.78125,0.25 -1.92188,0.25 z m 2.20313,-4.28125 q -0.54688,0 -0.95313,-0.23438 -0.39062,-0.23437 -0.65625,-0.60937 -0.26562,-0.39063 -0.39062,-0.89063 -0.125,-0.5 -0.125,-1.04687 0,-0.5625 0.14062,-1.07813 0.14063,-0.51562 0.40625,-0.90625 0.26563,-0.375 0.65625,-0.59375 0.40625,-0.23437 0.90625,-0.23437 0.46875,0 0.85938,0.21875 0.40625,0.21875 0.70312,0.625 0.29688,0.40625 0.46875,1.01562 0.17188,0.60938 0.17188,1.40625 v 0.75 q -0.125,0.34375 -0.34375,0.64063 -0.21875,0.28125 -0.5,0.48437 -0.28125,0.21875 -0.625,0.34375 -0.34375,0.10938 -0.71875,0.10938 z"
       fill-rule="nonzero"
       id="path45" />
    <path
       fill="#ffffff"
       d="m 772.31757,493.0447 v 0 c 0,-2.04395 1.65692,-3.70087 3.70087,-3.70087 h 25.35418 c 0.98157,0 1.92286,0.3899 2.61695,1.08396 0.69403,0.69403 1.08392,1.63537 1.08392,2.61691 v 14.80298 c 0,2.04394 -1.65692,3.70087 -3.70087,3.70087 h -25.35418 c -2.04395,0 -3.70087,-1.65693 -3.70087,-3.70087 z"
       fill-rule="evenodd"
       id="path47" />
    <path
       stroke="#4285f4"
       stroke-width="2"
       stroke-linejoin="round"
       stroke-linecap="butt"
       d="m 772.31757,493.0447 v 0 c 0,-2.04395 1.65692,-3.70087 3.70087,-3.70087 h 25.35418 c 0.98157,0 1.92286,0.3899 2.61695,1.08396 0.69403,0.69403 1.08392,1.63537 1.08392,2.61691 v 14.80298 c 0,2.04394 -1.65692,3.70087 -3.70087,3.70087 h -25.35418 c -2.04395,0 -3.70087,-1.65693 -3.70087,-3.70087 z"
       fill-rule="evenodd"
       id="path49" />
    <path
       fill="#4285f4"
       d="m 784.81244,507.36618 v -13.26563 h -0.14062 l -5.45313,2.03125 v 1.92188 l 3.39063,-1.25 v 10.5625 z m 13.80499,-5.0625 v -3.14063 q 0,-1.26562 -0.3125,-2.25 -0.29687,-0.98437 -0.84375,-1.65625 -0.5625,-0.65625 -1.35937,-1 -0.79688,-0.34375 -1.79688,-0.34375 -1.01562,0 -1.8125,0.34375 -0.79687,0.34375 -1.34375,1 -0.5625,0.67188 -0.85937,1.65625 -0.29688,0.98438 -0.29688,2.25 v 3.14063 q 0,1.28125 0.29688,2.26562 0.29687,0.96875 0.85937,1.625 0.5625,0.6875 1.35938,1.03125 0.8125,0.32813 1.8125,0.32813 1,0 1.79687,-0.32813 0.79688,-0.34375 1.34375,-1.03125 0.5625,-0.65625 0.85938,-1.625 0.29687,-0.98437 0.29687,-2.26562 z m -6.4375,-0.76563 q 0,-0.26562 0,-0.4375 0,-0.1875 0,-0.54687 v -1.78125 q 0,-0.8125 0.14063,-1.42188 0.15625,-0.60937 0.45312,-0.98437 0.26563,-0.34375 0.64063,-0.51563 0.375,-0.17187 0.89062,-0.17187 0.45313,0 0.82813,0.15625 0.375,0.14062 0.625,0.42187 0.28125,0.32813 0.4375,0.85938 0.17187,0.51562 0.20312,1.21875 z m 4.23438,1.14063 q 0,0.82812 -0.15625,1.45312 -0.14063,0.625 -0.4375,1 -0.26563,0.32813 -0.64063,0.5 -0.375,0.17188 -0.85937,0.17188 -0.5,0 -0.89063,-0.17188 -0.375,-0.17187 -0.625,-0.53125 -0.25,-0.3125 -0.40625,-0.79687 -0.15625,-0.48438 -0.20312,-1.10938 l 4.21875,-3.17187 q 0,0.25 0,0.5 0,0.25 0,0.46875 z"
       fill-rule="nonzero"
       id="path51" />
    <path
       fill="#ffffff"
       d="m 739.1152,396.3216 v 0 c 0,-2.04395 1.65692,-3.70087 3.70087,-3.70087 h 15.84234 v 0 c 0.98157,0 1.92285,0.3899 2.61695,1.08396 0.69403,0.69403 1.08392,1.63537 1.08392,2.61691 v 14.80298 c 0,2.04394 -1.65692,3.70087 -3.70087,3.70087 h -15.84234 c -2.04395,0 -3.70087,-1.65693 -3.70087,-3.70087 z"
       fill-rule="evenodd"
       id="path53" />
    <path
       stroke="#4285f4"
       stroke-width="2"
       stroke-linejoin="round"
       stroke-linecap="butt"
       d="m 739.1152,396.3216 v 0 c 0,-2.04395 1.65692,-3.70087 3.70087,-3.70087 h 15.84234 v 0 c 0.98157,0 1.92285,0.3899 2.61695,1.08396 0.69403,0.69403 1.08392,1.63537 1.08392,2.61691 v 14.80298 c 0,2.04394 -1.65692,3.70087 -3.70087,3.70087 h -15.84234 c -2.04395,0 -3.70087,-1.65693 -3.70087,-3.70087 z"
       fill-rule="evenodd"
       id="path55" />
    <path
       fill="#4285f4"
       d="m 746.8738,404.06494 1.75,0.42187 q 0.17187,-0.15625 0.35937,-0.29687 0.1875,-0.14063 0.40625,-0.25 0.21875,-0.10938 0.5,-0.17188 0.29688,-0.0625 0.6875,-0.0625 0.59375,0 1.03125,0.20313 0.45313,0.1875 0.75,0.54687 0.3125,0.35938 0.45313,0.84375 0.15625,0.46875 0.15625,1.04688 0,0.59375 -0.14063,1.09375 -0.125,0.5 -0.375,0.85937 -0.26562,0.35938 -0.67187,0.5625 -0.40625,0.20313 -0.95313,0.20313 -0.92187,0 -1.51562,-0.51563 -0.59375,-0.51562 -0.71875,-1.5 h -2.125 q 0.0625,0.92188 0.4375,1.64063 0.375,0.70312 0.96875,1.17187 0.59375,0.48438 1.35937,0.73438 0.76563,0.23437 1.59375,0.23437 1.10938,0 1.92188,-0.34375 0.8125,-0.35937 1.34375,-0.95312 0.53125,-0.60938 0.78125,-1.40625 0.26562,-0.8125 0.26562,-1.71875 0,-1.03125 -0.28125,-1.85938 -0.26562,-0.82812 -0.76562,-1.40625 -0.53125,-0.57812 -1.28125,-0.875 -0.73438,-0.3125 -1.67188,-0.3125 -0.6875,0 -1.21875,0.17188 -0.53125,0.17187 -0.85937,0.35937 l 0.34375,-3.17187 h 5.3125 v -1.9375 h -7.125 z"
       fill-rule="nonzero"
       id="path57" />
    <path
       fill="#ffffff"
       d="m 802.7385,396.6129 v 0 c 0,-2.04391 1.65692,-3.70087 3.70087,-3.70087 h 15.84234 v 0 c 0.98157,0 1.92285,0.38993 2.61695,1.08396 0.69403,0.69406 1.08392,1.63537 1.08392,2.61691 v 14.80301 c 0,2.04391 -1.65692,3.70087 -3.70087,3.70087 h -15.84234 c -2.04395,0 -3.70087,-1.65696 -3.70087,-3.70087 z"
       fill-rule="evenodd"
       id="path59" />
    <path
       stroke="#4285f4"
       stroke-width="2"
       stroke-linejoin="round"
       stroke-linecap="butt"
       d="m 802.7385,396.6129 v 0 c 0,-2.04391 1.65692,-3.70087 3.70087,-3.70087 h 15.84234 v 0 c 0.98157,0 1.92285,0.38993 2.61695,1.08396 0.69403,0.69406 1.08392,1.63537 1.08392,2.61691 v 14.80301 c 0,2.04391 -1.65692,3.70087 -3.70087,3.70087 h -15.84234 c -2.04395,0 -3.70087,-1.65696 -3.70087,-3.70087 z"
       fill-rule="evenodd"
       id="path61" />
    <path
       fill="#4285f4"
       d="M 816.68463,397.6063 H 816.419 q -1.54687,0 -2.75,0.48437 -1.20312,0.48438 -2.01562,1.39063 -0.96875,1.04687 -1.39063,2.5 -0.40625,1.45312 -0.40625,3.04687 v 0.90625 q 0,1.0625 0.3125,2.03125 0.3125,0.95313 0.90625,1.67188 0.5625,0.67187 1.375,1.07812 0.82813,0.40625 1.875,0.40625 1.03125,0 1.82813,-0.34375 0.79687,-0.35937 1.34375,-0.98437 0.54687,-0.60938 0.82812,-1.42188 0.29688,-0.82812 0.29688,-1.78125 0,-0.85937 -0.23438,-1.65625 -0.21875,-0.8125 -0.6875,-1.4375 -0.46875,-0.60937 -1.1875,-0.96875 -0.70312,-0.375 -1.67187,-0.375 -0.45313,0 -0.875,0.10938 -0.40625,0.0937 -0.73438,0.26562 -0.35937,0.1875 -0.65625,0.42188 -0.28125,0.23437 -0.5,0.48437 0.0625,-0.85937 0.35938,-1.59375 0.3125,-0.73437 0.875,-1.26562 0.54687,-0.53125 1.34375,-0.82813 0.79687,-0.29687 1.875,-0.29687 h 0.15625 z m -2.39063,6.3125 q 0.53125,0 0.9375,0.21875 0.40625,0.20312 0.6875,0.57812 0.26563,0.375 0.40625,0.875 0.14063,0.5 0.14063,1.04688 0,0.59375 -0.14063,1.09375 -0.14062,0.48437 -0.4375,0.85937 -0.28125,0.34375 -0.6875,0.5625 -0.39062,0.20313 -0.90625,0.20313 -0.45312,0 -0.875,-0.20313 -0.40625,-0.21875 -0.71875,-0.625 -0.29687,-0.40625 -0.48437,-1 -0.17188,-0.60937 -0.17188,-1.39062 v -0.67188 q 0.14063,-0.34375 0.35938,-0.60937 0.21875,-0.28125 0.5,-0.48438 0.29687,-0.21875 0.64062,-0.32812 0.35938,-0.125 0.75,-0.125 z"
       fill-rule="nonzero"
       id="path63" />
    <path
       fill="#ffffff"
       d="m 836.31726,448.23364 v 0 c 0,-2.04391 1.65692,-3.70084 3.70087,-3.70084 h 15.84234 v 0 c 0.98157,0 1.92285,0.3899 2.61695,1.08396 0.69403,0.69403 1.08392,1.63537 1.08392,2.61688 v 14.80301 c 0,2.04394 -1.65692,3.70087 -3.70087,3.70087 h -15.84234 c -2.04395,0 -3.70087,-1.65693 -3.70087,-3.70087 z"
       fill-rule="evenodd"
       id="path65" />
    <path
       stroke="#4285f4"
       stroke-width="2"
       stroke-linejoin="round"
       stroke-linecap="butt"
       d="m 836.31726,448.23364 v 0 c 0,-2.04391 1.65692,-3.70084 3.70087,-3.70084 h 15.84234 v 0 c 0.98157,0 1.92285,0.3899 2.61695,1.08396 0.69403,0.69403 1.08392,1.63537 1.08392,2.61688 v 14.80301 c 0,2.04394 -1.65692,3.70087 -3.70087,3.70087 h -15.84234 c -2.04395,0 -3.70087,-1.65693 -3.70087,-3.70087 z"
       fill-rule="evenodd"
       id="path67" />
    <path
       fill="#4285f4"
       d="m 852.3103,450.50827 v -1.21875 h -9.17188 v 1.82812 h 6.875 l -5.29687,11.4375 h 2.29687 z"
       fill-rule="nonzero"
       id="path69" />
    <path
       fill="#000000"
       fill-opacity="0"
       d="m 561.44586,348.6956 v 0 c 0,-2.04391 1.65692,-3.70087 3.70087,-3.70087 h 15.8424 v 0 c 0.98151,0 1.92286,0.38993 2.61689,1.08399 0.69403,0.69403 1.08392,1.63537 1.08392,2.61688 v 14.80301 c 0,2.04394 -1.65692,3.70087 -3.70081,3.70087 h -15.8424 c -2.04395,0 -3.70087,-1.65693 -3.70087,-3.70087 z"
       fill-rule="evenodd"
       id="path71" />
    <path
       fill="#1c4587"
       d="m 571.28864,363.5002 q -0.875,0 -1.53125,-0.42188 -0.65625,-0.42187 -1.01563,-1.23437 -0.35937,-0.82813 -0.35937,-2.01563 0,-1.1875 0.25,-2.28125 0.25,-1.09375 0.70312,-2.03125 0.46875,-0.9375 1.10938,-1.64062 0.65625,-0.70313 1.45312,-1.09375 0.8125,-0.39063 1.75,-0.39063 0.73438,0 1.26563,0.28125 0.53125,0.26563 0.875,0.71875 0.35937,0.4375 0.57812,0.9375 h 0.0937 l 0.625,-1.73437 h 1.23438 l -2.26563,10.70312 h -1.29687 l 0.29687,-2.07812 h -0.0781 q -0.4375,0.59375 -1.01563,1.10937 -0.5625,0.51563 -1.23437,0.84375 -0.67188,0.32813 -1.4375,0.32813 z m 0.51562,-1.35938 q 0.75,0 1.48438,-0.54687 0.75,-0.54688 1.32812,-1.48438 0.59375,-0.95312 0.90625,-2.14062 0.15625,-0.57813 0.20313,-1.04688 0.0625,-0.48437 0.0625,-0.90625 0,-1.01562 -0.53125,-1.625 -0.53125,-0.625 -1.45313,-0.625 -0.64062,0 -1.21875,0.32813 -0.57812,0.32812 -1.04687,0.90625 -0.46875,0.57812 -0.79688,1.34375 -0.32812,0.76562 -0.51562,1.67187 -0.17188,0.89063 -0.17188,1.84375 0,1.125 0.45313,1.70313 0.46875,0.57812 1.29687,0.57812 z"
       fill-rule="nonzero"
       id="path73" />
    <path
       fill="#000000"
       fill-opacity="0"
       d="m 767.72406,348.6956 v 0 c 0,-2.04391 1.65698,-3.70087 3.70087,-3.70087 h 15.8424 v 0 c 0.98151,0 1.92286,0.38993 2.61689,1.08399 0.69403,0.69403 1.08398,1.63537 1.08398,2.61688 v 14.80301 c 0,2.04394 -1.65692,3.70087 -3.70087,3.70087 h -15.8424 c -2.04389,0 -3.70087,-1.65693 -3.70087,-3.70087 z"
       fill-rule="evenodd"
       id="path75" />
    <path
       fill="#1c4587"
       d="m 778.88226,363.5002 q -0.75,0 -1.3125,-0.26563 -0.54688,-0.28125 -0.90625,-0.71875 -0.35938,-0.4375 -0.5625,-0.95312 h -0.0937 l -0.64063,1.73437 h -1.23437 l 3.23437,-15.20312 h 1.60938 l -0.78125,3.67187 q -0.125,0.65625 -0.28125,1.29688 -0.15625,0.64062 -0.28125,1.09375 -0.125,0.4375 -0.17188,0.51562 h 0.0781 q 0.46875,-0.59375 1.01562,-1.10937 0.54688,-0.51563 1.1875,-0.82813 0.65625,-0.3125 1.42188,-0.3125 0.90625,0 1.5625,0.42188 0.67187,0.40625 1.03125,1.21875 0.375,0.8125 0.375,2 0,1.15625 -0.23438,2.25 -0.23437,1.09375 -0.67187,2.03125 -0.4375,0.9375 -1.07813,1.64062 -0.625,0.70313 -1.45312,1.10938 -0.82813,0.40625 -1.8125,0.40625 z m -0.10938,-1.35938 q 0.67188,0 1.23438,-0.34375 0.57812,-0.34375 1.03125,-0.92187 0.46875,-0.59375 0.78125,-1.375 0.3125,-0.78125 0.46875,-1.65625 0.17187,-0.89063 0.17187,-1.79688 0,-1.125 -0.45312,-1.70312 -0.45313,-0.57813 -1.34375,-0.57813 -0.46875,0 -0.95313,0.23438 -0.48437,0.21875 -0.9375,0.64062 -0.45312,0.42188 -0.84375,1 -0.375,0.5625 -0.67187,1.25 -0.28125,0.67188 -0.45313,1.4375 -0.15625,0.76563 -0.15625,1.54688 0,1.03125 0.51563,1.65625 0.53125,0.60937 1.60937,0.60937 z"
       fill-rule="nonzero"
       id="path77" />
    <path
       fill="#c9daf8"
       d="m 892.31775,477.0447 v 0 c 0,-2.04395 1.65692,-3.70087 3.70087,-3.70087 h 30.26757 c 0.98151,0 1.92286,0.3899 2.61689,1.08396 0.69409,0.69403 1.08398,1.63537 1.08398,2.61691 v 14.80298 c 0,2.04394 -1.65692,3.70087 -3.70087,3.70087 h -30.26757 c -2.04395,0 -3.70087,-1.65693 -3.70087,-3.70087 z"
       fill-rule="evenodd"
       id="path79" />
    <path
       stroke="#4285f4"
       stroke-width="2"
       stroke-linejoin="round"
       stroke-linecap="butt"
       d="m 892.31775,477.0447 v 0 c 0,-2.04395 1.65692,-3.70087 3.70087,-3.70087 h 30.26757 c 0.98151,0 1.92286,0.3899 2.61689,1.08396 0.69409,0.69403 1.08398,1.63537 1.08398,2.61691 v 14.80298 c 0,2.04394 -1.65692,3.70087 -3.70087,3.70087 h -30.26757 c -2.04395,0 -3.70087,-1.65693 -3.70087,-3.70087 z"
       fill-rule="evenodd"
       id="path81" />
    <path
       fill="#4285f4"
       d="m 907.26935,491.36618 v -13.26563 h -0.14062 l -5.45313,2.03125 v 1.92188 l 3.39063,-1.25 v 10.5625 z m 11.19556,0 v -13.26563 h -0.14063 l -5.45312,2.03125 v 1.92188 l 3.39062,-1.25 v 10.5625 z"
       fill-rule="nonzero"
       id="path83" />
    <path
       fill="#ffffff"
       d="m 561.3461,493.04468 v 0 c 0,-2.04391 1.65692,-3.70087 3.70087,-3.70087 h 15.84234 v 0 c 0.98157,0 1.92292,0.38993 2.61695,1.08396 0.69403,0.69406 1.08392,1.63537 1.08392,2.61691 v 14.80301 c 0,2.04391 -1.65692,3.70087 -3.70087,3.70087 h -15.84234 c -2.04395,0 -3.70087,-1.65696 -3.70087,-3.70087 z"
       fill-rule="evenodd"
       id="path85" />
    <path
       stroke="#4285f4"
       stroke-width="2"
       stroke-linejoin="round"
       stroke-linecap="butt"
       d="m 561.3461,493.04468 v 0 c 0,-2.04391 1.65692,-3.70087 3.70087,-3.70087 h 15.84234 v 0 c 0.98157,0 1.92292,0.38993 2.61695,1.08396 0.69403,0.69406 1.08392,1.63537 1.08392,2.61691 v 14.80301 c 0,2.04391 -1.65692,3.70087 -3.70087,3.70087 h -15.84234 c -2.04395,0 -3.70087,-1.65696 -3.70087,-3.70087 z"
       fill-rule="evenodd"
       id="path87" />
    <path
       fill="#4285f4"
       d="m 577.0423,497.60056 q 0,-0.89063 -0.3125,-1.57813 -0.3125,-0.6875 -0.84375,-1.14062 -0.5625,-0.48438 -1.3125,-0.71875 -0.73438,-0.25 -1.60938,-0.25 -0.89062,0 -1.64062,0.25 -0.73438,0.23437 -1.25,0.71875 -0.54688,0.46875 -0.85938,1.15625 -0.29687,0.67187 -0.29687,1.5625 0,0.48437 0.14062,0.9375 0.14063,0.45312 0.375,0.82812 0.25,0.35938 0.57813,0.65625 0.34375,0.29688 0.76562,0.51563 -0.48437,0.21875 -0.89062,0.54687 -0.39063,0.32813 -0.67188,0.71875 -0.28125,0.42188 -0.4375,0.92188 -0.15625,0.48437 -0.15625,1.03125 0,0.9375 0.32813,1.64062 0.34375,0.70313 0.9375,1.17188 0.57812,0.48437 1.375,0.73437 0.79687,0.25 1.73437,0.25 0.90625,0 1.6875,-0.25 0.79688,-0.25 1.39063,-0.73437 0.57812,-0.46875 0.90625,-1.17188 0.34375,-0.71875 0.34375,-1.64062 0,-0.64063 -0.21875,-1.1875 -0.20313,-0.5625 -0.5625,-1 -0.26563,-0.32813 -0.625,-0.57813 -0.34375,-0.25 -0.76563,-0.45312 0.35938,-0.17188 0.64063,-0.39063 0.28125,-0.23437 0.5,-0.5 0.35937,-0.40625 0.54687,-0.92187 0.20313,-0.53125 0.20313,-1.125 z m -1.89063,6.04687 q 0,0.5 -0.17187,0.90625 -0.15625,0.39063 -0.4375,0.67188 -0.28125,0.26562 -0.6875,0.42187 -0.39063,0.14063 -0.85938,0.14063 -0.5,0 -0.90625,-0.14063 -0.39062,-0.14062 -0.67187,-0.40625 -0.29688,-0.26562 -0.45313,-0.67187 -0.15625,-0.40625 -0.15625,-0.92188 0,-0.5 0.15625,-0.90625 0.15625,-0.40625 0.4375,-0.70312 0.28125,-0.28125 0.67188,-0.4375 0.39062,-0.15625 0.90625,-0.15625 0.46875,0 0.875,0.15625 0.40625,0.15625 0.6875,0.4375 0.28125,0.29687 0.4375,0.70312 0.17187,0.40625 0.17187,0.90625 z m -0.28125,-5.96875 q 0,0.45313 -0.14062,0.82813 -0.14063,0.35937 -0.375,0.60937 -0.25,0.26563 -0.59375,0.42188 -0.34375,0.14062 -0.78125,0.14062 -0.42188,0 -0.78125,-0.14062 -0.34375,-0.15625 -0.57813,-0.42188 -0.26562,-0.25 -0.39062,-0.60937 -0.125,-0.375 -0.125,-0.82813 0,-0.45312 0.125,-0.82812 0.125,-0.375 0.375,-0.625 0.23437,-0.25 0.57812,-0.39063 0.34375,-0.14062 0.76563,-0.14062 0.4375,0 0.78125,0.14062 0.35937,0.14063 0.60937,0.40625 0.25,0.26563 0.39063,0.64063 0.14062,0.35937 0.14062,0.79687 z"
       fill-rule="nonzero"
       id="path89" />
    <path
       fill="#000000"
       fill-opacity="0"
       d="m 609.44586,479.92133 v 0 c 0,-2.04395 1.65692,-3.70087 3.70087,-3.70087 h 15.8424 v 0 c 0.98151,0 1.92286,0.38993 2.61689,1.08396 0.69403,0.69406 1.08392,1.63537 1.08392,2.61691 v 14.80298 c 0,2.04394 -1.65692,3.70087 -3.70081,3.70087 h -15.8424 c -2.04395,0 -3.70087,-1.65693 -3.70087,-3.70087 z"
       fill-rule="evenodd"
       id="path91" />
    <path
       fill="#1c4587"
       d="m 619.28864,494.72595 q -0.875,0 -1.53125,-0.42188 -0.65625,-0.42187 -1.01563,-1.23437 -0.35937,-0.82813 -0.35937,-2.01563 0,-1.1875 0.25,-2.28125 0.25,-1.09375 0.70312,-2.03125 0.46875,-0.9375 1.10938,-1.64062 0.65625,-0.70313 1.45312,-1.09375 0.8125,-0.39063 1.75,-0.39063 0.73438,0 1.26563,0.28125 0.53125,0.26563 0.875,0.71875 0.35937,0.4375 0.57812,0.9375 h 0.0937 l 0.625,-1.73437 h 1.23438 l -2.26563,10.70312 h -1.29687 l 0.29687,-2.07812 h -0.0781 q -0.4375,0.59375 -1.01563,1.10937 -0.5625,0.51563 -1.23437,0.84375 -0.67188,0.32813 -1.4375,0.32813 z m 0.51562,-1.35938 q 0.75,0 1.48438,-0.54687 0.75,-0.54688 1.32812,-1.48438 0.59375,-0.95312 0.90625,-2.14062 0.15625,-0.57813 0.20313,-1.04688 0.0625,-0.48437 0.0625,-0.90625 0,-1.01562 -0.53125,-1.625 -0.53125,-0.625 -1.45313,-0.625 -0.64062,0 -1.21875,0.32813 -0.57812,0.32812 -1.04687,0.90625 -0.46875,0.57812 -0.79688,1.34375 -0.32812,0.76562 -0.51562,1.67187 -0.17188,0.89063 -0.17188,1.84375 0,1.125 0.45313,1.70313 0.46875,0.57812 1.29687,0.57812 z"
       fill-rule="nonzero"
       id="path93" />
    <path
       fill="#000000"
       fill-opacity="0"
       d="m 721.44586,479.92133 v 0 c 0,-2.04395 1.65692,-3.70087 3.70087,-3.70087 h 15.8424 v 0 c 0.98151,0 1.92286,0.38993 2.61689,1.08396 0.69403,0.69406 1.08392,1.63537 1.08392,2.61691 v 14.80298 c 0,2.04394 -1.65692,3.70087 -3.70081,3.70087 h -15.8424 c -2.04395,0 -3.70087,-1.65693 -3.70087,-3.70087 z"
       fill-rule="evenodd"
       id="path95" />
    <path
       fill="#1c4587"
       d="m 732.60406,494.72595 q -0.75,0 -1.3125,-0.26563 -0.54688,-0.28125 -0.90625,-0.71875 -0.35938,-0.4375 -0.5625,-0.95312 h -0.0937 l -0.64063,1.73437 h -1.23437 l 3.23437,-15.20312 h 1.60938 l -0.78125,3.67187 q -0.125,0.65625 -0.28125,1.29688 -0.15625,0.64062 -0.28125,1.09375 -0.125,0.4375 -0.17188,0.51562 h 0.0781 q 0.46875,-0.59375 1.01562,-1.10937 0.54688,-0.51563 1.1875,-0.82813 0.65625,-0.3125 1.42188,-0.3125 0.90625,0 1.5625,0.42188 0.67187,0.40625 1.03125,1.21875 0.375,0.8125 0.375,2 0,1.15625 -0.23438,2.25 -0.23437,1.09375 -0.67187,2.03125 -0.4375,0.9375 -1.07813,1.64062 -0.625,0.70313 -1.45312,1.10938 -0.82813,0.40625 -1.8125,0.40625 z m -0.10938,-1.35938 q 0.67188,0 1.23438,-0.34375 0.57812,-0.34375 1.03125,-0.92187 0.46875,-0.59375 0.78125,-1.375 0.3125,-0.78125 0.46875,-1.65625 0.17187,-0.89063 0.17187,-1.79688 0,-1.125 -0.45312,-1.70312 -0.45313,-0.57813 -1.34375,-0.57813 -0.46875,0 -0.95313,0.23438 -0.48437,0.21875 -0.9375,0.64062 -0.45312,0.42188 -0.84375,1 -0.375,0.5625 -0.67187,1.25 -0.28125,0.67188 -0.45313,1.4375 -0.15625,0.76563 -0.15625,1.54688 0,1.03125 0.51563,1.65625 0.53125,0.60937 1.60937,0.60937 z"
       fill-rule="nonzero"
       id="path97" />
    <path
       fill="#ffffff"
       d="m 707.0185,448.23367 v 0 c 0,-2.04395 1.65692,-3.70087 3.70087,-3.70087 h 26.39355 c 0.98151,0 1.92285,0.38993 2.61688,1.08396 0.6941,0.69406 1.08399,1.63537 1.08399,2.61691 v 14.80301 c 0,2.04391 -1.65692,3.70084 -3.70087,3.70084 h -26.39355 c -2.04395,0 -3.70087,-1.65693 -3.70087,-3.70084 z"
       fill-rule="evenodd"
       id="path99" />
    <path
       stroke="#4285f4"
       stroke-width="2"
       stroke-linejoin="round"
       stroke-linecap="butt"
       d="m 707.0185,448.23367 v 0 c 0,-2.04395 1.65692,-3.70087 3.70087,-3.70087 h 26.39355 c 0.98151,0 1.92285,0.38993 2.61688,1.08396 0.6941,0.69406 1.08399,1.63537 1.08399,2.61691 v 14.80301 c 0,2.04391 -1.65692,3.70084 -3.70087,3.70084 h -26.39355 c -2.04395,0 -3.70087,-1.65693 -3.70087,-3.70084 z"
       fill-rule="evenodd"
       id="path101" />
    <path
       fill="#4285f4"
       d="m 720.0331,462.55518 v -13.26563 h -0.14063 l -5.45312,2.03125 v 1.92188 l 3.39062,-1.25 v 10.5625 z m 13.74243,0 v -1.76563 h -6.17187 l 2.9375,-3.14062 q 0.59375,-0.625 1.07812,-1.20313 0.5,-0.59375 0.875,-1.15625 0.34375,-0.57812 0.54688,-1.15625 0.21875,-0.59375 0.21875,-1.21875 0,-0.84375 -0.28125,-1.53125 -0.26563,-0.70312 -0.79688,-1.20312 -0.51562,-0.5 -1.29687,-0.78125 -0.76563,-0.29688 -1.73438,-0.29688 -1.04687,0 -1.89062,0.34375 -0.84375,0.34375 -1.42188,0.90625 -0.59375,0.57813 -0.92187,1.35938 -0.3125,0.76562 -0.3125,1.625 h 2.1875 q 0,-0.57813 0.14062,-1.01563 0.15625,-0.45312 0.45313,-0.78125 0.28125,-0.29687 0.70312,-0.45312 0.42188,-0.17188 1.01563,-0.17188 0.45312,0 0.8125,0.15625 0.375,0.15625 0.64062,0.42188 0.26563,0.28125 0.39063,0.67187 0.14062,0.375 0.14062,0.82813 0,0.35937 -0.0937,0.70312 -0.0937,0.32813 -0.3125,0.71875 -0.21875,0.39063 -0.59375,0.85938 -0.35937,0.46875 -0.89062,1.0625 l -4.32813,4.70312 v 1.51563 z"
       fill-rule="nonzero"
       id="path103" />
    <path
       fill="#000000"
       fill-opacity="0"
       d="m 661.34906,431.92133 v 0 c 0,-2.04391 1.65692,-3.70087 3.70087,-3.70087 h 26.39355 c 0.98151,0 1.92285,0.38993 2.61688,1.08399 0.6941,0.69403 1.08399,1.63537 1.08399,2.61688 v 14.80301 c 0,2.04391 -1.65692,3.70087 -3.70087,3.70087 h -26.39355 c -2.04395,0 -3.70087,-1.65696 -3.70087,-3.70087 z"
       fill-rule="evenodd"
       id="path105" />
    <path
       fill="#1c4587"
       d="m 669.2897,447.74158 8.4375,-15.4375 h -1.67187 l -8.4375,15.4375 z m 16.03516,-14.34375 h -1.78125 l -0.45313,2.5625 h -2.6875 l -0.23437,1.39062 h 2.6875 l -0.95313,5.75 q -0.0781,0.71875 0.0469,1.375 0.125,0.64063 0.45312,1.125 0.34375,0.5 0.89063,0.79688 0.54687,0.29687 1.32812,0.3125 0.70313,0.0156 1.45313,-0.0937 0.75,-0.10938 1.35937,-0.45313 l -0.15625,-1.29687 q -0.53125,0.125 -1.0625,0.21875 -0.53125,0.0937 -1.07812,0.0781 -0.46875,-0.0156 -0.78125,-0.17187 -0.29688,-0.17188 -0.46875,-0.4375 -0.15625,-0.28125 -0.21875,-0.64063 -0.0469,-0.375 0,-0.8125 l 0.95312,-5.75 h 3.90625 l 0.25,-1.39062 h -3.90625 z"
       fill-rule="nonzero"
       id="path107" />
    <path
       fill="#000000"
       fill-opacity="0"
       d="m 464.59155,484.44617 32.75589,-28.81888"
       fill-rule="evenodd"
       id="path109" />
    <path
       stroke="#4285f4"
       stroke-width="2"
       stroke-linejoin="round"
       stroke-linecap="butt"
       d="m 464.59152,484.4462 27.60992,-24.29138"
       fill-rule="evenodd"
       id="path111" />
    <path
       fill="#4285f4"
       stroke="#4285f4"
       stroke-width="2"
       stroke-linecap="butt"
       d="m 492.20142,460.1548 -0.20294,3.17435 3.15381,-5.77054 -6.12519,2.39325 z"
       fill-rule="evenodd"
       id="path113" />
    <path
       fill="#000000"
       fill-opacity="0"
       d="m 508.96817,444.5328 20.66141,-40.81891"
       fill-rule="evenodd"
       id="path115" />
    <path
       stroke="#4285f4"
       stroke-width="2"
       stroke-linejoin="round"
       stroke-linecap="butt"
       d="m 508.96817,444.5328 17.56601,-34.70349"
       fill-rule="evenodd"
       id="path117" />
    <path
       fill="#4285f4"
       stroke="#4285f4"
       stroke-width="2"
       stroke-linecap="butt"
       d="m 526.5342,409.82928 0.99097,3.02249 0.78399,-6.5292 -4.79748,4.49771 z"
       fill-rule="evenodd"
       id="path119" />
    <path
       fill="#000000"
       fill-opacity="0"
       d="m 650.08105,455.63516 h 56.94488"
       fill-rule="evenodd"
       id="path121" />
    <path
       stroke="#00ff00"
       stroke-width="2"
       stroke-linejoin="round"
       stroke-linecap="butt"
       d="m 650.08105,455.63516 h 50.0907"
       fill-rule="evenodd"
       id="path123" />
    <path
       fill="#00ff00"
       stroke="#00ff00"
       stroke-width="2"
       stroke-linecap="butt"
       d="m 700.17175,455.63516 -2.24915,2.24918 6.17951,-2.24918 -6.17951,-2.24915 z"
       fill-rule="evenodd"
       id="path125" />
    <path
       fill="#000000"
       fill-opacity="0"
       d="m 616.5023,404.01443 21.95276,40.50394"
       fill-rule="evenodd"
       id="path127" />
    <path
       stroke="#4285f4"
       stroke-width="2"
       stroke-linejoin="round"
       stroke-linecap="butt"
       d="m 616.5023,404.01443 18.68671,34.47794"
       fill-rule="evenodd"
       id="path129" />
    <path
       fill="#4285f4"
       stroke="#4285f4"
       stroke-width="2"
       stroke-linecap="butt"
       d="m 635.189,438.49237 -3.04913,-0.90567 4.92193,4.36114 -0.96716,-6.5046 z"
       fill-rule="evenodd"
       id="path131" />
    <path
       fill="#000000"
       fill-opacity="0"
       d="m 584.5902,500.44617 h 87.30713"
       fill-rule="evenodd"
       id="path133" />
    <path
       stroke="#1c4587"
       stroke-width="2"
       stroke-linejoin="round"
       stroke-linecap="butt"
       d="m 584.5902,500.4462 h 80.45294"
       fill-rule="evenodd"
       id="path135" />
    <path
       fill="#1c4587"
       stroke="#1c4587"
       stroke-width="2"
       stroke-linecap="butt"
       d="m 665.04315,500.4462 -2.24921,2.24918 6.17957,-2.24918 -6.17957,-2.24918 z"
       fill-rule="evenodd"
       id="path137" />
    <path
       fill="#000000"
       fill-opacity="0"
       d="m 695.14435,500.4462 h 77.16534"
       fill-rule="evenodd"
       id="path139" />
    <path
       stroke="#1c4587"
       stroke-width="2"
       stroke-linejoin="round"
       stroke-linecap="butt"
       d="m 695.14435,500.4462 h 70.31122"
       fill-rule="evenodd"
       id="path141" />
    <path
       fill="#1c4587"
       stroke="#1c4587"
       stroke-width="2"
       stroke-linecap="butt"
       d="m 765.45557,500.4462 -2.24921,2.24918 6.17957,-2.24918 -6.17957,-2.24918 z"
       fill-rule="evenodd"
       id="path143" />
    <path
       fill="#000000"
       fill-opacity="0"
       d="m 805.0735,500.4462 87.24408,-16"
       fill-rule="evenodd"
       id="path145" />
    <path
       stroke="#7efc7e"
       stroke-width="3"
       stroke-linejoin="round"
       stroke-linecap="butt"
       d="m 805.0735,500.4462 77.13147,-14.14542"
       fill-rule="evenodd"
       id="path147" />
    <path
       fill="#7efc7e"
       stroke="#7efc7e"
       stroke-width="3"
       stroke-linecap="butt"
       d="m 882.20496,486.30078 -2.70984,3.92697 8.50873,-4.99045 -9.72583,-1.64636 z"
       fill-rule="evenodd"
       id="path149" />
    <path
       fill="#000000"
       fill-opacity="0"
       d="m 541.2569,392.62073 c 0,-12.5 15.90552,-25.03543 31.81103,-25 15.90552,0.0354 31.81104,12.64172 31.81104,25.28345"
       fill-rule="evenodd"
       id="path151" />
    <path
       stroke="#1c4587"
       stroke-width="2"
       stroke-linejoin="round"
       stroke-linecap="butt"
       d="m 541.2569,392.62073 c 0,-12.5 15.90552,-25.03543 31.81103,-25 7.95276,0.0177 15.90552,3.17816 21.87006,7.91437 2.9823,2.36813 5.46753,5.13019 7.20722,8.0903 0.43487,0.74005 0.82324,1.49246 1.16107,2.25421 0.0422,0.0952 0.0837,0.19055 0.12426,0.28607 l 0.015,0.0359"
       fill-rule="evenodd"
       id="path153" />
    <path
       fill="#1c4587"
       stroke="#1c4587"
       stroke-width="2"
       stroke-linecap="butt"
       d="m 603.4455,386.2016 -2.6698,-1.72907 3.49176,5.57252 0.90711,-6.51325 z"
       fill-rule="evenodd"
       id="path155" />
    <path
       fill="#000000"
       fill-opacity="0"
       d="m 604.88025,415.1168 c 0,12.5 -15.90552,25.03543 -31.81103,25 -15.90552,-0.0354 -31.81104,-12.64175 -31.81104,-25.28348"
       fill-rule="evenodd"
       id="path157" />
    <path
       stroke="#4285f4"
       stroke-width="2"
       stroke-linejoin="round"
       stroke-linecap="butt"
       d="m 604.88025,415.1168 c 0,12.5 -15.90552,25.03543 -31.81103,25 -7.95276,-0.0177 -15.90552,-3.17813 -21.87006,-7.91437 -2.9823,-2.3681 -5.46753,-5.13016 -7.20722,-8.0903 -0.43487,-0.74002 -0.82324,-1.49246 -1.16107,-2.25418 -0.0422,-0.0952 -0.0837,-0.19058 -0.12433,-0.2861 l -0.0149,-0.0359"
       fill-rule="evenodd"
       id="path159" />
    <path
       fill="#4285f4"
       stroke="#4285f4"
       stroke-width="2"
       stroke-linecap="butt"
       d="m 542.6916,421.53595 2.6698,1.72906 -3.49176,-5.57254 -0.90711,6.51328 z"
       fill-rule="evenodd"
       id="path161" />
    <path
       fill="#000000"
       fill-opacity="0"
       d="m 723.91614,444.5328 15.21259,-40.81891"
       fill-rule="evenodd"
       id="path163" />
    <path
       stroke="#4285f4"
       stroke-width="2"
       stroke-linejoin="round"
       stroke-linecap="butt"
       d="m 723.9162,444.5328 12.81897,-34.39624"
       fill-rule="evenodd"
       id="path165" />
    <path
       fill="#4285f4"
       stroke="#4285f4"
       stroke-width="2"
       stroke-linecap="butt"
       d="m 736.73517,410.13654 1.32208,2.89304 0.0505,-6.57593 -4.26557,5.005 z"
       fill-rule="evenodd"
       id="path167" />
    <path
       fill="#000000"
       fill-opacity="0"
       d="M 520.5902,455.63516 H 626.82647"
       fill-rule="evenodd"
       id="path169" />
    <path
       stroke="#4285f4"
       stroke-width="2"
       stroke-linejoin="round"
       stroke-linecap="butt"
       d="m 520.5902,455.63516 h 99.38208"
       fill-rule="evenodd"
       id="path171" />
    <path
       fill="#4285f4"
       stroke="#4285f4"
       stroke-width="2"
       stroke-linecap="butt"
       d="m 619.9723,455.63516 -2.24921,2.24918 6.17957,-2.24918 -6.17957,-2.24915 z"
       fill-rule="evenodd"
       id="path173" />
    <path
       fill="#000000"
       fill-opacity="0"
       d="m 825.9826,404.01443 21.95276,40.50394"
       fill-rule="evenodd"
       id="path175" />
    <path
       stroke="#4285f4"
       stroke-width="2"
       stroke-linejoin="round"
       stroke-linecap="butt"
       d="m 825.9826,404.01443 18.68671,34.47794"
       fill-rule="evenodd"
       id="path177" />
    <path
       fill="#4285f4"
       stroke="#4285f4"
       stroke-width="2"
       stroke-linecap="butt"
       d="m 844.6693,438.49237 -3.04913,-0.90567 4.92199,4.36114 -0.96716,-6.5046 z"
       fill-rule="evenodd"
       id="path179" />
    <path
       fill="#000000"
       fill-opacity="0"
       d="m 750.7372,392.62073 c 0,-12.5 15.90552,-25.03543 31.81103,-25 15.90552,0.0354 31.81104,12.64172 31.81104,25.28345"
       fill-rule="evenodd"
       id="path181" />
    <path
       stroke="#1c4587"
       stroke-width="2"
       stroke-linejoin="round"
       stroke-linecap="butt"
       d="m 750.7372,392.62073 c 0,-12.5 15.90552,-25.03543 31.81103,-25 7.95276,0.0177 15.90552,3.17816 21.87012,7.91437 2.98224,2.36813 5.46747,5.13019 7.20716,8.0903 0.43487,0.74005 0.82324,1.49246 1.16107,2.25421 0.0422,0.0952 0.0837,0.19055 0.12426,0.28607 l 0.015,0.0359"
       fill-rule="evenodd"
       id="path183" />
    <path
       fill="#1c4587"
       stroke="#1c4587"
       stroke-width="2"
       stroke-linecap="butt"
       d="m 812.92584,386.2016 -2.6698,-1.72907 3.49176,5.57252 0.9071,-6.51325 z"
       fill-rule="evenodd"
       id="path185" />
    <path
       fill="#000000"
       fill-opacity="0"
       d="m 814.3606,415.1168 c 0,12.5 -15.90552,25.03543 -31.81103,25 -15.90552,-0.0354 -31.81104,-12.64175 -31.81104,-25.28348"
       fill-rule="evenodd"
       id="path187" />
    <path
       stroke="#4285f4"
       stroke-width="2"
       stroke-linejoin="round"
       stroke-linecap="butt"
       d="m 814.36053,415.1168 c 0,12.5 -15.90546,25.03543 -31.81097,25 -7.95276,-0.0177 -15.90552,-3.17813 -21.87012,-7.91437 -2.98224,-2.3681 -5.46753,-5.13016 -7.20715,-8.0903 -0.43488,-0.74002 -0.82325,-1.49246 -1.16114,-2.25418 -0.0422,-0.0952 -0.0836,-0.19058 -0.1242,-0.2861 l -0.015,-0.0359"
       fill-rule="evenodd"
       id="path189" />
    <path
       fill="#4285f4"
       stroke="#4285f4"
       stroke-width="2"
       stroke-linecap="butt"
       d="m 752.17194,421.53595 2.6698,1.72906 -3.49176,-5.57254 -0.90711,6.51328 z"
       fill-rule="evenodd"
       id="path191" />
    <path
       fill="#000000"
       fill-opacity="0"
       d="m 464.59155,484.44617 96.75592,16"
       fill-rule="evenodd"
       id="path193" />
    <path
       stroke="#4285f4"
       stroke-width="2"
       stroke-linejoin="round"
       stroke-linecap="butt"
       d="m 464.59152,484.4462 89.99356,14.88177"
       fill-rule="evenodd"
       id="path195" />
    <path
       fill="#4285f4"
       stroke="#4285f4"
       stroke-width="2"
       stroke-linecap="butt"
       d="m 554.5851,499.32794 -2.58594,1.85208 6.46369,-1.21084 -5.7298,-3.22721 z"
       fill-rule="evenodd"
       id="path197" />
    <path
       fill="#000000"
       fill-opacity="0"
       d="m 859.56134,455.63516 32.75592,28.81888"
       fill-rule="evenodd"
       id="path199" />
    <path
       stroke="#4285f4"
       stroke-width="2"
       stroke-linejoin="round"
       stroke-linecap="butt"
       d="m 859.56134,455.63516 27.60992,24.29138"
       fill-rule="evenodd"
       id="path201" />
    <path
       fill="#4285f4"
       stroke="#4285f4"
       stroke-width="2"
       stroke-linecap="butt"
       d="m 887.17126,479.92657 -3.17432,0.20294 6.12519,2.39325 -3.15387,-5.77051 z"
       fill-rule="evenodd"
       id="path203" />
    <path
       fill="#000000"
       fill-opacity="0"
       d="m 740.8138,455.63516 h 95.49603"
       fill-rule="evenodd"
       id="path205" />
    <path
       stroke="#4285f4"
       stroke-width="2"
       stroke-linejoin="round"
       stroke-linecap="butt"
       d="m 740.81384,455.63516 h 88.64185"
       fill-rule="evenodd"
       id="path207" />
    <path
       fill="#4285f4"
       stroke="#4285f4"
       stroke-width="2"
       stroke-linecap="butt"
       d="m 829.4557,455.63516 -2.24915,2.24918 6.17951,-2.24918 -6.17951,-2.24915 z"
       fill-rule="evenodd"
       id="path209" />
    <path
       fill="#000000"
       fill-opacity="0"
       d="m 821.56696,502.12607 v 0 c 0,-2.04395 1.65692,-3.70087 3.70081,-3.70087 h 41.76367 c 0.9815,0 1.92285,0.3899 2.61688,1.08396 0.69403,0.69403 1.08398,1.63537 1.08398,2.61691 v 14.80301 c 0,2.04388 -1.65692,3.70087 -3.70086,3.70087 h -41.76367 c -2.04389,0 -3.70081,-1.65699 -3.70081,-3.70087 z"
       fill-rule="evenodd"
       id="path211" />
    <path
       fill="#1c4587"
       d="m 831.3234,517.9463 8.4375,-15.43747 h -1.67188 l -8.4375,15.43747 z m 18.20703,-6.70309 0.26563,-1.48438 h -7.26563 l -0.25,1.48438 z m 9.56641,-7.64063 h -1.78125 l -0.45313,2.5625 h -2.6875 l -0.23437,1.39063 h 2.6875 l -0.95313,5.74996 q -0.0781,0.71875 0.0469,1.375 0.125,0.64063 0.45312,1.125 0.34375,0.5 0.89063,0.79688 0.54687,0.29687 1.32812,0.3125 0.70313,0.0156 1.45313,-0.0937 0.75,-0.10938 1.35937,-0.45313 l -0.15625,-1.29687 q -0.53125,0.125 -1.0625,0.21875 -0.53125,0.0937 -1.07812,0.0781 -0.46875,-0.0156 -0.78125,-0.17187 -0.29688,-0.17188 -0.46875,-0.4375 -0.15625,-0.28125 -0.21875,-0.64063 -0.0469,-0.375 0,-0.8125 l 0.95312,-5.74996 h 3.90625 l 0.25,-1.39063 h -3.90625 z"
       fill-rule="nonzero"
       id="path213" />
  </g>
</svg>
