<?xml version="1.0" encoding="UTF-8" standalone="no"?>
<!DOCTYPE svg PUBLIC "-//W3C//DTD SVG 1.1//EN"
 "http://www.w3.org/Graphics/SVG/1.1/DTD/svg11.dtd">
<!-- Generated by graphviz version 7.1.0 (0)
 -->
<!-- Title: DFA Pages: 1 -->
<svg width="484pt" height="127pt"
 viewBox="0.00 0.00 484.17 127.26" xmlns="http://www.w3.org/2000/svg" xmlns:xlink="http://www.w3.org/1999/xlink">
<g id="graph0" class="graph" transform="scale(1 1) rotate(0) translate(4 123.26)">
<title>DFA</title>
<polygon fill="white" stroke="none" points="-4,4 -4,-123.26 480.17,-123.26 480.17,4 -4,4"/>
<!-- n -->
<g id="node1" class="node">
<title>n</title>
<ellipse fill="black" stroke="black" cx="1.8" cy="-70" rx="1.8" ry="1.8"/>
</g>
<!-- n0 -->
<g id="node2" class="node">
<title>n0</title>
<ellipse fill="none" stroke="black" cx="58.28" cy="-70" rx="17.86" ry="16.03"/>
<text text-anchor="middle" x="58.28" y="-66.3" font-family="Courier,monospace" font-size="14.00">0</text>
</g>
<!-- n&#45;&gt;n0 -->
<g id="edge1" class="edge">
<title>n&#45;&gt;n0</title>
<path fill="none" stroke="black" stroke-dasharray="1,5" d="M3.75,-70C7.07,-70 18.63,-70 30.16,-70"/>
<polygon fill="black" stroke="black" points="40.08,-70 30.08,-74.5 35.08,-70 30.08,-70 30.08,-70 30.08,-70 35.08,-70 30.08,-65.5 40.08,-70 40.08,-70"/>
</g>
<!-- n1 -->
<g id="node3" class="node">
<title>n1</title>
<ellipse fill="none" stroke="black" cx="171.63" cy="-70" rx="17.86" ry="16.03"/>
<text text-anchor="middle" x="171.63" y="-66.3" font-family="Courier,monospace" font-size="14.00">1</text>
</g>
<!-- n0&#45;&gt;n1 -->
<g id="edge2" class="edge">
<title>n0&#45;&gt;n1</title>
<path fill="none" stroke="black" d="M76.19,-70C94.09,-70 122.62,-70 143.64,-70"/>
<polygon fill="black" stroke="black" points="153.56,-70 143.56,-74.5 148.56,-70 143.56,-70 143.56,-70 143.56,-70 148.56,-70 143.56,-65.5 153.56,-70 153.56,-70"/>
<text text-anchor="middle" x="114.96" y="-73.8" font-family="Courier,monospace" font-size="14.00">1/3↑ </text>
</g>
<!-- n2 -->
<g id="node4" class="node">
<title>n2</title>
<ellipse fill="none" stroke="black" cx="284.99" cy="-70" rx="17.86" ry="16.03"/>
<text text-anchor="middle" x="284.99" y="-66.3" font-family="Courier,monospace" font-size="14.00">2</text>
</g>
<!-- n1&#45;&gt;n2 -->
<g id="edge3" class="edge">
<title>n1&#45;&gt;n2</title>
<path fill="none" stroke="black" d="M189.55,-70C207.45,-70 235.97,-70 256.99,-70"/>
<polygon fill="black" stroke="black" points="266.92,-70 256.92,-74.5 261.92,-70 256.92,-70 256.92,-70 256.92,-70 261.92,-70 256.92,-65.5 266.92,-70 266.92,-70"/>
<text text-anchor="middle" x="228.31" y="-73.8" font-family="Courier,monospace" font-size="14.00">1/4↑ </text>
</g>
<!-- n3 -->
<g id="node5" class="node">
<title>n3</title>
<ellipse fill="lightgray" stroke="black" cx="422.17" cy="-70" rx="17.86" ry="16.03"/>
<text text-anchor="middle" x="422.17" y="-66.3" font-family="Courier,monospace" font-size="14.00">3</text>
</g>
<!-- n2&#45;&gt;n3 -->
<g id="edge4" class="edge">
<title>n2&#45;&gt;n3</title>
<path fill="none" stroke="black" d="M303.11,-70C326.06,-70 367.06,-70 394.19,-70"/>
<polygon fill="black" stroke="black" points="404.18,-70 394.18,-74.5 399.18,-70 394.18,-70 394.18,-70 394.18,-70 399.18,-70 394.18,-65.5 404.18,-70 404.18,-70"/>
<text text-anchor="middle" x="341.67" y="-73.8" font-family="Courier,monospace" font-size="14.00">1/5↑ </text>
</g>
<!-- n3&#45;&gt;n3 -->
<g id="edge6" class="edge">
<title>n3&#45;&gt;n3</title>
<path fill="none" stroke="black" d="M409.76,-81.94C403.72,-92.72 407.86,-104.26 422.17,-104.26 432.23,-104.26 437.26,-98.56 437.26,-91.42"/>
<polygon fill="black" stroke="black" points="434.57,-81.94 441.63,-90.33 435.94,-86.75 437.3,-91.56 437.3,-91.56 437.3,-91.56 435.94,-86.75 432.97,-92.79 434.57,-81.94 434.57,-81.94"/>
<text text-anchor="middle" x="422.17" y="-108.06" font-family="Courier,monospace" font-size="14.00">1/3=4 4=5 5↑ </text>
</g>
<!-- dr3 -->
<g id="node6" class="node">
<title>dr3</title>
<text text-anchor="middle" x="422.17" y="-14.3" font-family="Courier,monospace" font-size="14.00">/2=3 (2)</text>
</g>
<!-- n3&#45;&gt;dr3 -->
<g id="edge5" class="edge">
<title>n3:s&#45;&gt;dr3:n</title>
<path fill="none" stroke="black" stroke-dasharray="1,5" d="M422.17,-45.79C422.17,-47.97 422.17,-50.29 422.17,-53.74"/>
<polygon fill="black" stroke="black" points="422.17,-36 426.67,-46 422.17,-41 422.17,-46 422.17,-46 422.17,-46 422.17,-41 417.67,-46 422.17,-36 422.17,-36"/>
</g>
</g>
</svg>
