<?xml version="1.0" encoding="UTF-8" standalone="no"?>
<!DOCTYPE svg PUBLIC "-//W3C//DTD SVG 1.1//EN"
 "http://www.w3.org/Graphics/SVG/1.1/DTD/svg11.dtd">
<!-- Generated by graphviz version 7.1.0 (0)
 -->
<!-- Title: NFA Pages: 1 -->
<svg width="666pt" height="84pt"
 viewBox="0.00 0.00 666.00 83.60" xmlns="http://www.w3.org/2000/svg" xmlns:xlink="http://www.w3.org/1999/xlink">
<g id="graph0" class="graph" transform="scale(1 1) rotate(0) translate(4 79.6)">
<title>NFA</title>
<polygon fill="white" stroke="none" points="-4,4 -4,-79.6 662,-79.6 662,4 -4,4"/>
<!-- 8 -->
<g id="node1" class="node">
<title>8</title>
<path fill="none" stroke="black" d="M7.67,-9.1C7.67,-9.1 17.33,-9.1 17.33,-9.1 21.17,-9.1 25,-12.93 25,-16.77 25,-16.77 25,-24.43 25,-24.43 25,-28.27 21.17,-32.1 17.33,-32.1 17.33,-32.1 7.67,-32.1 7.67,-32.1 3.83,-32.1 0,-28.27 0,-24.43 0,-24.43 0,-16.77 0,-16.77 0,-12.93 3.83,-9.1 7.67,-9.1"/>
<text text-anchor="middle" x="12.5" y="-16.9" font-family="Courier,monospace" font-size="14.00">8</text>
</g>
<!-- 7 -->
<g id="node2" class="node">
<title>7</title>
<path fill="none" stroke="black" d="M77.67,-33.1C77.67,-33.1 87.33,-33.1 87.33,-33.1 91.17,-33.1 95,-36.93 95,-40.77 95,-40.77 95,-48.43 95,-48.43 95,-52.27 91.17,-56.1 87.33,-56.1 87.33,-56.1 77.67,-56.1 77.67,-56.1 73.83,-56.1 70,-52.27 70,-48.43 70,-48.43 70,-40.77 70,-40.77 70,-36.93 73.83,-33.1 77.67,-33.1"/>
<text text-anchor="middle" x="82.5" y="-40.9" font-family="Courier,monospace" font-size="14.00">7</text>
</g>
<!-- 8&#45;&gt;7 -->
<g id="edge1" class="edge">
<title>8&#45;&gt;7</title>
<path fill="none" stroke="black" d="M24.73,-24.56C34.51,-28.02 48.95,-33.11 60.82,-37.3"/>
<polygon fill="black" stroke="black" points="70.03,-40.55 59.1,-41.47 65.31,-38.89 60.6,-37.22 60.6,-37.22 60.6,-37.22 65.31,-38.89 62.1,-32.98 70.03,-40.55 70.03,-40.55"/>
<text text-anchor="middle" x="47.5" y="-37.4" font-family="Courier,monospace" font-size="14.00"> </text>
</g>
<!-- 5 -->
<g id="node3" class="node">
<title>5</title>
<path fill="none" stroke="black" d="M225.67,-9.1C225.67,-9.1 235.33,-9.1 235.33,-9.1 239.17,-9.1 243,-12.93 243,-16.77 243,-16.77 243,-24.43 243,-24.43 243,-28.27 239.17,-32.1 235.33,-32.1 235.33,-32.1 225.67,-32.1 225.67,-32.1 221.83,-32.1 218,-28.27 218,-24.43 218,-24.43 218,-16.77 218,-16.77 218,-12.93 221.83,-9.1 225.67,-9.1"/>
<text text-anchor="middle" x="230.5" y="-16.9" font-family="Courier,monospace" font-size="14.00">5</text>
</g>
<!-- 8&#45;&gt;5 -->
<g id="edge2" class="edge">
<title>8&#45;&gt;5</title>
<path fill="none" stroke="lightgray" d="M24.81,-20.6C59.21,-20.6 163,-20.6 208.14,-20.6"/>
<polygon fill="lightgray" stroke="lightgray" points="218.04,-20.6 208.04,-25.1 213.04,-20.6 208.04,-20.6 208.04,-20.6 208.04,-20.6 213.04,-20.6 208.04,-16.1 218.04,-20.6 218.04,-20.6"/>
<text text-anchor="middle" x="121.5" y="-24.4" font-family="Courier,monospace" font-size="14.00"> </text>
</g>
<!-- 6 -->
<g id="node4" class="node">
<title>6</title>
<path fill="none" stroke="black" d="M155.67,-33.1C155.67,-33.1 165.33,-33.1 165.33,-33.1 169.17,-33.1 173,-36.93 173,-40.77 173,-40.77 173,-48.43 173,-48.43 173,-52.27 169.17,-56.1 165.33,-56.1 165.33,-56.1 155.67,-56.1 155.67,-56.1 151.83,-56.1 148,-52.27 148,-48.43 148,-48.43 148,-40.77 148,-40.77 148,-36.93 151.83,-33.1 155.67,-33.1"/>
<text text-anchor="middle" x="160.5" y="-40.9" font-family="Courier,monospace" font-size="14.00">6</text>
</g>
<!-- 7&#45;&gt;6 -->
<g id="edge3" class="edge">
<title>7&#45;&gt;6</title>
<path fill="none" stroke="black" d="M94.78,-51.92C100.08,-54.93 106.63,-58.07 113,-59.6 120.35,-61.36 122.65,-61.36 130,-59.6 133.18,-58.84 136.41,-57.67 139.51,-56.32"/>
<polygon fill="black" stroke="black" points="148.22,-51.92 141.32,-60.44 143.76,-54.17 139.29,-56.43 139.29,-56.43 139.29,-56.43 143.76,-54.17 137.26,-52.41 148.22,-51.92 148.22,-51.92"/>
<text text-anchor="middle" x="121.5" y="-64.4" font-family="Courier,monospace" font-size="14.00">97</text>
</g>
<!-- 4 -->
<g id="node5" class="node">
<title>4</title>
<path fill="none" stroke="black" d="M336.67,-9.1C336.67,-9.1 346.33,-9.1 346.33,-9.1 350.17,-9.1 354,-12.93 354,-16.77 354,-16.77 354,-24.43 354,-24.43 354,-28.27 350.17,-32.1 346.33,-32.1 346.33,-32.1 336.67,-32.1 336.67,-32.1 332.83,-32.1 329,-28.27 329,-24.43 329,-24.43 329,-16.77 329,-16.77 329,-12.93 332.83,-9.1 336.67,-9.1"/>
<text text-anchor="middle" x="341.5" y="-16.9" font-family="Courier,monospace" font-size="14.00">4</text>
</g>
<!-- 5&#45;&gt;4 -->
<g id="edge6" class="edge">
<title>5&#45;&gt;4</title>
<path fill="none" stroke="black" d="M242.75,-20.6C260.79,-20.6 296.44,-20.6 319.34,-20.6"/>
<polygon fill="black" stroke="black" points="329.14,-20.6 319.14,-25.1 324.14,-20.6 319.14,-20.6 319.14,-20.6 319.14,-20.6 324.14,-20.6 319.14,-16.1 329.14,-20.6 329.14,-20.6"/>
<text text-anchor="middle" x="286" y="-24.4" font-family="Courier,monospace" font-size="14.00">/t↑(4)</text>
</g>
<!-- 6&#45;&gt;7 -->
<g id="edge4" class="edge">
<title>6&#45;&gt;7</title>
<path fill="none" stroke="black" d="M148.05,-42.68C142.6,-41.86 135.98,-41 130,-40.6 122.46,-40.09 120.54,-40.09 113,-40.6 110.29,-40.78 107.45,-41.06 104.64,-41.38"/>
<polygon fill="black" stroke="black" points="94.95,-42.68 104.27,-36.89 99.91,-42.02 104.86,-41.35 104.86,-41.35 104.86,-41.35 99.91,-42.02 105.46,-45.81 94.95,-42.68 94.95,-42.68"/>
<text text-anchor="middle" x="121.5" y="-44.4" font-family="Courier,monospace" font-size="14.00"> </text>
</g>
<!-- 6&#45;&gt;5 -->
<g id="edge5" class="edge">
<title>6&#45;&gt;5</title>
<path fill="none" stroke="lightgray" d="M172.73,-40.64C182.51,-37.18 196.95,-32.09 208.82,-27.9"/>
<polygon fill="lightgray" stroke="lightgray" points="218.03,-24.65 210.1,-32.22 213.31,-26.31 208.6,-27.98 208.6,-27.98 208.6,-27.98 213.31,-26.31 207.1,-23.73 218.03,-24.65 218.03,-24.65"/>
<text text-anchor="middle" x="195.5" y="-37.4" font-family="Courier,monospace" font-size="14.00"> </text>
</g>
<!-- 3 -->
<g id="node6" class="node">
<title>3</title>
<path fill="none" stroke="black" d="M414.67,-9.1C414.67,-9.1 424.33,-9.1 424.33,-9.1 428.17,-9.1 432,-12.93 432,-16.77 432,-16.77 432,-24.43 432,-24.43 432,-28.27 428.17,-32.1 424.33,-32.1 424.33,-32.1 414.67,-32.1 414.67,-32.1 410.83,-32.1 407,-28.27 407,-24.43 407,-24.43 407,-16.77 407,-16.77 407,-12.93 410.83,-9.1 414.67,-9.1"/>
<text text-anchor="middle" x="419.5" y="-16.9" font-family="Courier,monospace" font-size="14.00">3</text>
</g>
<!-- 4&#45;&gt;3 -->
<g id="edge7" class="edge">
<title>4&#45;&gt;3</title>
<path fill="none" stroke="black" d="M353.71,-20.6C365.16,-20.6 383.22,-20.6 397.36,-20.6"/>
<polygon fill="black" stroke="black" points="407.24,-20.6 397.24,-25.1 402.24,-20.6 397.24,-20.6 397.24,-20.6 397.24,-20.6 402.24,-20.6 397.24,-16.1 407.24,-20.6 407.24,-20.6"/>
<text text-anchor="middle" x="380.5" y="-24.4" font-family="Courier,monospace" font-size="14.00">97</text>
</g>
<!-- 2 -->
<g id="node7" class="node">
<title>2</title>
<path fill="none" stroke="black" d="M492.67,-9.1C492.67,-9.1 502.33,-9.1 502.33,-9.1 506.17,-9.1 510,-12.93 510,-16.77 510,-16.77 510,-24.43 510,-24.43 510,-28.27 506.17,-32.1 502.33,-32.1 502.33,-32.1 492.67,-32.1 492.67,-32.1 488.83,-32.1 485,-28.27 485,-24.43 485,-24.43 485,-16.77 485,-16.77 485,-12.93 488.83,-9.1 492.67,-9.1"/>
<text text-anchor="middle" x="497.5" y="-16.9" font-family="Courier,monospace" font-size="14.00">2</text>
</g>
<!-- 3&#45;&gt;2 -->
<g id="edge8" class="edge">
<title>3&#45;&gt;2</title>
<path fill="none" stroke="black" d="M431.71,-20.6C443.16,-20.6 461.22,-20.6 475.36,-20.6"/>
<polygon fill="black" stroke="black" points="485.24,-20.6 475.24,-25.1 480.24,-20.6 475.24,-20.6 475.24,-20.6 475.24,-20.6 480.24,-20.6 475.24,-16.1 485.24,-20.6 485.24,-20.6"/>
<text text-anchor="middle" x="458.5" y="-24.4" font-family="Courier,monospace" font-size="14.00">97</text>
</g>
<!-- 1 -->
<g id="node8" class="node">
<title>1</title>
<path fill="none" stroke="black" d="M570.67,-9.1C570.67,-9.1 580.33,-9.1 580.33,-9.1 584.17,-9.1 588,-12.93 588,-16.77 588,-16.77 588,-24.43 588,-24.43 588,-28.27 584.17,-32.1 580.33,-32.1 580.33,-32.1 570.67,-32.1 570.67,-32.1 566.83,-32.1 563,-28.27 563,-24.43 563,-24.43 563,-16.77 563,-16.77 563,-12.93 566.83,-9.1 570.67,-9.1"/>
<text text-anchor="middle" x="575.5" y="-16.9" font-family="Courier,monospace" font-size="14.00">1</text>
</g>
<!-- 2&#45;&gt;1 -->
<g id="edge9" class="edge">
<title>2&#45;&gt;1</title>
<path fill="none" stroke="black" d="M509.71,-20.6C521.16,-20.6 539.22,-20.6 553.36,-20.6"/>
<polygon fill="black" stroke="black" points="563.24,-20.6 553.24,-25.1 558.24,-20.6 553.24,-20.6 553.24,-20.6 553.24,-20.6 558.24,-20.6 553.24,-16.1 563.24,-20.6 563.24,-20.6"/>
<text text-anchor="middle" x="536.5" y="-24.4" font-family="Courier,monospace" font-size="14.00">97</text>
</g>
<!-- 1&#45;&gt;2 -->
<g id="edge10" class="edge">
<title>1&#45;&gt;2</title>
<path fill="none" stroke="black" d="M563.21,-11.15C558.01,-7.4 551.55,-3.52 545,-1.6 537.75,0.53 535.25,0.53 528,-1.6 524.62,-2.59 521.27,-4.1 518.1,-5.85"/>
<polygon fill="black" stroke="black" points="509.79,-11.15 515.8,-1.98 514,-8.47 518.22,-5.78 518.22,-5.78 518.22,-5.78 514,-8.47 520.64,-9.57 509.79,-11.15 509.79,-11.15"/>
<text text-anchor="middle" x="536.5" y="-5.4" font-family="Courier,monospace" font-size="14.00"> </text>
</g>
<!-- 0 -->
<g id="node9" class="node">
<title>0</title>
<path fill="none" stroke="black" d="M640.67,-9.1C640.67,-9.1 650.33,-9.1 650.33,-9.1 654.17,-9.1 658,-12.93 658,-16.77 658,-16.77 658,-24.43 658,-24.43 658,-28.27 654.17,-32.1 650.33,-32.1 650.33,-32.1 640.67,-32.1 640.67,-32.1 636.83,-32.1 633,-28.27 633,-24.43 633,-24.43 633,-16.77 633,-16.77 633,-12.93 636.83,-9.1 640.67,-9.1"/>
<text text-anchor="middle" x="645.5" y="-16.9" font-family="Courier,monospace" font-size="14.00">0</text>
</g>
<!-- 1&#45;&gt;0 -->
<g id="edge11" class="edge">
<title>1&#45;&gt;0</title>
<path fill="none" stroke="lightgray" d="M587.73,-20.6C597.32,-20.6 611.38,-20.6 623.11,-20.6"/>
<polygon fill="lightgray" stroke="lightgray" points="633.03,-20.6 623.03,-25.1 628.03,-20.6 623.03,-20.6 623.03,-20.6 623.03,-20.6 628.03,-20.6 623.03,-16.1 633.03,-20.6 633.03,-20.6"/>
<text text-anchor="middle" x="610.5" y="-24.4" font-family="Courier,monospace" font-size="14.00"> </text>
</g>
</g>
</svg>
