<?xml version="1.0" encoding="UTF-8" standalone="no"?>
<!DOCTYPE svg PUBLIC "-//W3C//DTD SVG 1.1//EN"
 "http://www.w3.org/Graphics/SVG/1.1/DTD/svg11.dtd">
<!-- Generated by graphviz version 7.1.0 (0)
 -->
<!-- Title: DFA Pages: 1 -->
<svg width="924pt" height="265pt"
 viewBox="0.00 0.00 923.60 265.32" xmlns="http://www.w3.org/2000/svg" xmlns:xlink="http://www.w3.org/1999/xlink">
<g id="graph0" class="graph" transform="scale(1 1) rotate(0) translate(4 261.32)">
<title>DFA</title>
<polygon fill="white" stroke="none" points="-4,4 -4,-261.32 919.6,-261.32 919.6,4 -4,4"/>
<!-- 0 -->
<g id="node1" class="node">
<title>0</title>
<polygon fill="none" stroke="black" points="51.1,-81.32 51.1,-102.32 132.1,-102.32 132.1,-81.32 51.1,-81.32"/>
<text text-anchor="start" x="54.1" y="-88.12" font-family="Courier,monospace" font-size="14.00">7 t1</text>
<polygon fill="none" stroke="black" points="51.1,-58.32 51.1,-79.32 132.1,-79.32 132.1,-58.32 51.1,-58.32"/>
<text text-anchor="start" x="54.1" y="-65.12" font-family="Courier,monospace" font-size="14.00">4 t1 /t↑ </text>
</g>
<!-- 1 -->
<g id="node3" class="node">
<title>1</title>
<polygon fill="none" stroke="black" points="230.1,-105.32 230.1,-126.32 311.1,-126.32 311.1,-105.32 230.1,-105.32"/>
<text text-anchor="start" x="233.1" y="-112.12" font-family="Courier,monospace" font-size="14.00">7 t1</text>
<polygon fill="none" stroke="black" points="230.1,-82.32 230.1,-103.32 311.1,-103.32 311.1,-82.32 230.1,-82.32"/>
<text text-anchor="start" x="233.1" y="-89.12" font-family="Courier,monospace" font-size="14.00">4 t1 /t↑ </text>
<polygon fill="none" stroke="black" points="230.1,-59.32 230.1,-80.32 311.1,-80.32 311.1,-59.32 230.1,-59.32"/>
<text text-anchor="start" x="233.1" y="-66.12" font-family="Courier,monospace" font-size="14.00">3 t3</text>
</g>
<!-- 0&#45;&gt;1 -->
<g id="edge3" class="edge">
<title>0:e&#45;&gt;1:w</title>
<path fill="none" stroke="black" d="M133.1,-92.32C146.86,-92.32 146.58,-103.87 159.6,-108.32 185.69,-117.22 195.71,-116.62 219.32,-116.37"/>
<polygon fill="black" stroke="black" points="229.1,-116.32 219.13,-120.88 224.1,-116.35 219.1,-116.38 219.1,-116.38 219.1,-116.38 224.1,-116.35 219.07,-111.88 229.1,-116.32 229.1,-116.32"/>
<text text-anchor="middle" x="180.6" y="-120.12" font-family="Courier,monospace" font-size="14.00">1</text>
</g>
<!-- 0&#45;&gt;1 -->
<g id="edge4" class="edge">
<title>0:e&#45;&gt;1:w</title>
<path fill="none" stroke="black" d="M133.1,-92.32C144.95,-92.32 147.77,-89.98 159.6,-89.32 178.24,-88.26 182.96,-88.3 201.6,-89.32 209.85,-89.77 213.88,-90.97 219.36,-91.7"/>
<polygon fill="black" stroke="black" points="229.1,-92.32 218.84,-96.18 224.11,-92 219.12,-91.69 219.12,-91.69 219.12,-91.69 224.11,-92 219.4,-87.2 229.1,-92.32 229.1,-92.32"/>
<text text-anchor="middle" x="180.6" y="-93.12" font-family="Courier,monospace" font-size="14.00">1</text>
</g>
<!-- 0&#45;&gt;1 -->
<g id="edge5" class="edge">
<title>0:e&#45;&gt;1:w</title>
<path fill="none" stroke="black" d="M133.1,-68.32C172.27,-68.32 184.47,-69.16 219.21,-69.3"/>
<polygon fill="black" stroke="black" points="229.1,-69.32 219.09,-73.8 224.1,-69.31 219.1,-69.3 219.1,-69.3 219.1,-69.3 224.1,-69.31 219.11,-64.8 229.1,-69.32 229.1,-69.32"/>
<text text-anchor="middle" x="180.6" y="-73.12" font-family="Courier,monospace" font-size="14.00">1/3↑ </text>
</g>
<!-- void -->
<g id="node2" class="node">
<title>void</title>
<ellipse fill="black" stroke="black" cx="1.8" cy="-80.32" rx="1.8" ry="1.8"/>
</g>
<!-- void&#45;&gt;0 -->
<g id="edge1" class="edge">
<title>void&#45;&gt;0:w</title>
<path fill="none" stroke="black" stroke-dasharray="1,5" d="M3.94,-80.83C8.25,-82.73 24.06,-89.36 40.15,-91.58"/>
<polygon fill="black" stroke="black" points="50.1,-92.32 39.8,-96.07 45.11,-91.95 40.13,-91.58 40.13,-91.58 40.13,-91.58 45.11,-91.95 40.46,-87.09 50.1,-92.32 50.1,-92.32"/>
</g>
<!-- void&#45;&gt;0 -->
<g id="edge2" class="edge">
<title>void&#45;&gt;0:w</title>
<path fill="none" stroke="black" stroke-dasharray="1,5" d="M3.94,-79.8C8.25,-77.9 24.06,-71.27 40.15,-69.05"/>
<polygon fill="black" stroke="black" points="50.1,-68.32 40.46,-73.54 45.11,-68.68 40.13,-69.05 40.13,-69.05 40.13,-69.05 45.11,-68.68 39.8,-64.56 50.1,-68.32 50.1,-68.32"/>
</g>
<!-- 2 -->
<g id="node4" class="node">
<title>2</title>
<polygon fill="none" stroke="black" points="409.1,-150.32 409.1,-171.32 490.1,-171.32 490.1,-150.32 409.1,-150.32"/>
<text text-anchor="start" x="412.1" y="-157.12" font-family="Courier,monospace" font-size="14.00">7 t1</text>
<polygon fill="none" stroke="black" points="409.1,-127.32 409.1,-148.32 490.1,-148.32 490.1,-127.32 409.1,-127.32"/>
<text text-anchor="start" x="412.1" y="-134.12" font-family="Courier,monospace" font-size="14.00">4 t1 /t↑ </text>
<polygon fill="none" stroke="black" points="409.1,-104.32 409.1,-125.32 490.1,-125.32 490.1,-104.32 409.1,-104.32"/>
<text text-anchor="start" x="412.1" y="-111.12" font-family="Courier,monospace" font-size="14.00">3 t4</text>
<polygon fill="none" stroke="black" points="409.1,-81.32 409.1,-102.32 490.1,-102.32 490.1,-81.32 409.1,-81.32"/>
<text text-anchor="start" x="412.1" y="-88.12" font-family="Courier,monospace" font-size="14.00">2 t3</text>
</g>
<!-- 1&#45;&gt;2 -->
<g id="edge6" class="edge">
<title>1:e&#45;&gt;2:w</title>
<path fill="none" stroke="black" d="M312.1,-116.32C330.23,-116.32 322.97,-138.14 338.6,-147.32 362.69,-161.47 373.93,-161.53 398.13,-161.36"/>
<polygon fill="black" stroke="black" points="408.1,-161.32 398.12,-165.86 403.1,-161.34 398.1,-161.36 398.1,-161.36 398.1,-161.36 403.1,-161.34 398.08,-156.86 408.1,-161.32 408.1,-161.32"/>
<text text-anchor="middle" x="359.6" y="-164.12" font-family="Courier,monospace" font-size="14.00">1</text>
</g>
<!-- 1&#45;&gt;2 -->
<g id="edge7" class="edge">
<title>1:e&#45;&gt;2:w</title>
<path fill="none" stroke="black" d="M312.1,-116.32C343.01,-116.32 350.74,-120.34 380.6,-128.32 389.24,-130.62 392.85,-134.49 398.49,-136.67"/>
<polygon fill="black" stroke="black" points="408.1,-138.32 397.48,-141.07 403.17,-137.47 398.24,-136.63 398.24,-136.63 398.24,-136.63 403.17,-137.47 399,-132.2 408.1,-138.32 408.1,-138.32"/>
<text text-anchor="middle" x="359.6" y="-132.12" font-family="Courier,monospace" font-size="14.00">1</text>
</g>
<!-- 1&#45;&gt;2 -->
<g id="edge8" class="edge">
<title>1:e&#45;&gt;2:w</title>
<path fill="none" stroke="black" d="M312.1,-92.32C331.97,-92.32 320.87,-65.28 338.6,-56.32 355.26,-47.89 364.82,-46.34 380.6,-56.32 401.13,-69.3 385.95,-102.23 398.61,-111.72"/>
<polygon fill="black" stroke="black" points="408.1,-114.32 397.27,-116.02 403.28,-113 398.45,-111.68 398.45,-111.68 398.45,-111.68 403.28,-113 399.64,-107.34 408.1,-114.32 408.1,-114.32"/>
<text text-anchor="middle" x="359.6" y="-60.12" font-family="Courier,monospace" font-size="14.00">1/4↑ </text>
</g>
<!-- 1&#45;&gt;2 -->
<g id="edge9" class="edge">
<title>1:e&#45;&gt;2:w</title>
<path fill="none" stroke="black" d="M312.1,-69.32C332.69,-69.32 320.35,-40.84 338.6,-31.32 355.15,-22.68 364.89,-21.24 380.6,-31.32 401.82,-44.93 385.21,-79.46 398.74,-88.9"/>
<polygon fill="black" stroke="black" points="408.1,-91.32 397.29,-93.17 403.26,-90.07 398.42,-88.81 398.42,-88.81 398.42,-88.81 403.26,-90.07 399.54,-84.46 408.1,-91.32 408.1,-91.32"/>
<text text-anchor="middle" x="359.6" y="-35.12" font-family="Courier,monospace" font-size="14.00">1</text>
</g>
<!-- r1 -->
<g id="node8" class="node">
<title>r1</title>
<text text-anchor="middle" x="449.1" y="-35.62" font-family="Courier,monospace" font-size="14.00">(t2)</text>
</g>
<!-- 1&#45;&gt;r1 -->
<g id="edge22" class="edge">
<title>1:e&#45;&gt;r1</title>
<path fill="none" stroke="black" stroke-dasharray="1,5" d="M320.55,-86.03C339.59,-82.54 361.37,-77.7 380.6,-71.32 391.55,-67.68 403.04,-62.71 413.37,-57.77"/>
<polygon fill="black" stroke="black" points="422.11,-53.47 415.12,-61.92 417.62,-55.68 413.14,-57.88 413.14,-57.88 413.14,-57.88 417.62,-55.68 411.15,-53.85 422.11,-53.47 422.11,-53.47"/>
<text text-anchor="middle" x="359.6" y="-87.12" font-family="Courier,monospace" font-size="14.00">/2=3 </text>
</g>
<!-- 3 -->
<g id="node5" class="node">
<title>3</title>
<polygon fill="none" stroke="black" points="588.1,-174.32 588.1,-195.32 669.1,-195.32 669.1,-174.32 588.1,-174.32"/>
<text text-anchor="start" x="591.1" y="-181.12" font-family="Courier,monospace" font-size="14.00">7 t1</text>
<polygon fill="none" stroke="black" points="588.1,-151.32 588.1,-172.32 669.1,-172.32 669.1,-151.32 588.1,-151.32"/>
<text text-anchor="start" x="591.1" y="-158.12" font-family="Courier,monospace" font-size="14.00">4 t1 /t↑ </text>
<polygon fill="none" stroke="black" points="588.1,-128.32 588.1,-149.32 669.1,-149.32 669.1,-128.32 588.1,-128.32"/>
<text text-anchor="start" x="591.1" y="-135.12" font-family="Courier,monospace" font-size="14.00">3 t5</text>
<polygon fill="none" stroke="black" points="588.1,-105.32 588.1,-126.32 669.1,-126.32 669.1,-105.32 588.1,-105.32"/>
<text text-anchor="start" x="591.1" y="-112.12" font-family="Courier,monospace" font-size="14.00">2 t4</text>
<polygon fill="none" stroke="black" points="588.1,-82.32 588.1,-103.32 669.1,-103.32 669.1,-82.32 588.1,-82.32"/>
<text text-anchor="start" x="591.1" y="-89.12" font-family="Courier,monospace" font-size="14.00">0 t3</text>
</g>
<!-- 2&#45;&gt;3 -->
<g id="edge10" class="edge">
<title>2:e&#45;&gt;3:w</title>
<path fill="none" stroke="black" d="M491.1,-161.32C509.23,-161.32 501.14,-184.73 517.6,-192.32 534.55,-200.13 541.08,-194.64 559.6,-192.32 568.01,-191.26 571.84,-188.47 577.27,-186.74"/>
<polygon fill="black" stroke="black" points="587.1,-185.32 577.85,-191.21 582.15,-186.03 577.2,-186.75 577.2,-186.75 577.2,-186.75 582.15,-186.03 576.56,-182.3 587.1,-185.32 587.1,-185.32"/>
<text text-anchor="middle" x="538.6" y="-200.12" font-family="Courier,monospace" font-size="14.00">1</text>
</g>
<!-- 2&#45;&gt;3 -->
<g id="edge11" class="edge">
<title>2:e&#45;&gt;3:w</title>
<path fill="none" stroke="black" d="M491.1,-161.32C530.27,-161.32 542.47,-162.16 577.21,-162.3"/>
<polygon fill="black" stroke="black" points="587.1,-162.32 577.09,-166.8 582.1,-162.31 577.1,-162.3 577.1,-162.3 577.1,-162.3 582.1,-162.31 577.11,-157.8 587.1,-162.32 587.1,-162.32"/>
<text text-anchor="middle" x="538.6" y="-165.12" font-family="Courier,monospace" font-size="14.00">1</text>
</g>
<!-- 2&#45;&gt;3 -->
<g id="edge12" class="edge">
<title>2:e&#45;&gt;3:w</title>
<path fill="none" stroke="black" d="M491.1,-138.32C530.27,-138.32 542.47,-138.32 577.21,-138.32"/>
<polygon fill="black" stroke="black" points="587.1,-138.32 577.1,-142.82 582.1,-138.32 577.1,-138.32 577.1,-138.32 577.1,-138.32 582.1,-138.32 577.1,-133.82 587.1,-138.32 587.1,-138.32"/>
<text text-anchor="middle" x="538.6" y="-142.12" font-family="Courier,monospace" font-size="14.00">1/5↑ </text>
</g>
<!-- 2&#45;&gt;3 -->
<g id="edge13" class="edge">
<title>2:e&#45;&gt;3:w</title>
<path fill="none" stroke="black" d="M491.1,-114.32C530.27,-114.32 542.47,-115.16 577.21,-115.3"/>
<polygon fill="black" stroke="black" points="587.1,-115.32 577.09,-119.8 582.1,-115.31 577.1,-115.3 577.1,-115.3 577.1,-115.3 582.1,-115.31 577.11,-110.8 587.1,-115.32 587.1,-115.32"/>
<text text-anchor="middle" x="538.6" y="-118.12" font-family="Courier,monospace" font-size="14.00">1</text>
</g>
<!-- 2&#45;&gt;3 -->
<g id="edge14" class="edge">
<title>2:e&#45;&gt;3:w</title>
<path fill="none" stroke="black" d="M491.1,-91.32C530.27,-91.32 542.47,-92.16 577.21,-92.3"/>
<polygon fill="black" stroke="black" points="587.1,-92.32 577.09,-96.8 582.1,-92.31 577.1,-92.3 577.1,-92.3 577.1,-92.3 582.1,-92.31 577.11,-87.8 587.1,-92.32 587.1,-92.32"/>
<text text-anchor="middle" x="538.6" y="-96.12" font-family="Courier,monospace" font-size="14.00">1</text>
</g>
<!-- r3 -->
<g id="node6" class="node">
<title>r3</title>
<text text-anchor="middle" x="865.1" y="-58.62" font-family="Courier,monospace" font-size="14.00">(t2)</text>
</g>
<!-- 3&#45;&gt;r3 -->
<g id="edge15" class="edge">
<title>3:e&#45;&gt;r3</title>
<path fill="none" stroke="black" stroke-dasharray="1,5" d="M670.1,-92.32C726.18,-92.32 790.32,-79.92 828.99,-71.07"/>
<polygon fill="black" stroke="black" points="838.25,-68.9 829.54,-75.56 833.38,-70.04 828.51,-71.18 828.51,-71.18 828.51,-71.18 833.38,-70.04 827.49,-66.8 838.25,-68.9 838.25,-68.9"/>
<text text-anchor="middle" x="746.6" y="-96.12" font-family="Courier,monospace" font-size="14.00">/2=3 </text>
</g>
<!-- i1 -->
<g id="node7" class="node">
<title>i1</title>
<polygon fill="none" stroke="black" stroke-dasharray="1,5" points="825.1,-204.32 825.1,-225.32 906.1,-225.32 906.1,-204.32 825.1,-204.32"/>
<text text-anchor="start" x="828.1" y="-211.12" font-family="Courier,monospace" font-size="14.00">7 t1</text>
<polygon fill="none" stroke="black" stroke-dasharray="1,5" points="825.1,-181.32 825.1,-202.32 906.1,-202.32 906.1,-181.32 825.1,-181.32"/>
<text text-anchor="start" x="828.1" y="-188.12" font-family="Courier,monospace" font-size="14.00">4 t1 /t↑ </text>
<polygon fill="none" stroke="black" stroke-dasharray="1,5" points="825.1,-158.32 825.1,-179.32 906.1,-179.32 906.1,-158.32 825.1,-158.32"/>
<text text-anchor="start" x="828.1" y="-165.12" font-family="Courier,monospace" font-size="14.00">3 t6</text>
<polygon fill="none" stroke="black" stroke-dasharray="1,5" points="825.1,-135.32 825.1,-156.32 906.1,-156.32 906.1,-135.32 825.1,-135.32"/>
<text text-anchor="start" x="828.1" y="-142.12" font-family="Courier,monospace" font-size="14.00">2 t5</text>
<polygon fill="none" stroke="black" stroke-dasharray="1,5" points="825.1,-112.32 825.1,-133.32 906.1,-133.32 906.1,-112.32 825.1,-112.32"/>
<text text-anchor="start" x="828.1" y="-119.12" font-family="Courier,monospace" font-size="14.00">0 t4</text>
</g>
<!-- 3&#45;&gt;i1 -->
<g id="edge17" class="edge">
<title>3:e&#45;&gt;i1:w</title>
<path fill="none" stroke="black" d="M670.1,-185.32C693.31,-185.32 676.45,-218.8 696.6,-230.32 735.19,-252.37 753.53,-241.3 796.6,-230.32 806.09,-227.9 808.94,-221.46 814.65,-217.86"/>
<polygon fill="black" stroke="black" points="824.1,-215.32 815.61,-222.26 819.27,-216.61 814.44,-217.91 814.44,-217.91 814.44,-217.91 819.27,-216.61 813.27,-213.57 824.1,-215.32 824.1,-215.32"/>
<text text-anchor="middle" x="746.6" y="-246.12" font-family="Courier,monospace" font-size="14.00">1</text>
</g>
<!-- 3&#45;&gt;i1 -->
<g id="edge18" class="edge">
<title>3:e&#45;&gt;i1:w</title>
<path fill="none" stroke="black" d="M670.1,-185.32C682.28,-185.32 684.52,-190.75 696.6,-192.32 749.39,-199.17 765.51,-193.15 814.25,-192.39"/>
<polygon fill="black" stroke="black" points="824.1,-192.32 814.13,-196.89 819.1,-192.35 814.1,-192.39 814.1,-192.39 814.1,-192.39 819.1,-192.35 814.07,-187.89 824.1,-192.32 824.1,-192.32"/>
<text text-anchor="middle" x="746.6" y="-199.12" font-family="Courier,monospace" font-size="14.00">1</text>
</g>
<!-- 3&#45;&gt;i1 -->
<g id="edge19" class="edge">
<title>3:e&#45;&gt;i1:w</title>
<path fill="none" stroke="black" d="M670.1,-162.32C735.25,-162.32 753.82,-167.74 814.42,-168.28"/>
<polygon fill="black" stroke="black" points="824.1,-168.32 814.08,-172.77 819.1,-168.3 814.1,-168.27 814.1,-168.27 814.1,-168.27 819.1,-168.3 814.12,-163.77 824.1,-168.32 824.1,-168.32"/>
<text text-anchor="middle" x="746.6" y="-171.12" font-family="Courier,monospace" font-size="14.00">1/6↑ </text>
</g>
<!-- 3&#45;&gt;i1 -->
<g id="edge20" class="edge">
<title>3:e&#45;&gt;i1:w</title>
<path fill="none" stroke="black" d="M670.1,-138.32C726.37,-138.32 740.42,-140.16 796.6,-143.32 804.82,-143.78 808.88,-144.52 814.37,-144.96"/>
<polygon fill="black" stroke="black" points="824.1,-145.32 813.94,-149.45 819.1,-145.13 814.11,-144.95 814.11,-144.95 814.11,-144.95 819.1,-145.13 814.27,-140.45 824.1,-145.32 824.1,-145.32"/>
<text text-anchor="middle" x="746.6" y="-147.12" font-family="Courier,monospace" font-size="14.00">1</text>
</g>
<!-- 3&#45;&gt;i1 -->
<g id="edge21" class="edge">
<title>3:e&#45;&gt;i1:w</title>
<path fill="none" stroke="black" d="M670.1,-115.32C726.35,-115.32 740.49,-115.37 796.6,-119.32 804.84,-119.9 808.87,-121.05 814.36,-121.75"/>
<polygon fill="black" stroke="black" points="824.1,-122.32 813.85,-126.22 819.11,-122.02 814.12,-121.73 814.12,-121.73 814.12,-121.73 819.11,-122.02 814.38,-117.24 824.1,-122.32 824.1,-122.32"/>
<text text-anchor="middle" x="746.6" y="-123.12" font-family="Courier,monospace" font-size="14.00">1</text>
</g>
<!-- i1&#45;&gt;3 -->
<g id="edge16" class="edge">
<title>i1:s&#45;&gt;3:s</title>
<path fill="none" stroke="black" stroke-dasharray="1,5" d="M865.1,-106.32C865.1,-82.63 830.92,-106.48 814.6,-89.32 794.24,-67.9 820.15,-43.16 796.6,-25.32 736.91,19.9 637.14,3.52 628.68,-66.55"/>
<polygon fill="black" stroke="black" points="628.1,-76.32 624.2,-66.07 628.39,-71.33 628.69,-66.33 628.69,-66.33 628.69,-66.33 628.39,-71.33 633.18,-66.6 628.1,-76.32 628.1,-76.32"/>
<text text-anchor="middle" x="746.6" y="-29.12" font-family="Courier,monospace" font-size="14.00">/3=4 4=5 5↑ </text>
</g>
</g>
</svg>
